%TF.GenerationSoftware,KiCad,Pcbnew,8.0.8*%
%TF.CreationDate,2025-02-27T23:00:34-08:00*%
%TF.ProjectId,514_final_display_pcb,3531345f-6669-46e6-916c-5f646973706c,rev?*%
%TF.SameCoordinates,Original*%
%TF.FileFunction,Copper,L1,Top*%
%TF.FilePolarity,Positive*%
%FSLAX46Y46*%
G04 Gerber Fmt 4.6, Leading zero omitted, Abs format (unit mm)*
G04 Created by KiCad (PCBNEW 8.0.8) date 2025-02-27 23:00:34*
%MOMM*%
%LPD*%
G01*
G04 APERTURE LIST*
G04 Aperture macros list*
%AMRoundRect*
0 Rectangle with rounded corners*
0 $1 Rounding radius*
0 $2 $3 $4 $5 $6 $7 $8 $9 X,Y pos of 4 corners*
0 Add a 4 corners polygon primitive as box body*
4,1,4,$2,$3,$4,$5,$6,$7,$8,$9,$2,$3,0*
0 Add four circle primitives for the rounded corners*
1,1,$1+$1,$2,$3*
1,1,$1+$1,$4,$5*
1,1,$1+$1,$6,$7*
1,1,$1+$1,$8,$9*
0 Add four rect primitives between the rounded corners*
20,1,$1+$1,$2,$3,$4,$5,0*
20,1,$1+$1,$4,$5,$6,$7,0*
20,1,$1+$1,$6,$7,$8,$9,0*
20,1,$1+$1,$8,$9,$2,$3,0*%
G04 Aperture macros list end*
%TA.AperFunction,ComponentPad*%
%ADD10R,1.800000X1.800000*%
%TD*%
%TA.AperFunction,ComponentPad*%
%ADD11C,1.800000*%
%TD*%
%TA.AperFunction,SMDPad,CuDef*%
%ADD12RoundRect,0.250000X-0.450000X0.350000X-0.450000X-0.350000X0.450000X-0.350000X0.450000X0.350000X0*%
%TD*%
%TA.AperFunction,ComponentPad*%
%ADD13C,1.700000*%
%TD*%
%TA.AperFunction,SMDPad,CuDef*%
%ADD14RoundRect,0.250000X0.350000X0.450000X-0.350000X0.450000X-0.350000X-0.450000X0.350000X-0.450000X0*%
%TD*%
%TA.AperFunction,ComponentPad*%
%ADD15C,2.000000*%
%TD*%
%TA.AperFunction,SMDPad,CuDef*%
%ADD16RoundRect,0.250000X-0.350000X-0.450000X0.350000X-0.450000X0.350000X0.450000X-0.350000X0.450000X0*%
%TD*%
%TA.AperFunction,ComponentPad*%
%ADD17O,1.600000X2.000000*%
%TD*%
%TA.AperFunction,SMDPad,CuDef*%
%ADD18RoundRect,0.250000X0.450000X-0.350000X0.450000X0.350000X-0.450000X0.350000X-0.450000X-0.350000X0*%
%TD*%
%TA.AperFunction,ComponentPad*%
%ADD19O,1.778000X3.556000*%
%TD*%
%TA.AperFunction,SMDPad,CuDef*%
%ADD20RoundRect,0.250000X0.337500X0.475000X-0.337500X0.475000X-0.337500X-0.475000X0.337500X-0.475000X0*%
%TD*%
%TA.AperFunction,SMDPad,CuDef*%
%ADD21RoundRect,0.250000X-0.337500X-0.475000X0.337500X-0.475000X0.337500X0.475000X-0.337500X0.475000X0*%
%TD*%
%TA.AperFunction,Conductor*%
%ADD22C,0.200000*%
%TD*%
G04 APERTURE END LIST*
D10*
%TO.P,D1,1,K*%
%TO.N,GND*%
X101975000Y-86000000D03*
D11*
%TO.P,D1,2,A*%
%TO.N,Net-(D1-A)*%
X104515000Y-86000000D03*
%TD*%
D12*
%TO.P,R4,1*%
%TO.N,/3.3V*%
X132500000Y-103000000D03*
%TO.P,R4,2*%
%TO.N,/minus*%
X132500000Y-105000000D03*
%TD*%
D13*
%TO.P,M1,1*%
%TO.N,/SM_1*%
X91610000Y-68720000D03*
%TO.P,M1,2,-*%
%TO.N,/SM_2*%
X91610000Y-61100000D03*
%TO.P,M1,3*%
%TO.N,/SM_3*%
X114470000Y-68720000D03*
%TO.P,M1,4*%
%TO.N,/SM_4*%
X114470000Y-61100000D03*
%TD*%
D14*
%TO.P,R2,1*%
%TO.N,/3.3V*%
X128250000Y-114250000D03*
%TO.P,R2,2*%
%TO.N,/Reset*%
X126250000Y-114250000D03*
%TD*%
D15*
%TO.P,SW2,1,1*%
%TO.N,GND*%
X117000000Y-108250000D03*
X110500000Y-108250000D03*
%TO.P,SW2,2,2*%
%TO.N,/plus*%
X117000000Y-103750000D03*
X110500000Y-103750000D03*
%TD*%
D16*
%TO.P,R1,1*%
%TO.N,Net-(D1-A)*%
X110000000Y-83250000D03*
%TO.P,R1,2*%
%TO.N,Net-(U1-GPIO43_TX_D6)*%
X112000000Y-83250000D03*
%TD*%
D17*
%TO.P,Brd1,1,GND*%
%TO.N,GND*%
X85580000Y-94550000D03*
%TO.P,Brd1,2,VCC*%
%TO.N,/3.3V*%
X88120000Y-94550000D03*
%TO.P,Brd1,3,SCL*%
%TO.N,/SSD_SCL*%
X90660000Y-94550000D03*
%TO.P,Brd1,4,SDA*%
%TO.N,/SSD_SDA*%
X93200000Y-94550000D03*
%TD*%
D18*
%TO.P,R3,1*%
%TO.N,/3.3V*%
X106500000Y-109000000D03*
%TO.P,R3,2*%
%TO.N,/plus*%
X106500000Y-107000000D03*
%TD*%
D15*
%TO.P,SW1,1,1*%
%TO.N,GND*%
X122750000Y-119000000D03*
X116250000Y-119000000D03*
%TO.P,SW1,2,2*%
%TO.N,/Reset*%
X122750000Y-114500000D03*
X116250000Y-114500000D03*
%TD*%
D19*
%TO.P,U1,1,GPIO1_A0_D0*%
%TO.N,/SM_4*%
X133490000Y-76998000D03*
%TO.P,U1,2,GPIO2_A1_D1*%
%TO.N,/SM_2*%
X130950000Y-76998000D03*
%TO.P,U1,3,GPIO3_A2_D2*%
%TO.N,/SM_3*%
X128410000Y-76998000D03*
%TO.P,U1,4,GPIO4_A3_D3*%
%TO.N,/SM_1*%
X125870000Y-76998000D03*
%TO.P,U1,5,GPIO4_A3_D3_SDA*%
%TO.N,/SSD_SDA*%
X123330000Y-76998000D03*
%TO.P,U1,6,GPIO6_A5_D5_SCL*%
%TO.N,/SSD_SCL*%
X120790000Y-76998000D03*
%TO.P,U1,7,GPIO43_TX_D6*%
%TO.N,Net-(U1-GPIO43_TX_D6)*%
X118250000Y-76998000D03*
%TO.P,U1,8,5V*%
%TO.N,/BT1*%
X133490000Y-93762000D03*
%TO.P,U1,9,GND*%
%TO.N,GND*%
X130950000Y-93762000D03*
%TO.P,U1,10,3V3*%
%TO.N,/3.3V*%
X128410000Y-93762000D03*
%TO.P,U1,11,GPIO9_A10_D10_COPI*%
%TO.N,/minus*%
X125870000Y-93762000D03*
%TO.P,U1,12,GPIO8_A9_D9_CIPO*%
%TO.N,/plus*%
X123330000Y-93762000D03*
%TO.P,U1,13,GPIO7_A8_D8_SCK*%
%TO.N,/Reset*%
X120790000Y-93762000D03*
%TO.P,U1,14,GPIO44_D7_RX*%
%TO.N,unconnected-(U1-GPIO44_D7_RX-Pad14)*%
X118250000Y-93762000D03*
%TD*%
D20*
%TO.P,C1,1*%
%TO.N,/BT1*%
X135500000Y-98750000D03*
%TO.P,C1,2*%
%TO.N,GND*%
X133425000Y-98750000D03*
%TD*%
D15*
%TO.P,SW3,1,1*%
%TO.N,GND*%
X128500000Y-108250000D03*
X122000000Y-108250000D03*
%TO.P,SW3,2,2*%
%TO.N,/minus*%
X128500000Y-103750000D03*
X122000000Y-103750000D03*
%TD*%
D21*
%TO.P,C2,1*%
%TO.N,/3.3V*%
X128425000Y-98750000D03*
%TO.P,C2,2*%
%TO.N,GND*%
X130500000Y-98750000D03*
%TD*%
D22*
%TO.N,/SSD_SCL*%
X93210000Y-92000000D02*
X106550000Y-92000000D01*
X90660000Y-94550000D02*
X93210000Y-92000000D01*
X106550000Y-92000000D02*
X120790000Y-77760000D01*
%TO.N,Net-(U1-GPIO43_TX_D6)*%
X116790000Y-77760000D02*
X118250000Y-77760000D01*
X112000000Y-82550000D02*
X116790000Y-77760000D01*
X112000000Y-83250000D02*
X112000000Y-82550000D01*
%TO.N,GND*%
X110500000Y-108250000D02*
X117000000Y-108250000D01*
X122000000Y-108250000D02*
X128500000Y-108250000D01*
X116250000Y-119000000D02*
X122750000Y-119000000D01*
%TO.N,/SSD_SDA*%
X93200000Y-94550000D02*
X106540000Y-94550000D01*
X106540000Y-94550000D02*
X123330000Y-77760000D01*
%TO.N,/BT1*%
X135500000Y-95010000D02*
X133490000Y-93000000D01*
X135500000Y-98750000D02*
X135500000Y-95010000D01*
%TO.N,Net-(D1-A)*%
X104515000Y-86000000D02*
X107265000Y-83250000D01*
X107265000Y-83250000D02*
X110000000Y-83250000D01*
%TO.N,/SM_2*%
X91610000Y-61100000D02*
X96978566Y-66468566D01*
X91600000Y-61100000D02*
X91500000Y-61000000D01*
X122718566Y-66468566D02*
X130950000Y-74700000D01*
X91610000Y-61100000D02*
X91600000Y-61100000D01*
X130950000Y-74700000D02*
X130950000Y-77760000D01*
X96978566Y-66468566D02*
X122718566Y-66468566D01*
%TO.N,/SM_4*%
X121600000Y-61100000D02*
X133500000Y-73000000D01*
X114470000Y-61030000D02*
X114470000Y-61100000D01*
X133490000Y-73010000D02*
X133490000Y-77760000D01*
X114470000Y-61030000D02*
X114500000Y-61000000D01*
X133500000Y-73000000D02*
X133490000Y-73010000D01*
X114470000Y-61100000D02*
X121600000Y-61100000D01*
%TO.N,/SM_1*%
X125870000Y-74870000D02*
X123357484Y-72357484D01*
X125870000Y-77760000D02*
X125870000Y-74870000D01*
X123357484Y-72357484D02*
X95247484Y-72357484D01*
X95247484Y-72357484D02*
X91610000Y-68720000D01*
%TO.N,/SM_3*%
X128410000Y-74910000D02*
X128410000Y-77760000D01*
X116750000Y-71000000D02*
X124500000Y-71000000D01*
X114470000Y-68720000D02*
X116750000Y-71000000D01*
X124500000Y-71000000D02*
X128410000Y-74910000D01*
%TO.N,/Reset*%
X116250000Y-99250000D02*
X120790000Y-94710000D01*
X103750000Y-102500000D02*
X107000000Y-99250000D01*
X123000000Y-114250000D02*
X122750000Y-114500000D01*
X120790000Y-94710000D02*
X120790000Y-93000000D01*
X108000000Y-114500000D02*
X103750000Y-110250000D01*
X116250000Y-114500000D02*
X122750000Y-114500000D01*
X107000000Y-99250000D02*
X116250000Y-99250000D01*
X116250000Y-114500000D02*
X108000000Y-114500000D01*
X103750000Y-110250000D02*
X103750000Y-102500000D01*
X126250000Y-114250000D02*
X123000000Y-114250000D01*
%TO.N,/plus*%
X106500000Y-107000000D02*
X107250000Y-107000000D01*
X117000000Y-103750000D02*
X123330000Y-97420000D01*
X110500000Y-103750000D02*
X117000000Y-103750000D01*
X105750000Y-107500000D02*
X106750000Y-107500000D01*
X107250000Y-107000000D02*
X110500000Y-103750000D01*
X123330000Y-97420000D02*
X123330000Y-93000000D01*
%TO.N,/minus*%
X132500000Y-105000000D02*
X129750000Y-105000000D01*
X125870000Y-101120000D02*
X125870000Y-93000000D01*
X122000000Y-103750000D02*
X128500000Y-103750000D01*
X128500000Y-103750000D02*
X125870000Y-101120000D01*
X129750000Y-105000000D02*
X128500000Y-103750000D01*
%TO.N,/3.3V*%
X135500000Y-116500000D02*
X135500000Y-107500000D01*
X135500000Y-107500000D02*
X135500000Y-104250000D01*
X128425000Y-98750000D02*
X128425000Y-98925000D01*
X88120000Y-94550000D02*
X88120000Y-104870000D01*
X134250000Y-103000000D02*
X132500000Y-103000000D01*
X128425000Y-98750000D02*
X128425000Y-93015000D01*
X132250000Y-111250000D02*
X135500000Y-108000000D01*
X105250000Y-122000000D02*
X130000000Y-122000000D01*
X135500000Y-104250000D02*
X134250000Y-103000000D01*
X129250000Y-114250000D02*
X132250000Y-111250000D01*
X128425000Y-98925000D02*
X132500000Y-103000000D01*
X135500000Y-108000000D02*
X135500000Y-107500000D01*
X106500000Y-109000000D02*
X108750000Y-111250000D01*
X108750000Y-111250000D02*
X132250000Y-111250000D01*
X130000000Y-122000000D02*
X135500000Y-116500000D01*
X88120000Y-104870000D02*
X105250000Y-122000000D01*
X128250000Y-114250000D02*
X129250000Y-114250000D01*
X128425000Y-93015000D02*
X128410000Y-93000000D01*
%TD*%
%TA.AperFunction,Conductor*%
%TO.N,GND*%
G36*
X137192539Y-49520185D02*
G01*
X137238294Y-49572989D01*
X137249500Y-49624500D01*
X137249500Y-119501743D01*
X137229815Y-119568782D01*
X137177011Y-119614537D01*
X137107853Y-119624481D01*
X137044297Y-119595456D01*
X137016668Y-119561170D01*
X136937229Y-119415690D01*
X136937224Y-119415682D01*
X136765745Y-119186612D01*
X136765729Y-119186594D01*
X136563405Y-118984270D01*
X136563387Y-118984254D01*
X136334317Y-118812775D01*
X136334309Y-118812770D01*
X136083166Y-118675635D01*
X136083167Y-118675635D01*
X135937009Y-118621121D01*
X135815046Y-118575631D01*
X135815043Y-118575630D01*
X135815037Y-118575628D01*
X135535433Y-118514804D01*
X135250001Y-118494390D01*
X135249999Y-118494390D01*
X134964566Y-118514804D01*
X134684960Y-118575629D01*
X134684955Y-118575630D01*
X134684954Y-118575631D01*
X134639405Y-118592620D01*
X134562991Y-118621121D01*
X134493300Y-118626105D01*
X134431977Y-118592620D01*
X134398492Y-118531297D01*
X134403476Y-118461605D01*
X134431977Y-118417258D01*
X134565603Y-118283632D01*
X135980520Y-116868716D01*
X136059577Y-116731784D01*
X136100501Y-116579057D01*
X136100501Y-116420942D01*
X136100501Y-116413347D01*
X136100500Y-116413329D01*
X136100500Y-104339059D01*
X136100501Y-104339046D01*
X136100501Y-104170945D01*
X136100501Y-104170943D01*
X136059577Y-104018215D01*
X136015985Y-103942712D01*
X135980520Y-103881284D01*
X135868716Y-103769480D01*
X135864385Y-103765149D01*
X135864374Y-103765139D01*
X134737590Y-102638355D01*
X134737588Y-102638352D01*
X134618717Y-102519481D01*
X134618716Y-102519480D01*
X134531904Y-102469360D01*
X134531904Y-102469359D01*
X134531900Y-102469358D01*
X134481785Y-102440423D01*
X134329057Y-102399499D01*
X134170943Y-102399499D01*
X134163347Y-102399499D01*
X134163331Y-102399500D01*
X133745908Y-102399500D01*
X133678869Y-102379815D01*
X133640363Y-102335728D01*
X133638605Y-102336813D01*
X133634381Y-102329964D01*
X133542712Y-102181344D01*
X133418656Y-102057288D01*
X133269334Y-101965186D01*
X133102797Y-101910001D01*
X133102795Y-101910000D01*
X133000016Y-101899500D01*
X133000009Y-101899500D01*
X132300097Y-101899500D01*
X132233058Y-101879815D01*
X132212416Y-101863181D01*
X130324234Y-99974999D01*
X130750000Y-99974999D01*
X130887472Y-99974999D01*
X130887486Y-99974998D01*
X130990197Y-99964505D01*
X131156619Y-99909358D01*
X131156624Y-99909356D01*
X131305845Y-99817315D01*
X131429815Y-99693345D01*
X131521856Y-99544124D01*
X131521858Y-99544119D01*
X131577005Y-99377697D01*
X131577006Y-99377690D01*
X131587499Y-99274986D01*
X132337501Y-99274986D01*
X132347994Y-99377697D01*
X132403141Y-99544119D01*
X132403143Y-99544124D01*
X132495184Y-99693345D01*
X132619154Y-99817315D01*
X132768375Y-99909356D01*
X132768380Y-99909358D01*
X132934802Y-99964505D01*
X132934809Y-99964506D01*
X133037519Y-99974999D01*
X133174999Y-99974999D01*
X133175000Y-99974998D01*
X133175000Y-99000000D01*
X132337501Y-99000000D01*
X132337501Y-99274986D01*
X131587499Y-99274986D01*
X131587500Y-99274973D01*
X131587500Y-99000000D01*
X130750000Y-99000000D01*
X130750000Y-99974999D01*
X130324234Y-99974999D01*
X130286319Y-99937084D01*
X130252834Y-99875761D01*
X130250000Y-99849403D01*
X130250000Y-98500000D01*
X130750000Y-98500000D01*
X131587499Y-98500000D01*
X131587499Y-98225028D01*
X131587498Y-98225013D01*
X132337500Y-98225013D01*
X132337500Y-98500000D01*
X133175000Y-98500000D01*
X133175000Y-97525000D01*
X133037527Y-97525000D01*
X133037512Y-97525001D01*
X132934802Y-97535494D01*
X132768380Y-97590641D01*
X132768375Y-97590643D01*
X132619154Y-97682684D01*
X132495184Y-97806654D01*
X132403143Y-97955875D01*
X132403141Y-97955880D01*
X132347994Y-98122302D01*
X132347993Y-98122309D01*
X132337500Y-98225013D01*
X131587498Y-98225013D01*
X131577005Y-98122302D01*
X131521858Y-97955880D01*
X131521856Y-97955875D01*
X131429815Y-97806654D01*
X131305845Y-97682684D01*
X131156624Y-97590643D01*
X131156619Y-97590641D01*
X130990197Y-97535494D01*
X130990190Y-97535493D01*
X130887486Y-97525000D01*
X130750000Y-97525000D01*
X130750000Y-98500000D01*
X130250000Y-98500000D01*
X130250000Y-97525000D01*
X130112527Y-97525000D01*
X130112512Y-97525001D01*
X130009802Y-97535494D01*
X129843380Y-97590641D01*
X129843375Y-97590643D01*
X129694154Y-97682684D01*
X129570183Y-97806655D01*
X129570179Y-97806660D01*
X129568326Y-97809665D01*
X129566518Y-97811290D01*
X129565702Y-97812323D01*
X129565525Y-97812183D01*
X129516374Y-97856385D01*
X129447411Y-97867601D01*
X129383331Y-97839752D01*
X129357253Y-97809653D01*
X129357237Y-97809628D01*
X129355212Y-97806344D01*
X129231156Y-97682288D01*
X129084402Y-97591770D01*
X129037679Y-97539823D01*
X129025500Y-97486232D01*
X129025500Y-95972846D01*
X129045185Y-95905807D01*
X129093204Y-95862361D01*
X129138257Y-95839407D01*
X129272374Y-95741966D01*
X129315193Y-95710857D01*
X129315195Y-95710854D01*
X129315199Y-95710852D01*
X129469852Y-95556199D01*
X129579991Y-95404603D01*
X129635320Y-95361939D01*
X129704933Y-95355960D01*
X129766729Y-95388565D01*
X129780627Y-95404605D01*
X129890524Y-95555866D01*
X129890528Y-95555871D01*
X130045128Y-95710471D01*
X130045133Y-95710475D01*
X130222001Y-95838976D01*
X130416808Y-95938237D01*
X130416811Y-95938238D01*
X130624739Y-96005797D01*
X130699999Y-96017717D01*
X130700000Y-96017717D01*
X130700000Y-93442251D01*
X130753919Y-93473381D01*
X130883120Y-93508000D01*
X131016880Y-93508000D01*
X131146081Y-93473381D01*
X131200000Y-93442251D01*
X131200000Y-96017717D01*
X131275258Y-96005797D01*
X131275261Y-96005797D01*
X131483188Y-95938238D01*
X131483191Y-95938237D01*
X131677998Y-95838976D01*
X131854866Y-95710475D01*
X131854871Y-95710471D01*
X132009469Y-95555873D01*
X132119371Y-95404605D01*
X132174701Y-95361939D01*
X132244314Y-95355960D01*
X132306110Y-95388565D01*
X132320008Y-95404605D01*
X132430142Y-95556192D01*
X132430146Y-95556197D01*
X132584806Y-95710857D01*
X132750374Y-95831147D01*
X132761743Y-95839407D01*
X132836793Y-95877647D01*
X132956616Y-95938701D01*
X132956619Y-95938702D01*
X133060621Y-95972493D01*
X133164625Y-96006286D01*
X133264672Y-96022132D01*
X133380639Y-96040500D01*
X133380644Y-96040500D01*
X133599361Y-96040500D01*
X133704082Y-96023912D01*
X133815375Y-96006286D01*
X134023383Y-95938701D01*
X134218257Y-95839407D01*
X134352374Y-95741966D01*
X134395193Y-95710857D01*
X134395195Y-95710854D01*
X134395199Y-95710852D01*
X134549852Y-95556199D01*
X134675183Y-95383694D01*
X134730511Y-95341030D01*
X134800124Y-95335051D01*
X134861920Y-95367656D01*
X134896277Y-95428495D01*
X134899500Y-95456581D01*
X134899500Y-97486232D01*
X134879815Y-97553271D01*
X134840598Y-97591769D01*
X134744923Y-97650781D01*
X134693842Y-97682289D01*
X134569788Y-97806343D01*
X134569783Y-97806349D01*
X134567741Y-97809661D01*
X134565747Y-97811453D01*
X134565307Y-97812011D01*
X134565211Y-97811935D01*
X134515791Y-97856383D01*
X134446828Y-97867602D01*
X134382747Y-97839755D01*
X134356668Y-97809656D01*
X134354819Y-97806659D01*
X134354816Y-97806655D01*
X134230845Y-97682684D01*
X134081624Y-97590643D01*
X134081619Y-97590641D01*
X133915197Y-97535494D01*
X133915190Y-97535493D01*
X133812486Y-97525000D01*
X133675000Y-97525000D01*
X133675000Y-99974999D01*
X133812472Y-99974999D01*
X133812486Y-99974998D01*
X133915197Y-99964505D01*
X134081619Y-99909358D01*
X134081624Y-99909356D01*
X134230845Y-99817315D01*
X134354818Y-99693342D01*
X134356665Y-99690348D01*
X134358469Y-99688724D01*
X134359298Y-99687677D01*
X134359476Y-99687818D01*
X134408610Y-99643621D01*
X134477573Y-99632396D01*
X134541656Y-99660236D01*
X134567743Y-99690341D01*
X134569788Y-99693656D01*
X134693844Y-99817712D01*
X134843166Y-99909814D01*
X135009703Y-99964999D01*
X135112491Y-99975500D01*
X135887508Y-99975499D01*
X135887516Y-99975498D01*
X135887519Y-99975498D01*
X135943802Y-99969748D01*
X135990297Y-99964999D01*
X136156834Y-99909814D01*
X136306156Y-99817712D01*
X136430212Y-99693656D01*
X136522314Y-99544334D01*
X136577499Y-99377797D01*
X136588000Y-99275009D01*
X136587999Y-98224992D01*
X136577499Y-98122203D01*
X136522314Y-97955666D01*
X136430212Y-97806344D01*
X136306156Y-97682288D01*
X136159402Y-97591770D01*
X136112679Y-97539823D01*
X136100500Y-97486232D01*
X136100500Y-94930945D01*
X136100500Y-94930943D01*
X136060534Y-94781785D01*
X136059577Y-94778215D01*
X136039241Y-94742993D01*
X136030639Y-94728094D01*
X136030637Y-94728092D01*
X135980520Y-94641284D01*
X135868716Y-94529480D01*
X135868715Y-94529479D01*
X135864385Y-94525149D01*
X135864374Y-94525139D01*
X134915819Y-93576584D01*
X134882334Y-93515261D01*
X134879500Y-93488903D01*
X134879500Y-92763638D01*
X134854109Y-92603334D01*
X134845286Y-92547625D01*
X134777701Y-92339617D01*
X134777701Y-92339616D01*
X134743315Y-92272132D01*
X134678407Y-92144743D01*
X134659681Y-92118969D01*
X134549857Y-91967806D01*
X134395193Y-91813142D01*
X134218260Y-91684595D01*
X134218259Y-91684594D01*
X134218257Y-91684593D01*
X134155825Y-91652782D01*
X134023383Y-91585298D01*
X134023380Y-91585297D01*
X133815376Y-91517714D01*
X133599361Y-91483500D01*
X133599356Y-91483500D01*
X133380644Y-91483500D01*
X133380639Y-91483500D01*
X133164623Y-91517714D01*
X132956619Y-91585297D01*
X132956616Y-91585298D01*
X132761739Y-91684595D01*
X132584806Y-91813142D01*
X132430146Y-91967802D01*
X132430142Y-91967807D01*
X132320008Y-92119394D01*
X132264678Y-92162060D01*
X132195065Y-92168039D01*
X132133270Y-92135433D01*
X132119372Y-92119394D01*
X132009475Y-91968133D01*
X132009471Y-91968128D01*
X131854871Y-91813528D01*
X131854866Y-91813524D01*
X131677998Y-91685023D01*
X131483191Y-91585762D01*
X131483188Y-91585761D01*
X131275258Y-91518201D01*
X131200000Y-91506281D01*
X131200000Y-92557748D01*
X131146081Y-92526619D01*
X131016880Y-92492000D01*
X130883120Y-92492000D01*
X130753919Y-92526619D01*
X130700000Y-92557748D01*
X130700000Y-91506281D01*
X130624741Y-91518201D01*
X130416811Y-91585761D01*
X130416808Y-91585762D01*
X130222001Y-91685023D01*
X130045133Y-91813524D01*
X130045128Y-91813528D01*
X129890528Y-91968128D01*
X129890524Y-91968133D01*
X129780627Y-92119394D01*
X129725297Y-92162060D01*
X129655684Y-92168039D01*
X129593889Y-92135433D01*
X129579991Y-92119394D01*
X129469857Y-91967807D01*
X129469853Y-91967802D01*
X129315193Y-91813142D01*
X129138260Y-91684595D01*
X129138259Y-91684594D01*
X129138257Y-91684593D01*
X129075825Y-91652782D01*
X128943383Y-91585298D01*
X128943380Y-91585297D01*
X128735376Y-91517714D01*
X128519361Y-91483500D01*
X128519356Y-91483500D01*
X128300644Y-91483500D01*
X128300639Y-91483500D01*
X128084623Y-91517714D01*
X127876619Y-91585297D01*
X127876616Y-91585298D01*
X127681739Y-91684595D01*
X127504806Y-91813142D01*
X127350142Y-91967806D01*
X127240318Y-92118969D01*
X127184989Y-92161635D01*
X127115375Y-92167614D01*
X127053580Y-92135009D01*
X127039682Y-92118969D01*
X126929857Y-91967806D01*
X126775193Y-91813142D01*
X126598260Y-91684595D01*
X126598259Y-91684594D01*
X126598257Y-91684593D01*
X126535825Y-91652782D01*
X126403383Y-91585298D01*
X126403380Y-91585297D01*
X126195376Y-91517714D01*
X125979361Y-91483500D01*
X125979356Y-91483500D01*
X125760644Y-91483500D01*
X125760639Y-91483500D01*
X125544623Y-91517714D01*
X125336619Y-91585297D01*
X125336616Y-91585298D01*
X125141739Y-91684595D01*
X124964806Y-91813142D01*
X124810142Y-91967806D01*
X124700318Y-92118969D01*
X124644989Y-92161635D01*
X124575375Y-92167614D01*
X124513580Y-92135009D01*
X124499682Y-92118969D01*
X124389857Y-91967806D01*
X124235193Y-91813142D01*
X124058260Y-91684595D01*
X124058259Y-91684594D01*
X124058257Y-91684593D01*
X123995825Y-91652782D01*
X123863383Y-91585298D01*
X123863380Y-91585297D01*
X123655376Y-91517714D01*
X123439361Y-91483500D01*
X123439356Y-91483500D01*
X123220644Y-91483500D01*
X123220639Y-91483500D01*
X123004623Y-91517714D01*
X122796619Y-91585297D01*
X122796616Y-91585298D01*
X122601739Y-91684595D01*
X122424806Y-91813142D01*
X122270142Y-91967806D01*
X122160318Y-92118969D01*
X122104989Y-92161635D01*
X122035375Y-92167614D01*
X121973580Y-92135009D01*
X121959682Y-92118969D01*
X121849857Y-91967806D01*
X121695193Y-91813142D01*
X121518260Y-91684595D01*
X121518259Y-91684594D01*
X121518257Y-91684593D01*
X121455825Y-91652782D01*
X121323383Y-91585298D01*
X121323380Y-91585297D01*
X121115376Y-91517714D01*
X120899361Y-91483500D01*
X120899356Y-91483500D01*
X120680644Y-91483500D01*
X120680639Y-91483500D01*
X120464623Y-91517714D01*
X120256619Y-91585297D01*
X120256616Y-91585298D01*
X120061739Y-91684595D01*
X119884806Y-91813142D01*
X119730142Y-91967806D01*
X119620318Y-92118969D01*
X119564989Y-92161635D01*
X119495375Y-92167614D01*
X119433580Y-92135009D01*
X119419682Y-92118969D01*
X119309857Y-91967806D01*
X119155193Y-91813142D01*
X118978260Y-91684595D01*
X118978259Y-91684594D01*
X118978257Y-91684593D01*
X118915825Y-91652782D01*
X118783383Y-91585298D01*
X118783380Y-91585297D01*
X118575376Y-91517714D01*
X118359361Y-91483500D01*
X118359356Y-91483500D01*
X118140644Y-91483500D01*
X118140639Y-91483500D01*
X117924623Y-91517714D01*
X117716619Y-91585297D01*
X117716616Y-91585298D01*
X117521739Y-91684595D01*
X117344806Y-91813142D01*
X117190142Y-91967806D01*
X117061595Y-92144739D01*
X116962298Y-92339616D01*
X116962297Y-92339619D01*
X116894714Y-92547623D01*
X116860500Y-92763638D01*
X116860500Y-94760361D01*
X116894714Y-94976376D01*
X116962297Y-95184380D01*
X116962298Y-95184383D01*
X117018083Y-95293865D01*
X117049722Y-95355960D01*
X117061595Y-95379260D01*
X117190142Y-95556193D01*
X117344806Y-95710857D01*
X117510374Y-95831147D01*
X117521743Y-95839407D01*
X117596793Y-95877647D01*
X117716616Y-95938701D01*
X117716619Y-95938702D01*
X117820621Y-95972493D01*
X117924625Y-96006286D01*
X118024672Y-96022132D01*
X118140639Y-96040500D01*
X118310901Y-96040500D01*
X118377940Y-96060185D01*
X118423695Y-96112989D01*
X118433639Y-96182147D01*
X118404614Y-96245703D01*
X118398582Y-96252181D01*
X116037584Y-98613181D01*
X115976261Y-98646666D01*
X115949903Y-98649500D01*
X107079057Y-98649500D01*
X106920943Y-98649500D01*
X106768215Y-98690423D01*
X106768214Y-98690423D01*
X106768212Y-98690424D01*
X106768209Y-98690425D01*
X106718096Y-98719359D01*
X106718095Y-98719360D01*
X106674689Y-98744420D01*
X106631285Y-98769479D01*
X106631282Y-98769481D01*
X103269481Y-102131282D01*
X103269479Y-102131285D01*
X103219361Y-102218094D01*
X103219359Y-102218096D01*
X103190425Y-102268209D01*
X103190424Y-102268210D01*
X103182652Y-102297215D01*
X103149499Y-102420943D01*
X103149499Y-102420945D01*
X103149499Y-102589046D01*
X103149500Y-102589059D01*
X103149500Y-110163330D01*
X103149499Y-110163348D01*
X103149499Y-110329054D01*
X103149498Y-110329054D01*
X103190423Y-110481785D01*
X103219358Y-110531900D01*
X103219359Y-110531904D01*
X103219360Y-110531904D01*
X103266284Y-110613181D01*
X103269479Y-110618714D01*
X103269481Y-110618717D01*
X103388349Y-110737585D01*
X103388354Y-110737589D01*
X107631284Y-114980520D01*
X107631286Y-114980521D01*
X107631290Y-114980524D01*
X107768209Y-115059573D01*
X107768216Y-115059577D01*
X107920943Y-115100501D01*
X107920945Y-115100501D01*
X108086654Y-115100501D01*
X108086670Y-115100500D01*
X114793884Y-115100500D01*
X114860923Y-115120185D01*
X114906678Y-115172989D01*
X114907440Y-115174689D01*
X114925827Y-115216608D01*
X115061833Y-115424782D01*
X115075841Y-115439999D01*
X115230256Y-115607738D01*
X115426491Y-115760474D01*
X115645190Y-115878828D01*
X115880386Y-115959571D01*
X116125665Y-116000500D01*
X116374335Y-116000500D01*
X116619614Y-115959571D01*
X116854810Y-115878828D01*
X117073509Y-115760474D01*
X117269744Y-115607738D01*
X117438164Y-115424785D01*
X117574173Y-115216607D01*
X117592560Y-115174689D01*
X117637517Y-115121204D01*
X117704253Y-115100514D01*
X117706116Y-115100500D01*
X121293884Y-115100500D01*
X121360923Y-115120185D01*
X121406678Y-115172989D01*
X121407440Y-115174689D01*
X121425827Y-115216608D01*
X121561833Y-115424782D01*
X121575841Y-115439999D01*
X121730256Y-115607738D01*
X121926491Y-115760474D01*
X122145190Y-115878828D01*
X122380386Y-115959571D01*
X122625665Y-116000500D01*
X122874335Y-116000500D01*
X123119614Y-115959571D01*
X123354810Y-115878828D01*
X123573509Y-115760474D01*
X123769744Y-115607738D01*
X123938164Y-115424785D01*
X124074173Y-115216607D01*
X124174063Y-114988881D01*
X124185413Y-114944059D01*
X124220952Y-114883904D01*
X124283372Y-114852512D01*
X124305619Y-114850500D01*
X125069699Y-114850500D01*
X125136738Y-114870185D01*
X125182493Y-114922989D01*
X125187403Y-114935492D01*
X125215186Y-115019334D01*
X125307288Y-115168656D01*
X125431344Y-115292712D01*
X125580666Y-115384814D01*
X125747203Y-115439999D01*
X125849991Y-115450500D01*
X126650008Y-115450499D01*
X126650016Y-115450498D01*
X126650019Y-115450498D01*
X126706302Y-115444748D01*
X126752797Y-115439999D01*
X126919334Y-115384814D01*
X127068656Y-115292712D01*
X127162319Y-115199049D01*
X127223642Y-115165564D01*
X127293334Y-115170548D01*
X127337681Y-115199049D01*
X127431344Y-115292712D01*
X127580666Y-115384814D01*
X127747203Y-115439999D01*
X127849991Y-115450500D01*
X128650008Y-115450499D01*
X128650016Y-115450498D01*
X128650019Y-115450498D01*
X128706302Y-115444748D01*
X128752797Y-115439999D01*
X128919334Y-115384814D01*
X129068656Y-115292712D01*
X129192712Y-115168656D01*
X129284814Y-115019334D01*
X129320870Y-114910522D01*
X129360641Y-114853080D01*
X129406479Y-114829754D01*
X129481785Y-114809577D01*
X129531904Y-114780639D01*
X129618716Y-114730520D01*
X129730520Y-114618716D01*
X129730520Y-114618714D01*
X129740728Y-114608507D01*
X129740729Y-114608504D01*
X132730520Y-111618716D01*
X132730520Y-111618714D01*
X132740724Y-111608511D01*
X132740727Y-111608506D01*
X134687820Y-109661413D01*
X134749142Y-109627930D01*
X134818834Y-109632914D01*
X134874767Y-109674786D01*
X134899184Y-109740250D01*
X134899500Y-109749096D01*
X134899500Y-116199902D01*
X134879815Y-116266941D01*
X134863181Y-116287583D01*
X129787584Y-121363181D01*
X129726261Y-121396666D01*
X129699903Y-121399500D01*
X105550097Y-121399500D01*
X105483058Y-121379815D01*
X105462416Y-121363181D01*
X103099229Y-118999994D01*
X114744859Y-118999994D01*
X114744859Y-119000005D01*
X114765385Y-119247729D01*
X114765387Y-119247738D01*
X114826412Y-119488717D01*
X114926267Y-119716367D01*
X115026562Y-119869881D01*
X115726212Y-119170233D01*
X115737482Y-119212292D01*
X115809890Y-119337708D01*
X115912292Y-119440110D01*
X116037708Y-119512518D01*
X116079766Y-119523787D01*
X115379943Y-120223609D01*
X115426768Y-120260055D01*
X115426771Y-120260057D01*
X115645385Y-120378364D01*
X115645396Y-120378369D01*
X115880506Y-120459083D01*
X116125707Y-120500000D01*
X116374293Y-120500000D01*
X116619493Y-120459083D01*
X116854603Y-120378369D01*
X116854614Y-120378364D01*
X117073230Y-120260056D01*
X117073236Y-120260051D01*
X117120055Y-120223610D01*
X117120056Y-120223609D01*
X116420233Y-119523787D01*
X116462292Y-119512518D01*
X116587708Y-119440110D01*
X116690110Y-119337708D01*
X116762518Y-119212292D01*
X116773787Y-119170234D01*
X117473435Y-119869882D01*
X117573733Y-119716364D01*
X117673587Y-119488717D01*
X117734612Y-119247738D01*
X117734614Y-119247729D01*
X117755141Y-119000005D01*
X117755141Y-118999994D01*
X121244859Y-118999994D01*
X121244859Y-119000005D01*
X121265385Y-119247729D01*
X121265387Y-119247738D01*
X121326412Y-119488717D01*
X121426267Y-119716367D01*
X121526562Y-119869881D01*
X122226212Y-119170233D01*
X122237482Y-119212292D01*
X122309890Y-119337708D01*
X122412292Y-119440110D01*
X122537708Y-119512518D01*
X122579766Y-119523787D01*
X121879943Y-120223609D01*
X121926768Y-120260055D01*
X121926771Y-120260057D01*
X122145385Y-120378364D01*
X122145396Y-120378369D01*
X122380506Y-120459083D01*
X122625707Y-120500000D01*
X122874293Y-120500000D01*
X123119493Y-120459083D01*
X123354603Y-120378369D01*
X123354614Y-120378364D01*
X123573230Y-120260056D01*
X123573236Y-120260051D01*
X123620055Y-120223610D01*
X123620056Y-120223609D01*
X122920233Y-119523787D01*
X122962292Y-119512518D01*
X123087708Y-119440110D01*
X123190110Y-119337708D01*
X123262518Y-119212292D01*
X123273787Y-119170234D01*
X123973435Y-119869882D01*
X124073733Y-119716364D01*
X124173587Y-119488717D01*
X124234612Y-119247738D01*
X124234614Y-119247729D01*
X124255141Y-119000005D01*
X124255141Y-118999994D01*
X124234614Y-118752270D01*
X124234612Y-118752261D01*
X124173587Y-118511282D01*
X124073732Y-118283632D01*
X123973435Y-118130116D01*
X123273787Y-118829765D01*
X123262518Y-118787708D01*
X123190110Y-118662292D01*
X123087708Y-118559890D01*
X122962292Y-118487482D01*
X122920233Y-118476212D01*
X123620055Y-117776389D01*
X123620055Y-117776388D01*
X123573236Y-117739947D01*
X123573231Y-117739944D01*
X123354614Y-117621635D01*
X123354603Y-117621630D01*
X123119493Y-117540916D01*
X122874293Y-117500000D01*
X122625707Y-117500000D01*
X122380506Y-117540916D01*
X122145396Y-117621630D01*
X122145385Y-117621635D01*
X121926770Y-117739943D01*
X121879943Y-117776389D01*
X122579766Y-118476212D01*
X122537708Y-118487482D01*
X122412292Y-118559890D01*
X122309890Y-118662292D01*
X122237482Y-118787708D01*
X122226212Y-118829766D01*
X121526563Y-118130117D01*
X121426267Y-118283633D01*
X121426265Y-118283637D01*
X121326412Y-118511282D01*
X121265387Y-118752261D01*
X121265385Y-118752270D01*
X121244859Y-118999994D01*
X117755141Y-118999994D01*
X117734614Y-118752270D01*
X117734612Y-118752261D01*
X117673587Y-118511282D01*
X117573732Y-118283632D01*
X117473435Y-118130116D01*
X116773787Y-118829765D01*
X116762518Y-118787708D01*
X116690110Y-118662292D01*
X116587708Y-118559890D01*
X116462292Y-118487482D01*
X116420233Y-118476212D01*
X117120055Y-117776389D01*
X117120055Y-117776388D01*
X117073236Y-117739947D01*
X117073231Y-117739944D01*
X116854614Y-117621635D01*
X116854603Y-117621630D01*
X116619493Y-117540916D01*
X116374293Y-117500000D01*
X116125707Y-117500000D01*
X115880506Y-117540916D01*
X115645396Y-117621630D01*
X115645385Y-117621635D01*
X115426770Y-117739943D01*
X115379943Y-117776389D01*
X116079766Y-118476212D01*
X116037708Y-118487482D01*
X115912292Y-118559890D01*
X115809890Y-118662292D01*
X115737482Y-118787708D01*
X115726212Y-118829766D01*
X115026563Y-118130117D01*
X114926267Y-118283633D01*
X114926265Y-118283637D01*
X114826412Y-118511282D01*
X114765387Y-118752261D01*
X114765385Y-118752270D01*
X114744859Y-118999994D01*
X103099229Y-118999994D01*
X88756819Y-104657584D01*
X88723334Y-104596261D01*
X88720500Y-104569903D01*
X88720500Y-95979601D01*
X88740185Y-95912562D01*
X88788206Y-95869116D01*
X88801610Y-95862287D01*
X88967219Y-95741966D01*
X89111966Y-95597219D01*
X89111968Y-95597215D01*
X89111971Y-95597213D01*
X89232284Y-95431614D01*
X89232286Y-95431611D01*
X89232287Y-95431610D01*
X89279516Y-95338917D01*
X89327489Y-95288123D01*
X89395310Y-95271328D01*
X89461445Y-95293865D01*
X89500483Y-95338917D01*
X89525997Y-95388990D01*
X89547715Y-95431614D01*
X89668028Y-95597213D01*
X89812786Y-95741971D01*
X89967749Y-95854556D01*
X89978390Y-95862287D01*
X90063803Y-95905807D01*
X90160776Y-95955218D01*
X90160778Y-95955218D01*
X90160781Y-95955220D01*
X90226111Y-95976447D01*
X90355465Y-96018477D01*
X90456557Y-96034488D01*
X90557648Y-96050500D01*
X90557649Y-96050500D01*
X90762351Y-96050500D01*
X90762352Y-96050500D01*
X90964534Y-96018477D01*
X91159219Y-95955220D01*
X91341610Y-95862287D01*
X91434590Y-95794732D01*
X91507213Y-95741971D01*
X91507215Y-95741968D01*
X91507219Y-95741966D01*
X91651966Y-95597219D01*
X91651968Y-95597215D01*
X91651971Y-95597213D01*
X91772284Y-95431614D01*
X91772286Y-95431611D01*
X91772287Y-95431610D01*
X91819516Y-95338917D01*
X91867489Y-95288123D01*
X91935310Y-95271328D01*
X92001445Y-95293865D01*
X92040483Y-95338917D01*
X92065997Y-95388990D01*
X92087715Y-95431614D01*
X92208028Y-95597213D01*
X92352786Y-95741971D01*
X92507749Y-95854556D01*
X92518390Y-95862287D01*
X92603803Y-95905807D01*
X92700776Y-95955218D01*
X92700778Y-95955218D01*
X92700781Y-95955220D01*
X92766111Y-95976447D01*
X92895465Y-96018477D01*
X92996557Y-96034488D01*
X93097648Y-96050500D01*
X93097649Y-96050500D01*
X93302351Y-96050500D01*
X93302352Y-96050500D01*
X93504534Y-96018477D01*
X93699219Y-95955220D01*
X93881610Y-95862287D01*
X93974590Y-95794732D01*
X94047213Y-95741971D01*
X94047215Y-95741968D01*
X94047219Y-95741966D01*
X94191966Y-95597219D01*
X94191968Y-95597215D01*
X94191971Y-95597213D01*
X94244732Y-95524590D01*
X94312287Y-95431610D01*
X94405220Y-95249219D01*
X94409457Y-95236180D01*
X94448895Y-95178505D01*
X94513254Y-95151308D01*
X94527387Y-95150500D01*
X106453331Y-95150500D01*
X106453347Y-95150501D01*
X106460943Y-95150501D01*
X106619054Y-95150501D01*
X106619057Y-95150501D01*
X106771785Y-95109577D01*
X106825237Y-95078716D01*
X106908716Y-95030520D01*
X107020520Y-94918716D01*
X107020520Y-94918714D01*
X107030724Y-94908511D01*
X107030728Y-94908506D01*
X122718672Y-79220561D01*
X122779993Y-79187078D01*
X122844665Y-79190312D01*
X122937768Y-79220563D01*
X123004624Y-79242286D01*
X123220639Y-79276500D01*
X123220644Y-79276500D01*
X123439361Y-79276500D01*
X123544082Y-79259912D01*
X123655375Y-79242286D01*
X123863383Y-79174701D01*
X124058257Y-79075407D01*
X124157601Y-79003229D01*
X124235193Y-78946857D01*
X124235195Y-78946854D01*
X124235199Y-78946852D01*
X124389852Y-78792199D01*
X124499683Y-78641028D01*
X124555011Y-78598364D01*
X124624624Y-78592385D01*
X124686420Y-78624990D01*
X124700313Y-78641023D01*
X124810144Y-78792193D01*
X124810148Y-78792199D01*
X124964806Y-78946857D01*
X125130374Y-79067147D01*
X125141743Y-79075407D01*
X125269132Y-79140315D01*
X125336616Y-79174701D01*
X125336619Y-79174702D01*
X125384666Y-79190313D01*
X125544625Y-79242286D01*
X125644672Y-79258132D01*
X125760639Y-79276500D01*
X125760644Y-79276500D01*
X125979361Y-79276500D01*
X126084082Y-79259912D01*
X126195375Y-79242286D01*
X126403383Y-79174701D01*
X126598257Y-79075407D01*
X126697601Y-79003229D01*
X126775193Y-78946857D01*
X126775195Y-78946854D01*
X126775199Y-78946852D01*
X126929852Y-78792199D01*
X127039683Y-78641028D01*
X127095011Y-78598364D01*
X127164624Y-78592385D01*
X127226420Y-78624990D01*
X127240313Y-78641023D01*
X127350144Y-78792193D01*
X127350148Y-78792199D01*
X127504806Y-78946857D01*
X127670374Y-79067147D01*
X127681743Y-79075407D01*
X127809132Y-79140315D01*
X127876616Y-79174701D01*
X127876619Y-79174702D01*
X127924666Y-79190313D01*
X128084625Y-79242286D01*
X128184672Y-79258132D01*
X128300639Y-79276500D01*
X128300644Y-79276500D01*
X128519361Y-79276500D01*
X128624082Y-79259912D01*
X128735375Y-79242286D01*
X128943383Y-79174701D01*
X129138257Y-79075407D01*
X129237601Y-79003229D01*
X129315193Y-78946857D01*
X129315195Y-78946854D01*
X129315199Y-78946852D01*
X129469852Y-78792199D01*
X129579683Y-78641028D01*
X129635011Y-78598364D01*
X129704624Y-78592385D01*
X129766420Y-78624990D01*
X129780313Y-78641023D01*
X129890144Y-78792193D01*
X129890148Y-78792199D01*
X130044806Y-78946857D01*
X130210374Y-79067147D01*
X130221743Y-79075407D01*
X130349132Y-79140315D01*
X130416616Y-79174701D01*
X130416619Y-79174702D01*
X130464666Y-79190313D01*
X130624625Y-79242286D01*
X130724672Y-79258132D01*
X130840639Y-79276500D01*
X130840644Y-79276500D01*
X131059361Y-79276500D01*
X131164082Y-79259912D01*
X131275375Y-79242286D01*
X131483383Y-79174701D01*
X131678257Y-79075407D01*
X131777601Y-79003229D01*
X131855193Y-78946857D01*
X131855195Y-78946854D01*
X131855199Y-78946852D01*
X132009852Y-78792199D01*
X132119683Y-78641028D01*
X132175011Y-78598364D01*
X132244624Y-78592385D01*
X132306420Y-78624990D01*
X132320313Y-78641023D01*
X132430144Y-78792193D01*
X132430148Y-78792199D01*
X132584806Y-78946857D01*
X132750374Y-79067147D01*
X132761743Y-79075407D01*
X132889132Y-79140315D01*
X132956616Y-79174701D01*
X132956619Y-79174702D01*
X133004666Y-79190313D01*
X133164625Y-79242286D01*
X133264672Y-79258132D01*
X133380639Y-79276500D01*
X133380644Y-79276500D01*
X133599361Y-79276500D01*
X133704082Y-79259912D01*
X133815375Y-79242286D01*
X134023383Y-79174701D01*
X134218257Y-79075407D01*
X134317601Y-79003229D01*
X134395193Y-78946857D01*
X134395195Y-78946854D01*
X134395199Y-78946852D01*
X134549852Y-78792199D01*
X134549854Y-78792195D01*
X134549857Y-78792193D01*
X134606229Y-78714601D01*
X134678407Y-78615257D01*
X134777701Y-78420383D01*
X134845286Y-78212375D01*
X134862912Y-78101082D01*
X134879500Y-77996361D01*
X134879500Y-75999638D01*
X134859595Y-75873971D01*
X134845286Y-75783625D01*
X134811493Y-75679621D01*
X134777702Y-75575619D01*
X134777701Y-75575616D01*
X134690060Y-75403614D01*
X134678407Y-75380743D01*
X134659681Y-75354969D01*
X134549857Y-75203806D01*
X134395193Y-75049142D01*
X134218258Y-74920593D01*
X134158204Y-74889993D01*
X134107408Y-74842018D01*
X134090500Y-74779509D01*
X134090500Y-73132702D01*
X134094725Y-73100609D01*
X134094987Y-73099631D01*
X134100500Y-73079057D01*
X134100500Y-72920943D01*
X134059577Y-72768215D01*
X133980519Y-72631284D01*
X133868716Y-72519481D01*
X122087590Y-60738355D01*
X122087588Y-60738352D01*
X121968717Y-60619481D01*
X121968716Y-60619480D01*
X121881904Y-60569360D01*
X121881904Y-60569359D01*
X121881900Y-60569358D01*
X121831785Y-60540423D01*
X121679057Y-60499499D01*
X121520943Y-60499499D01*
X121513347Y-60499499D01*
X121513331Y-60499500D01*
X115759091Y-60499500D01*
X115692052Y-60479815D01*
X115646711Y-60427909D01*
X115644037Y-60422175D01*
X115644034Y-60422170D01*
X115644033Y-60422169D01*
X115508495Y-60228599D01*
X115508494Y-60228597D01*
X115341402Y-60061506D01*
X115341395Y-60061501D01*
X115147834Y-59925967D01*
X115147830Y-59925965D01*
X115147828Y-59925964D01*
X114933663Y-59826097D01*
X114933659Y-59826096D01*
X114933655Y-59826094D01*
X114705413Y-59764938D01*
X114705403Y-59764936D01*
X114470001Y-59744341D01*
X114469999Y-59744341D01*
X114234596Y-59764936D01*
X114234586Y-59764938D01*
X114006344Y-59826094D01*
X114006335Y-59826098D01*
X113792171Y-59925964D01*
X113792169Y-59925965D01*
X113598597Y-60061505D01*
X113431505Y-60228597D01*
X113295965Y-60422169D01*
X113295964Y-60422171D01*
X113196098Y-60636335D01*
X113196094Y-60636344D01*
X113134938Y-60864586D01*
X113134936Y-60864596D01*
X113114341Y-61099999D01*
X113114341Y-61100000D01*
X113134936Y-61335403D01*
X113134938Y-61335413D01*
X113196094Y-61563655D01*
X113196096Y-61563659D01*
X113196097Y-61563663D01*
X113268839Y-61719658D01*
X113295965Y-61777830D01*
X113295967Y-61777834D01*
X113404281Y-61932521D01*
X113431505Y-61971401D01*
X113598599Y-62138495D01*
X113695384Y-62206265D01*
X113792165Y-62274032D01*
X113792167Y-62274033D01*
X113792170Y-62274035D01*
X114006337Y-62373903D01*
X114234592Y-62435063D01*
X114422918Y-62451539D01*
X114469999Y-62455659D01*
X114470000Y-62455659D01*
X114470001Y-62455659D01*
X114509234Y-62452226D01*
X114705408Y-62435063D01*
X114933663Y-62373903D01*
X115147830Y-62274035D01*
X115341401Y-62138495D01*
X115508495Y-61971401D01*
X115644035Y-61777830D01*
X115646707Y-61772097D01*
X115692878Y-61719658D01*
X115759091Y-61700500D01*
X121299903Y-61700500D01*
X121366942Y-61720185D01*
X121387584Y-61736819D01*
X132853181Y-73202416D01*
X132886666Y-73263739D01*
X132889500Y-73290097D01*
X132889500Y-74779509D01*
X132869815Y-74846548D01*
X132821796Y-74889993D01*
X132761741Y-74920593D01*
X132584806Y-75049142D01*
X132430142Y-75203806D01*
X132320318Y-75354969D01*
X132264989Y-75397635D01*
X132195375Y-75403614D01*
X132133580Y-75371009D01*
X132119682Y-75354969D01*
X132009857Y-75203806D01*
X131855193Y-75049142D01*
X131678258Y-74920593D01*
X131618205Y-74889994D01*
X131567410Y-74842020D01*
X131550501Y-74779510D01*
X131550501Y-74620944D01*
X131550501Y-74620943D01*
X131509577Y-74468216D01*
X131487212Y-74429478D01*
X131430524Y-74331290D01*
X131430518Y-74331282D01*
X123206156Y-66106921D01*
X123206154Y-66106918D01*
X123087283Y-65988047D01*
X123087282Y-65988046D01*
X123000470Y-65937926D01*
X123000470Y-65937925D01*
X123000466Y-65937924D01*
X122950351Y-65908989D01*
X122797623Y-65868065D01*
X122639509Y-65868065D01*
X122631913Y-65868065D01*
X122631897Y-65868066D01*
X117875827Y-65868066D01*
X117808788Y-65848381D01*
X117763033Y-65795577D01*
X117753089Y-65726419D01*
X117772018Y-65676244D01*
X117820049Y-65602728D01*
X117916610Y-65382591D01*
X117975620Y-65149563D01*
X117995471Y-64910000D01*
X117975620Y-64670437D01*
X117916610Y-64437409D01*
X117820049Y-64217272D01*
X117688571Y-64016031D01*
X117525764Y-63839175D01*
X117525759Y-63839171D01*
X117525757Y-63839169D01*
X117336075Y-63691533D01*
X117336069Y-63691529D01*
X117124657Y-63577118D01*
X117124652Y-63577116D01*
X116897300Y-63499066D01*
X116719468Y-63469391D01*
X116660192Y-63459500D01*
X116419808Y-63459500D01*
X116372387Y-63467413D01*
X116182699Y-63499066D01*
X115955347Y-63577116D01*
X115955342Y-63577118D01*
X115743930Y-63691529D01*
X115743924Y-63691533D01*
X115554242Y-63839169D01*
X115554239Y-63839172D01*
X115391430Y-64016029D01*
X115391427Y-64016033D01*
X115259951Y-64217270D01*
X115163389Y-64437410D01*
X115104379Y-64670440D01*
X115084529Y-64909994D01*
X115084529Y-64910005D01*
X115104379Y-65149559D01*
X115104379Y-65149562D01*
X115104380Y-65149563D01*
X115163390Y-65382591D01*
X115259951Y-65602728D01*
X115259952Y-65602729D01*
X115307982Y-65676244D01*
X115328169Y-65743134D01*
X115308989Y-65810319D01*
X115256531Y-65856470D01*
X115204173Y-65868066D01*
X97278663Y-65868066D01*
X97211624Y-65848381D01*
X97190982Y-65831747D01*
X92942766Y-61583531D01*
X92909281Y-61522208D01*
X92910672Y-61463757D01*
X92911863Y-61459309D01*
X92945063Y-61335408D01*
X92965659Y-61100000D01*
X92945063Y-60864592D01*
X92883903Y-60636337D01*
X92784035Y-60422171D01*
X92784034Y-60422169D01*
X92648494Y-60228597D01*
X92481402Y-60061506D01*
X92481395Y-60061501D01*
X92287834Y-59925967D01*
X92287830Y-59925965D01*
X92287828Y-59925964D01*
X92073663Y-59826097D01*
X92073659Y-59826096D01*
X92073655Y-59826094D01*
X91845413Y-59764938D01*
X91845403Y-59764936D01*
X91610001Y-59744341D01*
X91609999Y-59744341D01*
X91374596Y-59764936D01*
X91374586Y-59764938D01*
X91146344Y-59826094D01*
X91146335Y-59826098D01*
X90932171Y-59925964D01*
X90932169Y-59925965D01*
X90738597Y-60061505D01*
X90571505Y-60228597D01*
X90435965Y-60422169D01*
X90435964Y-60422171D01*
X90336098Y-60636335D01*
X90336094Y-60636344D01*
X90274938Y-60864586D01*
X90274936Y-60864596D01*
X90254341Y-61099999D01*
X90254341Y-61100000D01*
X90274936Y-61335403D01*
X90274938Y-61335413D01*
X90336094Y-61563655D01*
X90336096Y-61563659D01*
X90336097Y-61563663D01*
X90408839Y-61719658D01*
X90435965Y-61777830D01*
X90435967Y-61777834D01*
X90544281Y-61932521D01*
X90571505Y-61971401D01*
X90738599Y-62138495D01*
X90835384Y-62206265D01*
X90932165Y-62274032D01*
X90932167Y-62274033D01*
X90932170Y-62274035D01*
X91146337Y-62373903D01*
X91374592Y-62435063D01*
X91562918Y-62451539D01*
X91609999Y-62455659D01*
X91610000Y-62455659D01*
X91610001Y-62455659D01*
X91649234Y-62452226D01*
X91845408Y-62435063D01*
X91973757Y-62400672D01*
X92043606Y-62402335D01*
X92093531Y-62432766D01*
X96493705Y-66832940D01*
X96493715Y-66832951D01*
X96498045Y-66837281D01*
X96498046Y-66837282D01*
X96609850Y-66949086D01*
X96696661Y-66999205D01*
X96696663Y-66999207D01*
X96734717Y-67021177D01*
X96746781Y-67028143D01*
X96899509Y-67069067D01*
X96899512Y-67069067D01*
X97065219Y-67069067D01*
X97065235Y-67069066D01*
X122418469Y-67069066D01*
X122485508Y-67088751D01*
X122506150Y-67105385D01*
X130176776Y-74776012D01*
X130210261Y-74837335D01*
X130205277Y-74907027D01*
X130163405Y-74962960D01*
X130161981Y-74964011D01*
X130044802Y-75049146D01*
X129890142Y-75203806D01*
X129780318Y-75354969D01*
X129724989Y-75397635D01*
X129655375Y-75403614D01*
X129593580Y-75371009D01*
X129579682Y-75354969D01*
X129469857Y-75203806D01*
X129315193Y-75049142D01*
X129138258Y-74920593D01*
X129067309Y-74884442D01*
X129016514Y-74836467D01*
X129003833Y-74806058D01*
X128969577Y-74678215D01*
X128925726Y-74602264D01*
X128890520Y-74541284D01*
X128778716Y-74429480D01*
X128778715Y-74429479D01*
X128774385Y-74425149D01*
X128774374Y-74425139D01*
X124987590Y-70638355D01*
X124987588Y-70638352D01*
X124868717Y-70519481D01*
X124868716Y-70519480D01*
X124781904Y-70469360D01*
X124781904Y-70469359D01*
X124781900Y-70469358D01*
X124731785Y-70440423D01*
X124579057Y-70399499D01*
X124420943Y-70399499D01*
X124413347Y-70399499D01*
X124413331Y-70399500D01*
X117050097Y-70399500D01*
X116983058Y-70379815D01*
X116962416Y-70363181D01*
X115802766Y-69203531D01*
X115769281Y-69142208D01*
X115770672Y-69083757D01*
X115771863Y-69079309D01*
X115805063Y-68955408D01*
X115825659Y-68720000D01*
X115805063Y-68484592D01*
X115743903Y-68256337D01*
X115644035Y-68042171D01*
X115508495Y-67848599D01*
X115508494Y-67848597D01*
X115341402Y-67681506D01*
X115341395Y-67681501D01*
X115147834Y-67545967D01*
X115147830Y-67545965D01*
X115147828Y-67545964D01*
X114933663Y-67446097D01*
X114933659Y-67446096D01*
X114933655Y-67446094D01*
X114705413Y-67384938D01*
X114705403Y-67384936D01*
X114470001Y-67364341D01*
X114469999Y-67364341D01*
X114234596Y-67384936D01*
X114234586Y-67384938D01*
X114006344Y-67446094D01*
X114006335Y-67446098D01*
X113792171Y-67545964D01*
X113792169Y-67545965D01*
X113598597Y-67681505D01*
X113431505Y-67848597D01*
X113295965Y-68042169D01*
X113295964Y-68042171D01*
X113196098Y-68256335D01*
X113196094Y-68256344D01*
X113134938Y-68484586D01*
X113134936Y-68484596D01*
X113114341Y-68719999D01*
X113114341Y-68720000D01*
X113134936Y-68955403D01*
X113134938Y-68955413D01*
X113196094Y-69183655D01*
X113196096Y-69183659D01*
X113196097Y-69183663D01*
X113205362Y-69203531D01*
X113295965Y-69397830D01*
X113295967Y-69397834D01*
X113404281Y-69552521D01*
X113431505Y-69591401D01*
X113598599Y-69758495D01*
X113695384Y-69826265D01*
X113792165Y-69894032D01*
X113792167Y-69894033D01*
X113792170Y-69894035D01*
X114006337Y-69993903D01*
X114234592Y-70055063D01*
X114422918Y-70071539D01*
X114469999Y-70075659D01*
X114470000Y-70075659D01*
X114470001Y-70075659D01*
X114509234Y-70072226D01*
X114705408Y-70055063D01*
X114833757Y-70020672D01*
X114903606Y-70022335D01*
X114953531Y-70052766D01*
X116265139Y-71364374D01*
X116265149Y-71364385D01*
X116269479Y-71368715D01*
X116269480Y-71368716D01*
X116381284Y-71480520D01*
X116456956Y-71524208D01*
X116459360Y-71525596D01*
X116507576Y-71576163D01*
X116520800Y-71644770D01*
X116494832Y-71709635D01*
X116437919Y-71750164D01*
X116397361Y-71756984D01*
X95547581Y-71756984D01*
X95480542Y-71737299D01*
X95459900Y-71720665D01*
X92942766Y-69203531D01*
X92909281Y-69142208D01*
X92910672Y-69083757D01*
X92911863Y-69079309D01*
X92945063Y-68955408D01*
X92965659Y-68720000D01*
X92945063Y-68484592D01*
X92883903Y-68256337D01*
X92784035Y-68042171D01*
X92648495Y-67848599D01*
X92648494Y-67848597D01*
X92481402Y-67681506D01*
X92481395Y-67681501D01*
X92287834Y-67545967D01*
X92287830Y-67545965D01*
X92287828Y-67545964D01*
X92073663Y-67446097D01*
X92073659Y-67446096D01*
X92073655Y-67446094D01*
X91845413Y-67384938D01*
X91845403Y-67384936D01*
X91610001Y-67364341D01*
X91609999Y-67364341D01*
X91374596Y-67384936D01*
X91374586Y-67384938D01*
X91146344Y-67446094D01*
X91146335Y-67446098D01*
X90932171Y-67545964D01*
X90932169Y-67545965D01*
X90738597Y-67681505D01*
X90571505Y-67848597D01*
X90435965Y-68042169D01*
X90435964Y-68042171D01*
X90336098Y-68256335D01*
X90336094Y-68256344D01*
X90274938Y-68484586D01*
X90274936Y-68484596D01*
X90254341Y-68719999D01*
X90254341Y-68720000D01*
X90274936Y-68955403D01*
X90274938Y-68955413D01*
X90336094Y-69183655D01*
X90336096Y-69183659D01*
X90336097Y-69183663D01*
X90345362Y-69203531D01*
X90435965Y-69397830D01*
X90435967Y-69397834D01*
X90544281Y-69552521D01*
X90571505Y-69591401D01*
X90738599Y-69758495D01*
X90835384Y-69826265D01*
X90932165Y-69894032D01*
X90932167Y-69894033D01*
X90932170Y-69894035D01*
X91146337Y-69993903D01*
X91374592Y-70055063D01*
X91562918Y-70071539D01*
X91609999Y-70075659D01*
X91610000Y-70075659D01*
X91610001Y-70075659D01*
X91649234Y-70072226D01*
X91845408Y-70055063D01*
X91973757Y-70020672D01*
X92043606Y-70022335D01*
X92093531Y-70052766D01*
X94762623Y-72721858D01*
X94762633Y-72721869D01*
X94766963Y-72726199D01*
X94766964Y-72726200D01*
X94878768Y-72838004D01*
X94965579Y-72888123D01*
X94965581Y-72888125D01*
X95015697Y-72917060D01*
X95015699Y-72917061D01*
X95168426Y-72957984D01*
X95168427Y-72957984D01*
X101225759Y-72957984D01*
X101292798Y-72977669D01*
X101338553Y-73030473D01*
X101348497Y-73099631D01*
X101319472Y-73163187D01*
X101310643Y-73172376D01*
X101250132Y-73229199D01*
X101053577Y-73466793D01*
X100888366Y-73727126D01*
X100888362Y-73727132D01*
X100757080Y-74006120D01*
X100757078Y-74006125D01*
X100661795Y-74299376D01*
X100661794Y-74299380D01*
X100661794Y-74299381D01*
X100636977Y-74429478D01*
X100604016Y-74602264D01*
X100604014Y-74602274D01*
X100584655Y-74909994D01*
X100584655Y-74910005D01*
X100604014Y-75217725D01*
X100604015Y-75217732D01*
X100661795Y-75520623D01*
X100757078Y-75813874D01*
X100757080Y-75813879D01*
X100888362Y-76092867D01*
X100888366Y-76092873D01*
X101053577Y-76353206D01*
X101053579Y-76353209D01*
X101053584Y-76353216D01*
X101250131Y-76590799D01*
X101250132Y-76590800D01*
X101474902Y-76801874D01*
X101474912Y-76801882D01*
X101724348Y-76983108D01*
X101724353Y-76983110D01*
X101724360Y-76983116D01*
X101994565Y-77131663D01*
X101994570Y-77131665D01*
X101994572Y-77131666D01*
X101994573Y-77131667D01*
X102281253Y-77245171D01*
X102281256Y-77245172D01*
X102579910Y-77321853D01*
X102579914Y-77321854D01*
X102644091Y-77329961D01*
X102885816Y-77360499D01*
X102885825Y-77360499D01*
X102885828Y-77360500D01*
X102885830Y-77360500D01*
X103194170Y-77360500D01*
X103194172Y-77360500D01*
X103194175Y-77360499D01*
X103194183Y-77360499D01*
X103376722Y-77337438D01*
X103500086Y-77321854D01*
X103798743Y-77245172D01*
X103798746Y-77245171D01*
X104085426Y-77131667D01*
X104085427Y-77131666D01*
X104085425Y-77131666D01*
X104085435Y-77131663D01*
X104355640Y-76983116D01*
X104605096Y-76801876D01*
X104829869Y-76590799D01*
X105026416Y-76353216D01*
X105191635Y-76092871D01*
X105322922Y-75813873D01*
X105418206Y-75520619D01*
X105475984Y-75217736D01*
X105475985Y-75217725D01*
X105495345Y-74910005D01*
X105495345Y-74909994D01*
X105475985Y-74602274D01*
X105475984Y-74602264D01*
X105473281Y-74588095D01*
X105418206Y-74299381D01*
X105322922Y-74006127D01*
X105322919Y-74006120D01*
X105191637Y-73727132D01*
X105191633Y-73727126D01*
X105026422Y-73466793D01*
X105026420Y-73466791D01*
X105026416Y-73466784D01*
X104829869Y-73229201D01*
X104769357Y-73172376D01*
X104733962Y-73112134D01*
X104736756Y-73042321D01*
X104776850Y-72985100D01*
X104841515Y-72958639D01*
X104854241Y-72957984D01*
X123057387Y-72957984D01*
X123124426Y-72977669D01*
X123145068Y-72994303D01*
X124998314Y-74847549D01*
X125031799Y-74908872D01*
X125026815Y-74978564D01*
X124984943Y-75034497D01*
X124983522Y-75035545D01*
X124964807Y-75049143D01*
X124964798Y-75049150D01*
X124810142Y-75203806D01*
X124700318Y-75354969D01*
X124644989Y-75397635D01*
X124575375Y-75403614D01*
X124513580Y-75371009D01*
X124499682Y-75354969D01*
X124389857Y-75203806D01*
X124235193Y-75049142D01*
X124058260Y-74920595D01*
X124058259Y-74920594D01*
X124058257Y-74920593D01*
X123987307Y-74884442D01*
X123863383Y-74821298D01*
X123863380Y-74821297D01*
X123655376Y-74753714D01*
X123439361Y-74719500D01*
X123439356Y-74719500D01*
X123220644Y-74719500D01*
X123220639Y-74719500D01*
X123004623Y-74753714D01*
X122796619Y-74821297D01*
X122796616Y-74821298D01*
X122601739Y-74920595D01*
X122424806Y-75049142D01*
X122270142Y-75203806D01*
X122160318Y-75354969D01*
X122104989Y-75397635D01*
X122035375Y-75403614D01*
X121973580Y-75371009D01*
X121959682Y-75354969D01*
X121849857Y-75203806D01*
X121695193Y-75049142D01*
X121518260Y-74920595D01*
X121518259Y-74920594D01*
X121518257Y-74920593D01*
X121447307Y-74884442D01*
X121323383Y-74821298D01*
X121323380Y-74821297D01*
X121115376Y-74753714D01*
X120899361Y-74719500D01*
X120899356Y-74719500D01*
X120680644Y-74719500D01*
X120680639Y-74719500D01*
X120464623Y-74753714D01*
X120256619Y-74821297D01*
X120256616Y-74821298D01*
X120061739Y-74920595D01*
X119884806Y-75049142D01*
X119730142Y-75203806D01*
X119620318Y-75354969D01*
X119564989Y-75397635D01*
X119495375Y-75403614D01*
X119433580Y-75371009D01*
X119419682Y-75354969D01*
X119309857Y-75203806D01*
X119155193Y-75049142D01*
X118978260Y-74920595D01*
X118978259Y-74920594D01*
X118978257Y-74920593D01*
X118907307Y-74884442D01*
X118783383Y-74821298D01*
X118783380Y-74821297D01*
X118575376Y-74753714D01*
X118359361Y-74719500D01*
X118359356Y-74719500D01*
X118140644Y-74719500D01*
X118140639Y-74719500D01*
X117924623Y-74753714D01*
X117716619Y-74821297D01*
X117716616Y-74821298D01*
X117521739Y-74920595D01*
X117344806Y-75049142D01*
X117190142Y-75203806D01*
X117061595Y-75380739D01*
X116962298Y-75575616D01*
X116962297Y-75575619D01*
X116894714Y-75783623D01*
X116860500Y-75999638D01*
X116860500Y-77035499D01*
X116840815Y-77102538D01*
X116788011Y-77148293D01*
X116736500Y-77159499D01*
X116710943Y-77159499D01*
X116603587Y-77188265D01*
X116558210Y-77200424D01*
X116558209Y-77200425D01*
X116508096Y-77229359D01*
X116508095Y-77229360D01*
X116480708Y-77245172D01*
X116421285Y-77279479D01*
X116421282Y-77279481D01*
X116309478Y-77391286D01*
X111687582Y-82013181D01*
X111626259Y-82046666D01*
X111603130Y-82049156D01*
X111603140Y-82049341D01*
X111599981Y-82049501D01*
X111497202Y-82060001D01*
X111497200Y-82060001D01*
X111330668Y-82115185D01*
X111330663Y-82115187D01*
X111181342Y-82207289D01*
X111087681Y-82300951D01*
X111026358Y-82334436D01*
X110956666Y-82329452D01*
X110912319Y-82300951D01*
X110818657Y-82207289D01*
X110818656Y-82207288D01*
X110669334Y-82115186D01*
X110502797Y-82060001D01*
X110502795Y-82060000D01*
X110400010Y-82049500D01*
X109599998Y-82049500D01*
X109599980Y-82049501D01*
X109497203Y-82060000D01*
X109497200Y-82060001D01*
X109330668Y-82115185D01*
X109330663Y-82115187D01*
X109181342Y-82207289D01*
X109057289Y-82331342D01*
X108965187Y-82480663D01*
X108965185Y-82480668D01*
X108937405Y-82564504D01*
X108897632Y-82621949D01*
X108833116Y-82648772D01*
X108819699Y-82649500D01*
X107344057Y-82649500D01*
X107185942Y-82649500D01*
X107033215Y-82690423D01*
X107033214Y-82690423D01*
X107033212Y-82690424D01*
X107033209Y-82690425D01*
X106983096Y-82719359D01*
X106983095Y-82719360D01*
X106939689Y-82744420D01*
X106896285Y-82769479D01*
X106896282Y-82769481D01*
X106784478Y-82881286D01*
X105039840Y-84625923D01*
X104978517Y-84659408D01*
X104911898Y-84655524D01*
X104859981Y-84637702D01*
X104672404Y-84606401D01*
X104631049Y-84599500D01*
X104398951Y-84599500D01*
X104357596Y-84606401D01*
X104170015Y-84637702D01*
X103950504Y-84713061D01*
X103950495Y-84713064D01*
X103746371Y-84823531D01*
X103746365Y-84823535D01*
X103563222Y-84966081D01*
X103563215Y-84966087D01*
X103554484Y-84975572D01*
X103494595Y-85011561D01*
X103424757Y-85009458D01*
X103367143Y-84969932D01*
X103347075Y-84934918D01*
X103318355Y-84857915D01*
X103318350Y-84857906D01*
X103232190Y-84742812D01*
X103232187Y-84742809D01*
X103117093Y-84656649D01*
X103117086Y-84656645D01*
X102982379Y-84606403D01*
X102982372Y-84606401D01*
X102922844Y-84600000D01*
X102225000Y-84600000D01*
X102225000Y-85624722D01*
X102148694Y-85580667D01*
X102034244Y-85550000D01*
X101915756Y-85550000D01*
X101801306Y-85580667D01*
X101725000Y-85624722D01*
X101725000Y-84600000D01*
X101027155Y-84600000D01*
X100967627Y-84606401D01*
X100967620Y-84606403D01*
X100832913Y-84656645D01*
X100832906Y-84656649D01*
X100717812Y-84742809D01*
X100717809Y-84742812D01*
X100631649Y-84857906D01*
X100631645Y-84857913D01*
X100581403Y-84992620D01*
X100581401Y-84992627D01*
X100575000Y-85052155D01*
X100575000Y-85750000D01*
X101599722Y-85750000D01*
X101555667Y-85826306D01*
X101525000Y-85940756D01*
X101525000Y-86059244D01*
X101555667Y-86173694D01*
X101599722Y-86250000D01*
X100575000Y-86250000D01*
X100575000Y-86947844D01*
X100581401Y-87007372D01*
X100581403Y-87007379D01*
X100631645Y-87142086D01*
X100631649Y-87142093D01*
X100717809Y-87257187D01*
X100717812Y-87257190D01*
X100832906Y-87343350D01*
X100832913Y-87343354D01*
X100967620Y-87393596D01*
X100967627Y-87393598D01*
X101027155Y-87399999D01*
X101027172Y-87400000D01*
X101725000Y-87400000D01*
X101725000Y-86375277D01*
X101801306Y-86419333D01*
X101915756Y-86450000D01*
X102034244Y-86450000D01*
X102148694Y-86419333D01*
X102225000Y-86375277D01*
X102225000Y-87400000D01*
X102922828Y-87400000D01*
X102922844Y-87399999D01*
X102982372Y-87393598D01*
X102982379Y-87393596D01*
X103117086Y-87343354D01*
X103117093Y-87343350D01*
X103232187Y-87257190D01*
X103232190Y-87257187D01*
X103318350Y-87142093D01*
X103318355Y-87142084D01*
X103347075Y-87065081D01*
X103388945Y-87009147D01*
X103454409Y-86984729D01*
X103522682Y-86999580D01*
X103554484Y-87024428D01*
X103563216Y-87033913D01*
X103563219Y-87033915D01*
X103563222Y-87033918D01*
X103746365Y-87176464D01*
X103746371Y-87176468D01*
X103746374Y-87176470D01*
X103950497Y-87286936D01*
X104064487Y-87326068D01*
X104170015Y-87362297D01*
X104170017Y-87362297D01*
X104170019Y-87362298D01*
X104398951Y-87400500D01*
X104398952Y-87400500D01*
X104631048Y-87400500D01*
X104631049Y-87400500D01*
X104859981Y-87362298D01*
X105079503Y-87286936D01*
X105283626Y-87176470D01*
X105466784Y-87033913D01*
X105623979Y-86863153D01*
X105750924Y-86668849D01*
X105844157Y-86456300D01*
X105901134Y-86231305D01*
X105920300Y-86000000D01*
X105920300Y-85999993D01*
X105901135Y-85768702D01*
X105901131Y-85768682D01*
X105856680Y-85593151D01*
X105859304Y-85523331D01*
X105889202Y-85475031D01*
X107477416Y-83886819D01*
X107538739Y-83853334D01*
X107565097Y-83850500D01*
X108819699Y-83850500D01*
X108886738Y-83870185D01*
X108932493Y-83922989D01*
X108937403Y-83935492D01*
X108965186Y-84019334D01*
X109057288Y-84168656D01*
X109181344Y-84292712D01*
X109330666Y-84384814D01*
X109497203Y-84439999D01*
X109599991Y-84450500D01*
X110400008Y-84450499D01*
X110400016Y-84450498D01*
X110400019Y-84450498D01*
X110456302Y-84444748D01*
X110502797Y-84439999D01*
X110669334Y-84384814D01*
X110818656Y-84292712D01*
X110912319Y-84199049D01*
X110973642Y-84165564D01*
X111043334Y-84170548D01*
X111087681Y-84199049D01*
X111181344Y-84292712D01*
X111330666Y-84384814D01*
X111497203Y-84439999D01*
X111599991Y-84450500D01*
X112400008Y-84450499D01*
X112400016Y-84450498D01*
X112400019Y-84450498D01*
X112456302Y-84444748D01*
X112502797Y-84439999D01*
X112669334Y-84384814D01*
X112818656Y-84292712D01*
X112942712Y-84168656D01*
X113034814Y-84019334D01*
X113089999Y-83852797D01*
X113100500Y-83750009D01*
X113100499Y-82749992D01*
X113089999Y-82647203D01*
X113034814Y-82480666D01*
X113034808Y-82480656D01*
X113034544Y-82480089D01*
X113034477Y-82479652D01*
X113032542Y-82473811D01*
X113033539Y-82473480D01*
X113024045Y-82411013D01*
X113052559Y-82347226D01*
X113059227Y-82340006D01*
X116847205Y-78552028D01*
X116908526Y-78518545D01*
X116978218Y-78523529D01*
X117034151Y-78565401D01*
X117045368Y-78583415D01*
X117061593Y-78615258D01*
X117190142Y-78792193D01*
X117344806Y-78946857D01*
X117510374Y-79067147D01*
X117521743Y-79075407D01*
X117649132Y-79140315D01*
X117716616Y-79174701D01*
X117716619Y-79174702D01*
X117764666Y-79190313D01*
X117924625Y-79242286D01*
X118047038Y-79261674D01*
X118145117Y-79277209D01*
X118208252Y-79307138D01*
X118245183Y-79366450D01*
X118244185Y-79436312D01*
X118213400Y-79487363D01*
X106337584Y-91363181D01*
X106276261Y-91396666D01*
X106249903Y-91399500D01*
X93296670Y-91399500D01*
X93296654Y-91399499D01*
X93289058Y-91399499D01*
X93130943Y-91399499D01*
X93054579Y-91419961D01*
X92978214Y-91440423D01*
X92978209Y-91440426D01*
X92841290Y-91519475D01*
X92841282Y-91519481D01*
X91255794Y-93104968D01*
X91194471Y-93138453D01*
X91129795Y-93135218D01*
X90964537Y-93081523D01*
X90812897Y-93057505D01*
X90762352Y-93049500D01*
X90557648Y-93049500D01*
X90533329Y-93053351D01*
X90355465Y-93081522D01*
X90160776Y-93144781D01*
X89978386Y-93237715D01*
X89812786Y-93358028D01*
X89668028Y-93502786D01*
X89547715Y-93668386D01*
X89500485Y-93761080D01*
X89452510Y-93811876D01*
X89384689Y-93828671D01*
X89318554Y-93806134D01*
X89279515Y-93761080D01*
X89232419Y-93668650D01*
X89232287Y-93668390D01*
X89165587Y-93576584D01*
X89111971Y-93502786D01*
X88967213Y-93358028D01*
X88801613Y-93237715D01*
X88801612Y-93237714D01*
X88801610Y-93237713D01*
X88719903Y-93196081D01*
X88619223Y-93144781D01*
X88424534Y-93081522D01*
X88249995Y-93053878D01*
X88222352Y-93049500D01*
X88017648Y-93049500D01*
X87993329Y-93053351D01*
X87815465Y-93081522D01*
X87620776Y-93144781D01*
X87438386Y-93237715D01*
X87272786Y-93358028D01*
X87128028Y-93502786D01*
X87007713Y-93668388D01*
X86960203Y-93761630D01*
X86912228Y-93812426D01*
X86844407Y-93829220D01*
X86778272Y-93806682D01*
X86739234Y-93761628D01*
X86691861Y-93668652D01*
X86571582Y-93503105D01*
X86571582Y-93503104D01*
X86426895Y-93358417D01*
X86261349Y-93238140D01*
X86079029Y-93145244D01*
X85884413Y-93082009D01*
X85830000Y-93073390D01*
X85830000Y-94116988D01*
X85772993Y-94084075D01*
X85645826Y-94050000D01*
X85514174Y-94050000D01*
X85387007Y-94084075D01*
X85330000Y-94116988D01*
X85330000Y-93073390D01*
X85275586Y-93082009D01*
X85080970Y-93145244D01*
X84898650Y-93238140D01*
X84733105Y-93358417D01*
X84733104Y-93358417D01*
X84588417Y-93503104D01*
X84588417Y-93503105D01*
X84468140Y-93668650D01*
X84375244Y-93850968D01*
X84312009Y-94045582D01*
X84280000Y-94247682D01*
X84280000Y-94300000D01*
X85146988Y-94300000D01*
X85114075Y-94357007D01*
X85080000Y-94484174D01*
X85080000Y-94615826D01*
X85114075Y-94742993D01*
X85146988Y-94800000D01*
X84280000Y-94800000D01*
X84280000Y-94852317D01*
X84312009Y-95054417D01*
X84375244Y-95249031D01*
X84468140Y-95431349D01*
X84588417Y-95596894D01*
X84588417Y-95596895D01*
X84733104Y-95741582D01*
X84898650Y-95861859D01*
X85080968Y-95954754D01*
X85275578Y-96017988D01*
X85330000Y-96026607D01*
X85330000Y-94983012D01*
X85387007Y-95015925D01*
X85514174Y-95050000D01*
X85645826Y-95050000D01*
X85772993Y-95015925D01*
X85830000Y-94983012D01*
X85830000Y-96026606D01*
X85884421Y-96017988D01*
X86079031Y-95954754D01*
X86261349Y-95861859D01*
X86426894Y-95741582D01*
X86426895Y-95741582D01*
X86571582Y-95596895D01*
X86571582Y-95596894D01*
X86691861Y-95431347D01*
X86739234Y-95338371D01*
X86787208Y-95287575D01*
X86855028Y-95270779D01*
X86921164Y-95293316D01*
X86960203Y-95338369D01*
X87007713Y-95431611D01*
X87128028Y-95597213D01*
X87128034Y-95597219D01*
X87272781Y-95741966D01*
X87438390Y-95862287D01*
X87451793Y-95869116D01*
X87502589Y-95917088D01*
X87519500Y-95979601D01*
X87519500Y-104783330D01*
X87519499Y-104783348D01*
X87519499Y-104949054D01*
X87519498Y-104949054D01*
X87560423Y-105101785D01*
X87589358Y-105151900D01*
X87589359Y-105151904D01*
X87589360Y-105151904D01*
X87622653Y-105209571D01*
X87639479Y-105238714D01*
X87639481Y-105238717D01*
X87758349Y-105357585D01*
X87758355Y-105357590D01*
X104765139Y-122364374D01*
X104765149Y-122364385D01*
X104769479Y-122368715D01*
X104769480Y-122368716D01*
X104881284Y-122480520D01*
X104889383Y-122485196D01*
X104924742Y-122505610D01*
X104924741Y-122505610D01*
X104924744Y-122505611D01*
X105018209Y-122559574D01*
X105018210Y-122559574D01*
X105018215Y-122559577D01*
X105170942Y-122600500D01*
X105170943Y-122600500D01*
X124989998Y-122600500D01*
X125057037Y-122620185D01*
X125102792Y-122672989D01*
X125112736Y-122742147D01*
X125083711Y-122805703D01*
X125024933Y-122843477D01*
X124990974Y-122848496D01*
X105814008Y-122999496D01*
X105813032Y-122999500D01*
X74121472Y-122999500D01*
X74054433Y-122979815D01*
X74008678Y-122927011D01*
X73997475Y-122876338D01*
X73996621Y-122750000D01*
X73750503Y-86324444D01*
X73750500Y-86323606D01*
X73750500Y-64909994D01*
X88084529Y-64909994D01*
X88084529Y-64910005D01*
X88104379Y-65149559D01*
X88163389Y-65382589D01*
X88259951Y-65602729D01*
X88340763Y-65726419D01*
X88391429Y-65803969D01*
X88554236Y-65980825D01*
X88554239Y-65980827D01*
X88554242Y-65980830D01*
X88743924Y-66128466D01*
X88743930Y-66128470D01*
X88743933Y-66128472D01*
X88955344Y-66242882D01*
X88955347Y-66242883D01*
X89182699Y-66320933D01*
X89182701Y-66320933D01*
X89182703Y-66320934D01*
X89419808Y-66360500D01*
X89419809Y-66360500D01*
X89660191Y-66360500D01*
X89660192Y-66360500D01*
X89897297Y-66320934D01*
X90124656Y-66242882D01*
X90336067Y-66128472D01*
X90525764Y-65980825D01*
X90688571Y-65803969D01*
X90820049Y-65602728D01*
X90916610Y-65382591D01*
X90975620Y-65149563D01*
X90995471Y-64910000D01*
X90975620Y-64670437D01*
X90916610Y-64437409D01*
X90820049Y-64217272D01*
X90688571Y-64016031D01*
X90525764Y-63839175D01*
X90525759Y-63839171D01*
X90525757Y-63839169D01*
X90336075Y-63691533D01*
X90336069Y-63691529D01*
X90124657Y-63577118D01*
X90124652Y-63577116D01*
X89897300Y-63499066D01*
X89719468Y-63469391D01*
X89660192Y-63459500D01*
X89419808Y-63459500D01*
X89372387Y-63467413D01*
X89182699Y-63499066D01*
X88955347Y-63577116D01*
X88955342Y-63577118D01*
X88743930Y-63691529D01*
X88743924Y-63691533D01*
X88554242Y-63839169D01*
X88554239Y-63839172D01*
X88391430Y-64016029D01*
X88391427Y-64016033D01*
X88259951Y-64217270D01*
X88163389Y-64437410D01*
X88104379Y-64670440D01*
X88084529Y-64909994D01*
X73750500Y-64909994D01*
X73750500Y-55909995D01*
X92234451Y-55909995D01*
X92234451Y-55910004D01*
X92254616Y-56179101D01*
X92314664Y-56442188D01*
X92314666Y-56442195D01*
X92413257Y-56693398D01*
X92548185Y-56927102D01*
X92684080Y-57097509D01*
X92716442Y-57138089D01*
X92903183Y-57311358D01*
X92914259Y-57321635D01*
X93137226Y-57473651D01*
X93380359Y-57590738D01*
X93638228Y-57670280D01*
X93638229Y-57670280D01*
X93638232Y-57670281D01*
X93905063Y-57710499D01*
X93905068Y-57710499D01*
X93905071Y-57710500D01*
X93905072Y-57710500D01*
X94174928Y-57710500D01*
X94174929Y-57710500D01*
X94174936Y-57710499D01*
X94441767Y-57670281D01*
X94441768Y-57670280D01*
X94441772Y-57670280D01*
X94699641Y-57590738D01*
X94942775Y-57473651D01*
X95165741Y-57321635D01*
X95363561Y-57138085D01*
X95531815Y-56927102D01*
X95666743Y-56693398D01*
X95765334Y-56442195D01*
X95825383Y-56179103D01*
X95845549Y-55910000D01*
X95845549Y-55909995D01*
X110234451Y-55909995D01*
X110234451Y-55910004D01*
X110254616Y-56179101D01*
X110314664Y-56442188D01*
X110314666Y-56442195D01*
X110413257Y-56693398D01*
X110548185Y-56927102D01*
X110684080Y-57097509D01*
X110716442Y-57138089D01*
X110903183Y-57311358D01*
X110914259Y-57321635D01*
X111137226Y-57473651D01*
X111380359Y-57590738D01*
X111638228Y-57670280D01*
X111638229Y-57670280D01*
X111638232Y-57670281D01*
X111905063Y-57710499D01*
X111905068Y-57710499D01*
X111905071Y-57710500D01*
X111905072Y-57710500D01*
X112174928Y-57710500D01*
X112174929Y-57710500D01*
X112174936Y-57710499D01*
X112441767Y-57670281D01*
X112441768Y-57670280D01*
X112441772Y-57670280D01*
X112699641Y-57590738D01*
X112942775Y-57473651D01*
X113165741Y-57321635D01*
X113363561Y-57138085D01*
X113531815Y-56927102D01*
X113666743Y-56693398D01*
X113765334Y-56442195D01*
X113825383Y-56179103D01*
X113845549Y-55910000D01*
X113825383Y-55640897D01*
X113765334Y-55377805D01*
X113666743Y-55126602D01*
X113531815Y-54892898D01*
X113363561Y-54681915D01*
X113363560Y-54681914D01*
X113363557Y-54681910D01*
X113165741Y-54498365D01*
X112942775Y-54346349D01*
X112942769Y-54346346D01*
X112942768Y-54346345D01*
X112942767Y-54346344D01*
X112699643Y-54229263D01*
X112699645Y-54229263D01*
X112441773Y-54149720D01*
X112441767Y-54149718D01*
X112174936Y-54109500D01*
X112174929Y-54109500D01*
X111905071Y-54109500D01*
X111905063Y-54109500D01*
X111638232Y-54149718D01*
X111638226Y-54149720D01*
X111380358Y-54229262D01*
X111137230Y-54346346D01*
X110914258Y-54498365D01*
X110716442Y-54681910D01*
X110548185Y-54892898D01*
X110413258Y-55126599D01*
X110413256Y-55126603D01*
X110314666Y-55377804D01*
X110314664Y-55377811D01*
X110254616Y-55640898D01*
X110234451Y-55909995D01*
X95845549Y-55909995D01*
X95825383Y-55640897D01*
X95765334Y-55377805D01*
X95666743Y-55126602D01*
X95531815Y-54892898D01*
X95363561Y-54681915D01*
X95363560Y-54681914D01*
X95363557Y-54681910D01*
X95165741Y-54498365D01*
X94942775Y-54346349D01*
X94942769Y-54346346D01*
X94942768Y-54346345D01*
X94942767Y-54346344D01*
X94699643Y-54229263D01*
X94699645Y-54229263D01*
X94441773Y-54149720D01*
X94441767Y-54149718D01*
X94174936Y-54109500D01*
X94174929Y-54109500D01*
X93905071Y-54109500D01*
X93905063Y-54109500D01*
X93638232Y-54149718D01*
X93638226Y-54149720D01*
X93380358Y-54229262D01*
X93137230Y-54346346D01*
X92914258Y-54498365D01*
X92716442Y-54681910D01*
X92548185Y-54892898D01*
X92413258Y-55126599D01*
X92413256Y-55126603D01*
X92314666Y-55377804D01*
X92314664Y-55377811D01*
X92254616Y-55640898D01*
X92234451Y-55909995D01*
X73750500Y-55909995D01*
X73750500Y-52999998D01*
X74744390Y-52999998D01*
X74744390Y-53000001D01*
X74764804Y-53285433D01*
X74825628Y-53565037D01*
X74925635Y-53833166D01*
X75062770Y-54084309D01*
X75062775Y-54084317D01*
X75234254Y-54313387D01*
X75234270Y-54313405D01*
X75436594Y-54515729D01*
X75436612Y-54515745D01*
X75665682Y-54687224D01*
X75665690Y-54687229D01*
X75916833Y-54824364D01*
X75916832Y-54824364D01*
X75916836Y-54824365D01*
X75916839Y-54824367D01*
X76184954Y-54924369D01*
X76184960Y-54924370D01*
X76184962Y-54924371D01*
X76464566Y-54985195D01*
X76464568Y-54985195D01*
X76464572Y-54985196D01*
X76718220Y-55003337D01*
X76749999Y-55005610D01*
X76750000Y-55005610D01*
X76750001Y-55005610D01*
X76778595Y-55003564D01*
X77035428Y-54985196D01*
X77315046Y-54924369D01*
X77583161Y-54824367D01*
X77834315Y-54687226D01*
X78063395Y-54515739D01*
X78265739Y-54313395D01*
X78437226Y-54084315D01*
X78574367Y-53833161D01*
X78674369Y-53565046D01*
X78735196Y-53285428D01*
X78755610Y-53000000D01*
X78735196Y-52714572D01*
X78674369Y-52434954D01*
X78574367Y-52166839D01*
X78494025Y-52019705D01*
X78437229Y-51915690D01*
X78437224Y-51915682D01*
X78265745Y-51686612D01*
X78265729Y-51686594D01*
X78063405Y-51484270D01*
X78063387Y-51484254D01*
X77834317Y-51312775D01*
X77834309Y-51312770D01*
X77583166Y-51175635D01*
X77583167Y-51175635D01*
X77475915Y-51135632D01*
X77315046Y-51075631D01*
X77315043Y-51075630D01*
X77315037Y-51075628D01*
X77035433Y-51014804D01*
X76750001Y-50994390D01*
X76749999Y-50994390D01*
X76464566Y-51014804D01*
X76184962Y-51075628D01*
X75916833Y-51175635D01*
X75665690Y-51312770D01*
X75665682Y-51312775D01*
X75436612Y-51484254D01*
X75436594Y-51484270D01*
X75234270Y-51686594D01*
X75234254Y-51686612D01*
X75062775Y-51915682D01*
X75062770Y-51915690D01*
X74925635Y-52166833D01*
X74825628Y-52434962D01*
X74764804Y-52714566D01*
X74744390Y-52999998D01*
X73750500Y-52999998D01*
X73750500Y-49624500D01*
X73770185Y-49557461D01*
X73822989Y-49511706D01*
X73874500Y-49500500D01*
X137125500Y-49500500D01*
X137192539Y-49520185D01*
G37*
%TD.AperFunction*%
%TA.AperFunction,Conductor*%
G36*
X124686420Y-95388990D02*
G01*
X124700313Y-95405023D01*
X124737772Y-95456581D01*
X124810148Y-95556199D01*
X124964806Y-95710857D01*
X125140691Y-95838643D01*
X125141743Y-95839407D01*
X125201794Y-95870004D01*
X125252591Y-95917978D01*
X125269500Y-95980489D01*
X125269500Y-101033330D01*
X125269499Y-101033348D01*
X125269499Y-101199054D01*
X125269498Y-101199054D01*
X125310423Y-101351785D01*
X125339358Y-101401900D01*
X125339359Y-101401904D01*
X125339360Y-101401904D01*
X125389479Y-101488714D01*
X125389481Y-101488717D01*
X125508349Y-101607585D01*
X125508355Y-101607590D01*
X126838583Y-102937819D01*
X126872068Y-102999142D01*
X126867084Y-103068834D01*
X126825212Y-103124767D01*
X126759748Y-103149184D01*
X126750902Y-103149500D01*
X123456116Y-103149500D01*
X123389077Y-103129815D01*
X123343322Y-103077011D01*
X123342560Y-103075311D01*
X123324172Y-103033391D01*
X123188166Y-102825217D01*
X123117759Y-102748735D01*
X123019744Y-102642262D01*
X122823509Y-102489526D01*
X122823507Y-102489525D01*
X122823506Y-102489524D01*
X122604811Y-102371172D01*
X122604802Y-102371169D01*
X122369616Y-102290429D01*
X122124335Y-102249500D01*
X121875665Y-102249500D01*
X121630383Y-102290429D01*
X121395197Y-102371169D01*
X121395188Y-102371172D01*
X121176493Y-102489524D01*
X120980257Y-102642261D01*
X120811833Y-102825217D01*
X120675826Y-103033393D01*
X120575936Y-103261118D01*
X120514892Y-103502175D01*
X120514890Y-103502187D01*
X120494357Y-103749994D01*
X120494357Y-103750005D01*
X120514890Y-103997812D01*
X120514892Y-103997824D01*
X120575936Y-104238881D01*
X120675826Y-104466606D01*
X120811833Y-104674782D01*
X120811836Y-104674785D01*
X120980256Y-104857738D01*
X121176491Y-105010474D01*
X121395190Y-105128828D01*
X121630386Y-105209571D01*
X121875665Y-105250500D01*
X122124335Y-105250500D01*
X122369614Y-105209571D01*
X122604810Y-105128828D01*
X122823509Y-105010474D01*
X123019744Y-104857738D01*
X123188164Y-104674785D01*
X123324173Y-104466607D01*
X123342560Y-104424689D01*
X123387517Y-104371204D01*
X123454253Y-104350514D01*
X123456116Y-104350500D01*
X127043884Y-104350500D01*
X127110923Y-104370185D01*
X127156678Y-104422989D01*
X127157440Y-104424689D01*
X127175827Y-104466608D01*
X127311833Y-104674782D01*
X127311836Y-104674785D01*
X127480256Y-104857738D01*
X127676491Y-105010474D01*
X127895190Y-105128828D01*
X128130386Y-105209571D01*
X128375665Y-105250500D01*
X128624335Y-105250500D01*
X128869608Y-105209572D01*
X128869607Y-105209572D01*
X128869614Y-105209571D01*
X128975607Y-105173182D01*
X129045402Y-105170033D01*
X129103548Y-105202783D01*
X129265139Y-105364374D01*
X129265149Y-105364385D01*
X129269479Y-105368715D01*
X129269480Y-105368716D01*
X129381284Y-105480520D01*
X129419870Y-105502797D01*
X129468095Y-105530639D01*
X129468097Y-105530641D01*
X129506151Y-105552611D01*
X129518215Y-105559577D01*
X129670943Y-105600501D01*
X129670946Y-105600501D01*
X129836653Y-105600501D01*
X129836669Y-105600500D01*
X131254092Y-105600500D01*
X131321131Y-105620185D01*
X131359636Y-105664271D01*
X131361395Y-105663187D01*
X131365185Y-105669331D01*
X131365186Y-105669334D01*
X131457288Y-105818656D01*
X131581344Y-105942712D01*
X131730666Y-106034814D01*
X131897203Y-106089999D01*
X131999991Y-106100500D01*
X133000008Y-106100499D01*
X133000016Y-106100498D01*
X133000019Y-106100498D01*
X133056302Y-106094748D01*
X133102797Y-106089999D01*
X133269334Y-106034814D01*
X133418656Y-105942712D01*
X133542712Y-105818656D01*
X133634814Y-105669334D01*
X133689999Y-105502797D01*
X133700500Y-105400009D01*
X133700499Y-104599992D01*
X133697425Y-104569903D01*
X133689999Y-104497203D01*
X133689998Y-104497200D01*
X133651100Y-104379815D01*
X133634814Y-104330666D01*
X133542712Y-104181344D01*
X133449049Y-104087681D01*
X133415564Y-104026358D01*
X133420548Y-103956666D01*
X133449049Y-103912319D01*
X133480084Y-103881284D01*
X133542712Y-103818656D01*
X133634814Y-103669334D01*
X133634815Y-103669331D01*
X133638605Y-103663187D01*
X133640399Y-103664293D01*
X133679687Y-103619663D01*
X133745908Y-103600500D01*
X133949903Y-103600500D01*
X134016942Y-103620185D01*
X134037584Y-103636819D01*
X134863181Y-104462416D01*
X134896666Y-104523739D01*
X134899500Y-104550097D01*
X134899500Y-107699903D01*
X134879815Y-107766942D01*
X134863181Y-107787584D01*
X132037584Y-110613181D01*
X131976261Y-110646666D01*
X131949903Y-110649500D01*
X109050098Y-110649500D01*
X108983059Y-110629815D01*
X108962417Y-110613181D01*
X107736818Y-109387582D01*
X107703333Y-109326259D01*
X107700499Y-109299901D01*
X107700499Y-108599998D01*
X107700498Y-108599981D01*
X107689999Y-108497203D01*
X107689998Y-108497200D01*
X107634814Y-108330666D01*
X107585055Y-108249994D01*
X108994859Y-108249994D01*
X108994859Y-108250005D01*
X109015385Y-108497729D01*
X109015387Y-108497738D01*
X109076412Y-108738717D01*
X109176267Y-108966367D01*
X109276562Y-109119881D01*
X109976212Y-108420233D01*
X109987482Y-108462292D01*
X110059890Y-108587708D01*
X110162292Y-108690110D01*
X110287708Y-108762518D01*
X110329766Y-108773787D01*
X109629943Y-109473609D01*
X109676768Y-109510055D01*
X109676771Y-109510057D01*
X109895385Y-109628364D01*
X109895396Y-109628369D01*
X110130506Y-109709083D01*
X110375707Y-109750000D01*
X110624293Y-109750000D01*
X110869493Y-109709083D01*
X111104603Y-109628369D01*
X111104614Y-109628364D01*
X111323230Y-109510056D01*
X111323236Y-109510051D01*
X111370055Y-109473610D01*
X111370056Y-109473609D01*
X110670233Y-108773787D01*
X110712292Y-108762518D01*
X110837708Y-108690110D01*
X110940110Y-108587708D01*
X111012518Y-108462292D01*
X111023787Y-108420233D01*
X111723435Y-109119882D01*
X111823733Y-108966364D01*
X111923587Y-108738717D01*
X111984612Y-108497738D01*
X111984614Y-108497729D01*
X112005141Y-108250005D01*
X112005141Y-108249994D01*
X115494859Y-108249994D01*
X115494859Y-108250005D01*
X115515385Y-108497729D01*
X115515387Y-108497738D01*
X115576412Y-108738717D01*
X115676267Y-108966367D01*
X115776562Y-109119881D01*
X116476212Y-108420233D01*
X116487482Y-108462292D01*
X116559890Y-108587708D01*
X116662292Y-108690110D01*
X116787708Y-108762518D01*
X116829766Y-108773787D01*
X116129943Y-109473609D01*
X116176768Y-109510055D01*
X116176771Y-109510057D01*
X116395385Y-109628364D01*
X116395396Y-109628369D01*
X116630506Y-109709083D01*
X116875707Y-109750000D01*
X117124293Y-109750000D01*
X117369493Y-109709083D01*
X117604603Y-109628369D01*
X117604614Y-109628364D01*
X117823230Y-109510056D01*
X117823236Y-109510051D01*
X117870055Y-109473610D01*
X117870056Y-109473609D01*
X117170233Y-108773787D01*
X117212292Y-108762518D01*
X117337708Y-108690110D01*
X117440110Y-108587708D01*
X117512518Y-108462292D01*
X117523787Y-108420234D01*
X118223435Y-109119882D01*
X118323733Y-108966364D01*
X118423587Y-108738717D01*
X118484612Y-108497738D01*
X118484614Y-108497729D01*
X118505141Y-108250005D01*
X118505141Y-108249994D01*
X120494859Y-108249994D01*
X120494859Y-108250005D01*
X120515385Y-108497729D01*
X120515387Y-108497738D01*
X120576412Y-108738717D01*
X120676267Y-108966367D01*
X120776562Y-109119881D01*
X121476212Y-108420233D01*
X121487482Y-108462292D01*
X121559890Y-108587708D01*
X121662292Y-108690110D01*
X121787708Y-108762518D01*
X121829766Y-108773787D01*
X121129943Y-109473609D01*
X121176768Y-109510055D01*
X121176771Y-109510057D01*
X121395385Y-109628364D01*
X121395396Y-109628369D01*
X121630506Y-109709083D01*
X121875707Y-109750000D01*
X122124293Y-109750000D01*
X122369493Y-109709083D01*
X122604603Y-109628369D01*
X122604614Y-109628364D01*
X122823230Y-109510056D01*
X122823236Y-109510051D01*
X122870055Y-109473610D01*
X122870056Y-109473609D01*
X122170233Y-108773787D01*
X122212292Y-108762518D01*
X122337708Y-108690110D01*
X122440110Y-108587708D01*
X122512518Y-108462292D01*
X122523787Y-108420234D01*
X123223435Y-109119882D01*
X123323733Y-108966364D01*
X123423587Y-108738717D01*
X123484612Y-108497738D01*
X123484614Y-108497729D01*
X123505141Y-108250005D01*
X123505141Y-108249994D01*
X126994859Y-108249994D01*
X126994859Y-108250005D01*
X127015385Y-108497729D01*
X127015387Y-108497738D01*
X127076412Y-108738717D01*
X127176267Y-108966367D01*
X127276562Y-109119881D01*
X127976212Y-108420233D01*
X127987482Y-108462292D01*
X128059890Y-108587708D01*
X128162292Y-108690110D01*
X128287708Y-108762518D01*
X128329766Y-108773787D01*
X127629943Y-109473609D01*
X127676768Y-109510055D01*
X127676771Y-109510057D01*
X127895385Y-109628364D01*
X127895396Y-109628369D01*
X128130506Y-109709083D01*
X128375707Y-109750000D01*
X128624293Y-109750000D01*
X128869493Y-109709083D01*
X129104603Y-109628369D01*
X129104614Y-109628364D01*
X129323230Y-109510056D01*
X129323236Y-109510051D01*
X129370055Y-109473610D01*
X129370056Y-109473609D01*
X128670233Y-108773787D01*
X128712292Y-108762518D01*
X128837708Y-108690110D01*
X128940110Y-108587708D01*
X129012518Y-108462292D01*
X129023787Y-108420234D01*
X129723435Y-109119882D01*
X129823733Y-108966364D01*
X129923587Y-108738717D01*
X129984612Y-108497738D01*
X129984614Y-108497729D01*
X130005141Y-108250005D01*
X130005141Y-108249994D01*
X129984614Y-108002270D01*
X129984612Y-108002261D01*
X129923587Y-107761282D01*
X129823732Y-107533632D01*
X129723435Y-107380116D01*
X129023787Y-108079765D01*
X129012518Y-108037708D01*
X128940110Y-107912292D01*
X128837708Y-107809890D01*
X128712292Y-107737482D01*
X128670233Y-107726212D01*
X129370055Y-107026389D01*
X129370055Y-107026388D01*
X129323236Y-106989947D01*
X129323231Y-106989944D01*
X129104614Y-106871635D01*
X129104603Y-106871630D01*
X128869493Y-106790916D01*
X128624293Y-106750000D01*
X128375707Y-106750000D01*
X128130506Y-106790916D01*
X127895396Y-106871630D01*
X127895385Y-106871635D01*
X127676770Y-106989943D01*
X127629943Y-107026389D01*
X128329766Y-107726212D01*
X128287708Y-107737482D01*
X128162292Y-107809890D01*
X128059890Y-107912292D01*
X127987482Y-108037708D01*
X127976212Y-108079766D01*
X127276563Y-107380117D01*
X127176267Y-107533633D01*
X127176265Y-107533637D01*
X127076412Y-107761282D01*
X127015387Y-108002261D01*
X127015385Y-108002270D01*
X126994859Y-108249994D01*
X123505141Y-108249994D01*
X123484614Y-108002270D01*
X123484612Y-108002261D01*
X123423587Y-107761282D01*
X123323732Y-107533632D01*
X123223435Y-107380116D01*
X122523787Y-108079765D01*
X122512518Y-108037708D01*
X122440110Y-107912292D01*
X122337708Y-107809890D01*
X122212292Y-107737482D01*
X122170233Y-107726212D01*
X122870055Y-107026389D01*
X122870055Y-107026388D01*
X122823236Y-106989947D01*
X122823231Y-106989944D01*
X122604614Y-106871635D01*
X122604603Y-106871630D01*
X122369493Y-106790916D01*
X122124293Y-106750000D01*
X121875707Y-106750000D01*
X121630506Y-106790916D01*
X121395396Y-106871630D01*
X121395385Y-106871635D01*
X121176770Y-106989943D01*
X121129943Y-107026389D01*
X121829766Y-107726212D01*
X121787708Y-107737482D01*
X121662292Y-107809890D01*
X121559890Y-107912292D01*
X121487482Y-108037708D01*
X121476212Y-108079765D01*
X120776563Y-107380117D01*
X120676267Y-107533633D01*
X120676265Y-107533637D01*
X120576412Y-107761282D01*
X120515387Y-108002261D01*
X120515385Y-108002270D01*
X120494859Y-108249994D01*
X118505141Y-108249994D01*
X118484614Y-108002270D01*
X118484612Y-108002261D01*
X118423587Y-107761282D01*
X118323732Y-107533632D01*
X118223435Y-107380116D01*
X117523787Y-108079765D01*
X117512518Y-108037708D01*
X117440110Y-107912292D01*
X117337708Y-107809890D01*
X117212292Y-107737482D01*
X117170233Y-107726212D01*
X117870055Y-107026389D01*
X117870055Y-107026388D01*
X117823236Y-106989947D01*
X117823231Y-106989944D01*
X117604614Y-106871635D01*
X117604603Y-106871630D01*
X117369493Y-106790916D01*
X117124293Y-106750000D01*
X116875707Y-106750000D01*
X116630506Y-106790916D01*
X116395396Y-106871630D01*
X116395385Y-106871635D01*
X116176770Y-106989943D01*
X116129943Y-107026389D01*
X116829766Y-107726212D01*
X116787708Y-107737482D01*
X116662292Y-107809890D01*
X116559890Y-107912292D01*
X116487482Y-108037708D01*
X116476212Y-108079766D01*
X115776563Y-107380117D01*
X115676267Y-107533633D01*
X115676265Y-107533637D01*
X115576412Y-107761282D01*
X115515387Y-108002261D01*
X115515385Y-108002270D01*
X115494859Y-108249994D01*
X112005141Y-108249994D01*
X111984614Y-108002270D01*
X111984612Y-108002261D01*
X111923587Y-107761282D01*
X111823732Y-107533632D01*
X111723435Y-107380116D01*
X111023787Y-108079765D01*
X111012518Y-108037708D01*
X110940110Y-107912292D01*
X110837708Y-107809890D01*
X110712292Y-107737482D01*
X110670233Y-107726212D01*
X111370055Y-107026389D01*
X111370055Y-107026388D01*
X111323236Y-106989947D01*
X111323231Y-106989944D01*
X111104614Y-106871635D01*
X111104603Y-106871630D01*
X110869493Y-106790916D01*
X110624293Y-106750000D01*
X110375707Y-106750000D01*
X110130506Y-106790916D01*
X109895396Y-106871630D01*
X109895385Y-106871635D01*
X109676770Y-106989943D01*
X109629943Y-107026389D01*
X110329766Y-107726212D01*
X110287708Y-107737482D01*
X110162292Y-107809890D01*
X110059890Y-107912292D01*
X109987482Y-108037708D01*
X109976212Y-108079766D01*
X109276563Y-107380117D01*
X109176267Y-107533633D01*
X109176265Y-107533637D01*
X109076412Y-107761282D01*
X109015387Y-108002261D01*
X109015385Y-108002270D01*
X108994859Y-108249994D01*
X107585055Y-108249994D01*
X107542712Y-108181344D01*
X107449049Y-108087681D01*
X107415564Y-108026358D01*
X107420548Y-107956666D01*
X107449049Y-107912319D01*
X107492659Y-107868709D01*
X107542712Y-107818656D01*
X107634814Y-107669334D01*
X107689999Y-107502797D01*
X107696161Y-107442475D01*
X107722556Y-107377785D01*
X107731843Y-107367392D01*
X107740723Y-107358512D01*
X107740727Y-107358507D01*
X109896452Y-105202781D01*
X109957773Y-105169298D01*
X110024392Y-105173182D01*
X110096350Y-105197886D01*
X110130385Y-105209571D01*
X110375665Y-105250500D01*
X110624335Y-105250500D01*
X110869614Y-105209571D01*
X111104810Y-105128828D01*
X111323509Y-105010474D01*
X111519744Y-104857738D01*
X111688164Y-104674785D01*
X111824173Y-104466607D01*
X111842560Y-104424689D01*
X111887517Y-104371204D01*
X111954253Y-104350514D01*
X111956116Y-104350500D01*
X115543884Y-104350500D01*
X115610923Y-104370185D01*
X115656678Y-104422989D01*
X115657440Y-104424689D01*
X115675827Y-104466608D01*
X115811833Y-104674782D01*
X115811836Y-104674785D01*
X115980256Y-104857738D01*
X116176491Y-105010474D01*
X116395190Y-105128828D01*
X116630386Y-105209571D01*
X116875665Y-105250500D01*
X117124335Y-105250500D01*
X117369614Y-105209571D01*
X117604810Y-105128828D01*
X117823509Y-105010474D01*
X118019744Y-104857738D01*
X118188164Y-104674785D01*
X118324173Y-104466607D01*
X118424063Y-104238881D01*
X118485108Y-103997821D01*
X118488518Y-103956666D01*
X118505643Y-103750005D01*
X118505643Y-103749994D01*
X118485109Y-103502187D01*
X118485108Y-103502183D01*
X118485108Y-103502179D01*
X118459237Y-103400019D01*
X118423992Y-103260839D01*
X118426616Y-103191018D01*
X118456514Y-103142719D01*
X123688506Y-97910728D01*
X123688511Y-97910724D01*
X123698714Y-97900520D01*
X123698716Y-97900520D01*
X123810520Y-97788716D01*
X123871966Y-97682288D01*
X123889577Y-97651785D01*
X123930501Y-97499057D01*
X123930501Y-97340943D01*
X123930501Y-97333348D01*
X123930500Y-97333330D01*
X123930500Y-95980489D01*
X123950185Y-95913450D01*
X123998205Y-95870004D01*
X124058257Y-95839407D01*
X124192374Y-95741966D01*
X124235193Y-95710857D01*
X124235195Y-95710854D01*
X124235199Y-95710852D01*
X124389852Y-95556199D01*
X124499683Y-95405028D01*
X124555011Y-95362364D01*
X124624624Y-95356385D01*
X124686420Y-95388990D01*
G37*
%TD.AperFunction*%
%TD*%
%TA.AperFunction,NonConductor*%
G36*
X124266942Y-71620185D02*
G01*
X124287584Y-71636819D01*
X127515181Y-74864416D01*
X127548666Y-74925739D01*
X127543682Y-74995431D01*
X127508047Y-75046374D01*
X127504806Y-75049142D01*
X127350142Y-75203806D01*
X127240318Y-75354969D01*
X127184989Y-75397635D01*
X127115375Y-75403614D01*
X127053580Y-75371009D01*
X127039682Y-75354969D01*
X126929857Y-75203806D01*
X126775193Y-75049142D01*
X126598260Y-74920595D01*
X126598259Y-74920594D01*
X126598257Y-74920593D01*
X126537737Y-74889756D01*
X126486942Y-74841782D01*
X126471093Y-74795451D01*
X126470499Y-74790939D01*
X126467317Y-74779061D01*
X126440295Y-74678215D01*
X126429577Y-74638215D01*
X126400639Y-74588095D01*
X126350520Y-74501284D01*
X126238716Y-74389480D01*
X126238715Y-74389479D01*
X126234385Y-74385149D01*
X126234374Y-74385139D01*
X123845074Y-71995839D01*
X123845072Y-71995836D01*
X123726201Y-71876965D01*
X123726193Y-71876959D01*
X123648125Y-71831887D01*
X123599909Y-71781321D01*
X123586685Y-71712714D01*
X123612653Y-71647849D01*
X123669567Y-71607320D01*
X123710124Y-71600500D01*
X124199903Y-71600500D01*
X124266942Y-71620185D01*
G37*
%TD.AperFunction*%
%TA.AperFunction,NonConductor*%
G36*
X120304665Y-79190312D02*
G01*
X120397768Y-79220563D01*
X120464624Y-79242286D01*
X120685116Y-79277209D01*
X120748251Y-79307138D01*
X120785182Y-79366450D01*
X120784184Y-79436312D01*
X120753399Y-79487363D01*
X106327584Y-93913181D01*
X106266261Y-93946666D01*
X106239903Y-93949500D01*
X94527387Y-93949500D01*
X94460348Y-93929815D01*
X94414593Y-93877011D01*
X94409457Y-93863820D01*
X94405220Y-93850780D01*
X94312419Y-93668650D01*
X94312287Y-93668390D01*
X94245587Y-93576584D01*
X94191971Y-93502786D01*
X94047213Y-93358028D01*
X93881613Y-93237715D01*
X93881612Y-93237714D01*
X93881610Y-93237713D01*
X93799903Y-93196081D01*
X93699223Y-93144781D01*
X93504534Y-93081522D01*
X93302342Y-93049498D01*
X93299214Y-93049252D01*
X93298097Y-93048826D01*
X93297540Y-93048738D01*
X93297558Y-93048620D01*
X93233929Y-93024360D01*
X93192466Y-92968123D01*
X93187989Y-92898397D01*
X93221275Y-92837959D01*
X93422419Y-92636816D01*
X93483741Y-92603334D01*
X93510098Y-92600500D01*
X106463331Y-92600500D01*
X106463347Y-92600501D01*
X106470943Y-92600501D01*
X106629054Y-92600501D01*
X106629057Y-92600501D01*
X106781785Y-92559577D01*
X106851233Y-92519481D01*
X106918716Y-92480520D01*
X107030520Y-92368716D01*
X107030520Y-92368714D01*
X107040724Y-92358511D01*
X107040728Y-92358506D01*
X120178672Y-79220561D01*
X120239993Y-79187078D01*
X120304665Y-79190312D01*
G37*
%TD.AperFunction*%
%TA.AperFunction,NonConductor*%
G36*
X127226420Y-95388990D02*
G01*
X127240313Y-95405023D01*
X127277772Y-95456581D01*
X127350148Y-95556199D01*
X127504806Y-95710857D01*
X127681741Y-95839406D01*
X127681743Y-95839407D01*
X127741793Y-95870004D01*
X127756794Y-95877647D01*
X127807590Y-95925621D01*
X127824500Y-95988132D01*
X127824500Y-97486232D01*
X127804815Y-97553271D01*
X127765598Y-97591769D01*
X127669923Y-97650781D01*
X127618842Y-97682289D01*
X127494789Y-97806342D01*
X127402687Y-97955663D01*
X127402685Y-97955668D01*
X127402615Y-97955880D01*
X127347501Y-98122203D01*
X127347501Y-98122204D01*
X127347500Y-98122204D01*
X127337000Y-98224983D01*
X127337000Y-99275001D01*
X127337001Y-99275019D01*
X127347500Y-99377796D01*
X127347501Y-99377799D01*
X127402615Y-99544119D01*
X127402686Y-99544334D01*
X127494788Y-99693656D01*
X127618844Y-99817712D01*
X127768166Y-99909814D01*
X127934703Y-99964999D01*
X128037491Y-99975500D01*
X128574902Y-99975499D01*
X128641941Y-99995183D01*
X128662583Y-100011818D01*
X131263181Y-102612416D01*
X131296666Y-102673739D01*
X131299500Y-102700097D01*
X131299500Y-103400001D01*
X131299501Y-103400019D01*
X131310000Y-103502796D01*
X131310001Y-103502799D01*
X131365185Y-103669331D01*
X131365187Y-103669336D01*
X131457289Y-103818657D01*
X131550951Y-103912319D01*
X131584436Y-103973642D01*
X131579452Y-104043334D01*
X131550951Y-104087681D01*
X131457289Y-104181342D01*
X131457288Y-104181344D01*
X131366179Y-104329057D01*
X131361395Y-104336813D01*
X131359600Y-104335706D01*
X131320313Y-104380337D01*
X131254092Y-104399500D01*
X130050097Y-104399500D01*
X129983058Y-104379815D01*
X129962416Y-104363181D01*
X129956516Y-104357281D01*
X129923031Y-104295958D01*
X129923992Y-104239159D01*
X129924061Y-104238884D01*
X129924063Y-104238881D01*
X129985108Y-103997821D01*
X129988518Y-103956666D01*
X130005643Y-103750005D01*
X130005643Y-103749994D01*
X129985109Y-103502187D01*
X129985107Y-103502175D01*
X129924063Y-103261118D01*
X129824173Y-103033393D01*
X129688166Y-102825217D01*
X129617759Y-102748735D01*
X129519744Y-102642262D01*
X129323509Y-102489526D01*
X129323507Y-102489525D01*
X129323506Y-102489524D01*
X129104811Y-102371172D01*
X129104802Y-102371169D01*
X128869616Y-102290429D01*
X128624335Y-102249500D01*
X128375665Y-102249500D01*
X128130386Y-102290428D01*
X128024392Y-102326815D01*
X127954593Y-102329964D01*
X127896450Y-102297214D01*
X126506819Y-100907583D01*
X126473334Y-100846260D01*
X126470500Y-100819902D01*
X126470500Y-95980489D01*
X126490185Y-95913450D01*
X126538205Y-95870004D01*
X126598257Y-95839407D01*
X126732374Y-95741966D01*
X126775193Y-95710857D01*
X126775195Y-95710854D01*
X126775199Y-95710852D01*
X126929852Y-95556199D01*
X127039683Y-95405028D01*
X127095011Y-95362364D01*
X127164624Y-95356385D01*
X127226420Y-95388990D01*
G37*
%TD.AperFunction*%
%TA.AperFunction,NonConductor*%
G36*
X122146420Y-95388990D02*
G01*
X122160313Y-95405023D01*
X122197772Y-95456581D01*
X122270148Y-95556199D01*
X122424806Y-95710857D01*
X122600691Y-95838643D01*
X122601743Y-95839407D01*
X122661794Y-95870004D01*
X122712591Y-95917978D01*
X122729500Y-95980489D01*
X122729500Y-97119902D01*
X122709815Y-97186941D01*
X122693181Y-97207583D01*
X117603548Y-102297215D01*
X117542225Y-102330700D01*
X117475604Y-102326815D01*
X117369616Y-102290429D01*
X117124335Y-102249500D01*
X116875665Y-102249500D01*
X116630383Y-102290429D01*
X116395197Y-102371169D01*
X116395188Y-102371172D01*
X116176493Y-102489524D01*
X115980257Y-102642261D01*
X115811833Y-102825217D01*
X115675827Y-103033391D01*
X115657440Y-103075311D01*
X115612483Y-103128796D01*
X115545747Y-103149486D01*
X115543884Y-103149500D01*
X111956116Y-103149500D01*
X111889077Y-103129815D01*
X111843322Y-103077011D01*
X111842560Y-103075311D01*
X111824172Y-103033391D01*
X111688166Y-102825217D01*
X111617759Y-102748735D01*
X111519744Y-102642262D01*
X111323509Y-102489526D01*
X111323507Y-102489525D01*
X111323506Y-102489524D01*
X111104811Y-102371172D01*
X111104802Y-102371169D01*
X110869616Y-102290429D01*
X110624335Y-102249500D01*
X110375665Y-102249500D01*
X110130383Y-102290429D01*
X109895197Y-102371169D01*
X109895188Y-102371172D01*
X109676493Y-102489524D01*
X109480257Y-102642261D01*
X109311833Y-102825217D01*
X109175826Y-103033393D01*
X109075936Y-103261118D01*
X109014892Y-103502175D01*
X109014890Y-103502187D01*
X108994357Y-103749994D01*
X108994357Y-103750005D01*
X109014890Y-103997812D01*
X109014892Y-103997824D01*
X109076007Y-104239160D01*
X109073382Y-104308980D01*
X109043482Y-104357281D01*
X107441485Y-105959278D01*
X107380162Y-105992763D01*
X107310470Y-105987779D01*
X107288707Y-105977135D01*
X107269342Y-105965190D01*
X107269336Y-105965187D01*
X107269334Y-105965186D01*
X107102797Y-105910001D01*
X107102795Y-105910000D01*
X107000010Y-105899500D01*
X105999998Y-105899500D01*
X105999980Y-105899501D01*
X105897203Y-105910000D01*
X105897200Y-105910001D01*
X105730668Y-105965185D01*
X105730663Y-105965187D01*
X105581342Y-106057289D01*
X105457289Y-106181342D01*
X105365187Y-106330663D01*
X105365186Y-106330666D01*
X105310001Y-106497203D01*
X105310001Y-106497204D01*
X105310000Y-106497204D01*
X105299500Y-106599983D01*
X105299500Y-107050069D01*
X105279815Y-107117108D01*
X105273875Y-107125557D01*
X105269475Y-107131290D01*
X105190426Y-107268209D01*
X105190423Y-107268216D01*
X105149500Y-107420943D01*
X105149500Y-107579056D01*
X105190423Y-107731783D01*
X105190426Y-107731790D01*
X105269475Y-107868709D01*
X105269479Y-107868714D01*
X105269480Y-107868716D01*
X105381284Y-107980520D01*
X105381286Y-107980521D01*
X105381290Y-107980524D01*
X105418224Y-108001848D01*
X105466440Y-108052414D01*
X105479664Y-108121021D01*
X105458589Y-108173661D01*
X105461080Y-108175198D01*
X105457290Y-108181341D01*
X105457288Y-108181344D01*
X105414945Y-108249994D01*
X105365187Y-108330663D01*
X105365186Y-108330666D01*
X105310001Y-108497203D01*
X105310001Y-108497204D01*
X105310000Y-108497204D01*
X105299500Y-108599983D01*
X105299500Y-109400001D01*
X105299501Y-109400019D01*
X105310000Y-109502796D01*
X105310001Y-109502799D01*
X105362562Y-109661415D01*
X105365186Y-109669334D01*
X105457288Y-109818656D01*
X105581344Y-109942712D01*
X105730666Y-110034814D01*
X105897203Y-110089999D01*
X105999991Y-110100500D01*
X106699901Y-110100499D01*
X106766940Y-110120183D01*
X106787582Y-110136818D01*
X108381284Y-111730520D01*
X108381286Y-111730521D01*
X108381290Y-111730524D01*
X108518209Y-111809573D01*
X108518216Y-111809577D01*
X108670943Y-111850501D01*
X108670945Y-111850501D01*
X108836654Y-111850501D01*
X108836670Y-111850500D01*
X130500902Y-111850500D01*
X130567941Y-111870185D01*
X130613696Y-111922989D01*
X130623640Y-111992147D01*
X130594615Y-112055703D01*
X130588583Y-112062181D01*
X129343747Y-113307017D01*
X129282424Y-113340502D01*
X129212732Y-113335518D01*
X129168385Y-113307017D01*
X129068657Y-113207289D01*
X129068656Y-113207288D01*
X128919334Y-113115186D01*
X128752797Y-113060001D01*
X128752795Y-113060000D01*
X128650010Y-113049500D01*
X127849998Y-113049500D01*
X127849980Y-113049501D01*
X127747203Y-113060000D01*
X127747200Y-113060001D01*
X127580668Y-113115185D01*
X127580663Y-113115187D01*
X127431342Y-113207289D01*
X127337681Y-113300951D01*
X127276358Y-113334436D01*
X127206666Y-113329452D01*
X127162319Y-113300951D01*
X127068657Y-113207289D01*
X127068656Y-113207288D01*
X126919334Y-113115186D01*
X126752797Y-113060001D01*
X126752795Y-113060000D01*
X126650010Y-113049500D01*
X125849998Y-113049500D01*
X125849980Y-113049501D01*
X125747203Y-113060000D01*
X125747200Y-113060001D01*
X125580668Y-113115185D01*
X125580663Y-113115187D01*
X125431342Y-113207289D01*
X125307289Y-113331342D01*
X125215187Y-113480663D01*
X125215185Y-113480668D01*
X125187405Y-113564504D01*
X125147632Y-113621949D01*
X125083116Y-113648772D01*
X125069699Y-113649500D01*
X124053802Y-113649500D01*
X123986763Y-113629815D01*
X123949995Y-113593324D01*
X123938164Y-113575215D01*
X123769744Y-113392262D01*
X123573509Y-113239526D01*
X123573507Y-113239525D01*
X123573506Y-113239524D01*
X123354811Y-113121172D01*
X123354802Y-113121169D01*
X123119616Y-113040429D01*
X122874335Y-112999500D01*
X122625665Y-112999500D01*
X122380383Y-113040429D01*
X122145197Y-113121169D01*
X122145188Y-113121172D01*
X121926493Y-113239524D01*
X121730257Y-113392261D01*
X121561833Y-113575217D01*
X121425827Y-113783391D01*
X121407440Y-113825311D01*
X121362483Y-113878796D01*
X121295747Y-113899486D01*
X121293884Y-113899500D01*
X117706116Y-113899500D01*
X117639077Y-113879815D01*
X117593322Y-113827011D01*
X117592560Y-113825311D01*
X117574172Y-113783391D01*
X117438166Y-113575217D01*
X117351127Y-113480668D01*
X117269744Y-113392262D01*
X117073509Y-113239526D01*
X117073507Y-113239525D01*
X117073506Y-113239524D01*
X116854811Y-113121172D01*
X116854802Y-113121169D01*
X116619616Y-113040429D01*
X116374335Y-112999500D01*
X116125665Y-112999500D01*
X115880383Y-113040429D01*
X115645197Y-113121169D01*
X115645188Y-113121172D01*
X115426493Y-113239524D01*
X115230257Y-113392261D01*
X115061833Y-113575217D01*
X114925827Y-113783391D01*
X114907440Y-113825311D01*
X114862483Y-113878796D01*
X114795747Y-113899486D01*
X114793884Y-113899500D01*
X108300098Y-113899500D01*
X108233059Y-113879815D01*
X108212417Y-113863181D01*
X104386819Y-110037583D01*
X104353334Y-109976260D01*
X104350500Y-109949902D01*
X104350500Y-102800097D01*
X104370185Y-102733058D01*
X104386819Y-102712416D01*
X107212416Y-99886819D01*
X107273739Y-99853334D01*
X107300097Y-99850500D01*
X116163331Y-99850500D01*
X116163347Y-99850501D01*
X116170943Y-99850501D01*
X116329054Y-99850501D01*
X116329057Y-99850501D01*
X116481785Y-99809577D01*
X116531904Y-99780639D01*
X116618716Y-99730520D01*
X116730520Y-99618716D01*
X116730520Y-99618714D01*
X116740728Y-99608507D01*
X116740729Y-99608504D01*
X120319059Y-96030175D01*
X120380380Y-95996692D01*
X120445056Y-95999927D01*
X120464625Y-96006286D01*
X120500628Y-96011988D01*
X120680639Y-96040500D01*
X120680644Y-96040500D01*
X120899361Y-96040500D01*
X121004082Y-96023912D01*
X121115375Y-96006286D01*
X121323383Y-95938701D01*
X121518257Y-95839407D01*
X121652374Y-95741966D01*
X121695193Y-95710857D01*
X121695195Y-95710854D01*
X121695199Y-95710852D01*
X121849852Y-95556199D01*
X121959683Y-95405028D01*
X122015011Y-95362364D01*
X122084624Y-95356385D01*
X122146420Y-95388990D01*
G37*
%TD.AperFunction*%
%TA.AperFunction,NonConductor*%
G36*
X133298273Y-119653475D02*
G01*
X133354206Y-119695347D01*
X133378623Y-119760811D01*
X133371121Y-119812990D01*
X133325629Y-119934960D01*
X133264804Y-120214566D01*
X133244390Y-120499998D01*
X133244390Y-120500000D01*
X133264804Y-120785433D01*
X133325628Y-121065037D01*
X133425635Y-121333166D01*
X133562770Y-121584309D01*
X133562775Y-121584317D01*
X133734254Y-121813387D01*
X133734270Y-121813405D01*
X133936594Y-122015729D01*
X133936612Y-122015745D01*
X134165682Y-122187224D01*
X134165690Y-122187229D01*
X134416833Y-122324364D01*
X134416832Y-122324364D01*
X134416836Y-122324365D01*
X134416839Y-122324367D01*
X134684954Y-122424369D01*
X134684960Y-122424370D01*
X134684962Y-122424371D01*
X134964566Y-122485195D01*
X134964568Y-122485195D01*
X134964572Y-122485196D01*
X135218220Y-122503337D01*
X135249999Y-122505610D01*
X135250000Y-122505610D01*
X135250001Y-122505610D01*
X135278595Y-122503564D01*
X135535428Y-122485196D01*
X135556924Y-122480520D01*
X135815037Y-122424371D01*
X135815037Y-122424370D01*
X135815046Y-122424369D01*
X136083161Y-122324367D01*
X136334315Y-122187226D01*
X136563395Y-122015739D01*
X136765739Y-121813395D01*
X136937226Y-121584315D01*
X136984218Y-121498256D01*
X137016668Y-121438829D01*
X137066073Y-121389424D01*
X137134346Y-121374572D01*
X137199811Y-121398989D01*
X137241682Y-121454923D01*
X137249500Y-121498256D01*
X137249500Y-122628944D01*
X137229815Y-122695983D01*
X137177011Y-122741738D01*
X137126476Y-122752940D01*
X130250928Y-122807078D01*
X130183736Y-122787922D01*
X130137567Y-122735480D01*
X130127079Y-122666402D01*
X130155603Y-122602620D01*
X130214081Y-122564384D01*
X130217794Y-122563325D01*
X130231785Y-122559577D01*
X130325258Y-122505610D01*
X130368716Y-122480520D01*
X130480520Y-122368716D01*
X130480520Y-122368714D01*
X130490724Y-122358511D01*
X130490727Y-122358506D01*
X133167260Y-119681974D01*
X133228581Y-119648491D01*
X133298273Y-119653475D01*
G37*
%TD.AperFunction*%
M02*
