%TF.GenerationSoftware,KiCad,Pcbnew,8.0.8*%
%TF.CreationDate,2025-02-27T23:00:34-08:00*%
%TF.ProjectId,514_final_display_pcb,3531345f-6669-46e6-916c-5f646973706c,rev?*%
%TF.SameCoordinates,Original*%
%TF.FileFunction,Legend,Top*%
%TF.FilePolarity,Positive*%
%FSLAX46Y46*%
G04 Gerber Fmt 4.6, Leading zero omitted, Abs format (unit mm)*
G04 Created by KiCad (PCBNEW 8.0.8) date 2025-02-27 23:00:34*
%MOMM*%
%LPD*%
G01*
G04 APERTURE LIST*
%ADD10C,0.100000*%
%ADD11C,0.150000*%
%ADD12C,0.120000*%
G04 APERTURE END LIST*
D10*
X76872419Y-80969925D02*
X76872419Y-81446115D01*
X76872419Y-81446115D02*
X75872419Y-81446115D01*
X76872419Y-80208020D02*
X76348609Y-80208020D01*
X76348609Y-80208020D02*
X76253371Y-80255639D01*
X76253371Y-80255639D02*
X76205752Y-80350877D01*
X76205752Y-80350877D02*
X76205752Y-80541353D01*
X76205752Y-80541353D02*
X76253371Y-80636591D01*
X76824800Y-80208020D02*
X76872419Y-80303258D01*
X76872419Y-80303258D02*
X76872419Y-80541353D01*
X76872419Y-80541353D02*
X76824800Y-80636591D01*
X76824800Y-80636591D02*
X76729561Y-80684210D01*
X76729561Y-80684210D02*
X76634323Y-80684210D01*
X76634323Y-80684210D02*
X76539085Y-80636591D01*
X76539085Y-80636591D02*
X76491466Y-80541353D01*
X76491466Y-80541353D02*
X76491466Y-80303258D01*
X76491466Y-80303258D02*
X76443847Y-80208020D01*
X76205752Y-79303258D02*
X76872419Y-79303258D01*
X76205752Y-79731829D02*
X76729561Y-79731829D01*
X76729561Y-79731829D02*
X76824800Y-79684210D01*
X76824800Y-79684210D02*
X76872419Y-79588972D01*
X76872419Y-79588972D02*
X76872419Y-79446115D01*
X76872419Y-79446115D02*
X76824800Y-79350877D01*
X76824800Y-79350877D02*
X76777180Y-79303258D01*
X76872419Y-78827067D02*
X76205752Y-78827067D01*
X76396228Y-78827067D02*
X76300990Y-78779448D01*
X76300990Y-78779448D02*
X76253371Y-78731829D01*
X76253371Y-78731829D02*
X76205752Y-78636591D01*
X76205752Y-78636591D02*
X76205752Y-78541353D01*
X76872419Y-77779448D02*
X76348609Y-77779448D01*
X76348609Y-77779448D02*
X76253371Y-77827067D01*
X76253371Y-77827067D02*
X76205752Y-77922305D01*
X76205752Y-77922305D02*
X76205752Y-78112781D01*
X76205752Y-78112781D02*
X76253371Y-78208019D01*
X76824800Y-77779448D02*
X76872419Y-77874686D01*
X76872419Y-77874686D02*
X76872419Y-78112781D01*
X76872419Y-78112781D02*
X76824800Y-78208019D01*
X76824800Y-78208019D02*
X76729561Y-78255638D01*
X76729561Y-78255638D02*
X76634323Y-78255638D01*
X76634323Y-78255638D02*
X76539085Y-78208019D01*
X76539085Y-78208019D02*
X76491466Y-78112781D01*
X76491466Y-78112781D02*
X76491466Y-77874686D01*
X76491466Y-77874686D02*
X76443847Y-77779448D01*
X76967657Y-77541353D02*
X76967657Y-76779448D01*
X76872419Y-76541352D02*
X75872419Y-76541352D01*
X75872419Y-76541352D02*
X75872419Y-76303257D01*
X75872419Y-76303257D02*
X75920038Y-76160400D01*
X75920038Y-76160400D02*
X76015276Y-76065162D01*
X76015276Y-76065162D02*
X76110514Y-76017543D01*
X76110514Y-76017543D02*
X76300990Y-75969924D01*
X76300990Y-75969924D02*
X76443847Y-75969924D01*
X76443847Y-75969924D02*
X76634323Y-76017543D01*
X76634323Y-76017543D02*
X76729561Y-76065162D01*
X76729561Y-76065162D02*
X76824800Y-76160400D01*
X76824800Y-76160400D02*
X76872419Y-76303257D01*
X76872419Y-76303257D02*
X76872419Y-76541352D01*
X76872419Y-75541352D02*
X76205752Y-75541352D01*
X75872419Y-75541352D02*
X75920038Y-75588971D01*
X75920038Y-75588971D02*
X75967657Y-75541352D01*
X75967657Y-75541352D02*
X75920038Y-75493733D01*
X75920038Y-75493733D02*
X75872419Y-75541352D01*
X75872419Y-75541352D02*
X75967657Y-75541352D01*
X76824800Y-75112781D02*
X76872419Y-75017543D01*
X76872419Y-75017543D02*
X76872419Y-74827067D01*
X76872419Y-74827067D02*
X76824800Y-74731829D01*
X76824800Y-74731829D02*
X76729561Y-74684210D01*
X76729561Y-74684210D02*
X76681942Y-74684210D01*
X76681942Y-74684210D02*
X76586704Y-74731829D01*
X76586704Y-74731829D02*
X76539085Y-74827067D01*
X76539085Y-74827067D02*
X76539085Y-74969924D01*
X76539085Y-74969924D02*
X76491466Y-75065162D01*
X76491466Y-75065162D02*
X76396228Y-75112781D01*
X76396228Y-75112781D02*
X76348609Y-75112781D01*
X76348609Y-75112781D02*
X76253371Y-75065162D01*
X76253371Y-75065162D02*
X76205752Y-74969924D01*
X76205752Y-74969924D02*
X76205752Y-74827067D01*
X76205752Y-74827067D02*
X76253371Y-74731829D01*
X76205752Y-74255638D02*
X77205752Y-74255638D01*
X76253371Y-74255638D02*
X76205752Y-74160400D01*
X76205752Y-74160400D02*
X76205752Y-73969924D01*
X76205752Y-73969924D02*
X76253371Y-73874686D01*
X76253371Y-73874686D02*
X76300990Y-73827067D01*
X76300990Y-73827067D02*
X76396228Y-73779448D01*
X76396228Y-73779448D02*
X76681942Y-73779448D01*
X76681942Y-73779448D02*
X76777180Y-73827067D01*
X76777180Y-73827067D02*
X76824800Y-73874686D01*
X76824800Y-73874686D02*
X76872419Y-73969924D01*
X76872419Y-73969924D02*
X76872419Y-74160400D01*
X76872419Y-74160400D02*
X76824800Y-74255638D01*
X76872419Y-73208019D02*
X76824800Y-73303257D01*
X76824800Y-73303257D02*
X76729561Y-73350876D01*
X76729561Y-73350876D02*
X75872419Y-73350876D01*
X76872419Y-72398495D02*
X76348609Y-72398495D01*
X76348609Y-72398495D02*
X76253371Y-72446114D01*
X76253371Y-72446114D02*
X76205752Y-72541352D01*
X76205752Y-72541352D02*
X76205752Y-72731828D01*
X76205752Y-72731828D02*
X76253371Y-72827066D01*
X76824800Y-72398495D02*
X76872419Y-72493733D01*
X76872419Y-72493733D02*
X76872419Y-72731828D01*
X76872419Y-72731828D02*
X76824800Y-72827066D01*
X76824800Y-72827066D02*
X76729561Y-72874685D01*
X76729561Y-72874685D02*
X76634323Y-72874685D01*
X76634323Y-72874685D02*
X76539085Y-72827066D01*
X76539085Y-72827066D02*
X76491466Y-72731828D01*
X76491466Y-72731828D02*
X76491466Y-72493733D01*
X76491466Y-72493733D02*
X76443847Y-72398495D01*
X76205752Y-72017542D02*
X76872419Y-71779447D01*
X76205752Y-71541352D02*
X76872419Y-71779447D01*
X76872419Y-71779447D02*
X77110514Y-71874685D01*
X77110514Y-71874685D02*
X77158133Y-71922304D01*
X77158133Y-71922304D02*
X77205752Y-72017542D01*
X76967657Y-71398495D02*
X76967657Y-70636590D01*
X76205752Y-70493732D02*
X76872419Y-70255637D01*
X76872419Y-70255637D02*
X76205752Y-70017542D01*
X76872419Y-69112780D02*
X76872419Y-69684208D01*
X76872419Y-69398494D02*
X75872419Y-69398494D01*
X75872419Y-69398494D02*
X76015276Y-69493732D01*
X76015276Y-69493732D02*
X76110514Y-69588970D01*
X76110514Y-69588970D02*
X76158133Y-69684208D01*
D11*
X102506905Y-82494819D02*
X102506905Y-81494819D01*
X102506905Y-81494819D02*
X102745000Y-81494819D01*
X102745000Y-81494819D02*
X102887857Y-81542438D01*
X102887857Y-81542438D02*
X102983095Y-81637676D01*
X102983095Y-81637676D02*
X103030714Y-81732914D01*
X103030714Y-81732914D02*
X103078333Y-81923390D01*
X103078333Y-81923390D02*
X103078333Y-82066247D01*
X103078333Y-82066247D02*
X103030714Y-82256723D01*
X103030714Y-82256723D02*
X102983095Y-82351961D01*
X102983095Y-82351961D02*
X102887857Y-82447200D01*
X102887857Y-82447200D02*
X102745000Y-82494819D01*
X102745000Y-82494819D02*
X102506905Y-82494819D01*
X104030714Y-82494819D02*
X103459286Y-82494819D01*
X103745000Y-82494819D02*
X103745000Y-81494819D01*
X103745000Y-81494819D02*
X103649762Y-81637676D01*
X103649762Y-81637676D02*
X103554524Y-81732914D01*
X103554524Y-81732914D02*
X103459286Y-81780533D01*
X134604819Y-104166666D02*
X134128628Y-104499999D01*
X134604819Y-104738094D02*
X133604819Y-104738094D01*
X133604819Y-104738094D02*
X133604819Y-104357142D01*
X133604819Y-104357142D02*
X133652438Y-104261904D01*
X133652438Y-104261904D02*
X133700057Y-104214285D01*
X133700057Y-104214285D02*
X133795295Y-104166666D01*
X133795295Y-104166666D02*
X133938152Y-104166666D01*
X133938152Y-104166666D02*
X134033390Y-104214285D01*
X134033390Y-104214285D02*
X134081009Y-104261904D01*
X134081009Y-104261904D02*
X134128628Y-104357142D01*
X134128628Y-104357142D02*
X134128628Y-104738094D01*
X133938152Y-103309523D02*
X134604819Y-103309523D01*
X133557200Y-103547618D02*
X134271485Y-103785713D01*
X134271485Y-103785713D02*
X134271485Y-103166666D01*
D10*
X102230476Y-65367419D02*
X102230476Y-64367419D01*
X102230476Y-64367419D02*
X102563809Y-65081704D01*
X102563809Y-65081704D02*
X102897142Y-64367419D01*
X102897142Y-64367419D02*
X102897142Y-65367419D01*
X103897142Y-65367419D02*
X103325714Y-65367419D01*
X103611428Y-65367419D02*
X103611428Y-64367419D01*
X103611428Y-64367419D02*
X103516190Y-64510276D01*
X103516190Y-64510276D02*
X103420952Y-64605514D01*
X103420952Y-64605514D02*
X103325714Y-64653133D01*
D11*
X127083333Y-116354819D02*
X126750000Y-115878628D01*
X126511905Y-116354819D02*
X126511905Y-115354819D01*
X126511905Y-115354819D02*
X126892857Y-115354819D01*
X126892857Y-115354819D02*
X126988095Y-115402438D01*
X126988095Y-115402438D02*
X127035714Y-115450057D01*
X127035714Y-115450057D02*
X127083333Y-115545295D01*
X127083333Y-115545295D02*
X127083333Y-115688152D01*
X127083333Y-115688152D02*
X127035714Y-115783390D01*
X127035714Y-115783390D02*
X126988095Y-115831009D01*
X126988095Y-115831009D02*
X126892857Y-115878628D01*
X126892857Y-115878628D02*
X126511905Y-115878628D01*
X127464286Y-115450057D02*
X127511905Y-115402438D01*
X127511905Y-115402438D02*
X127607143Y-115354819D01*
X127607143Y-115354819D02*
X127845238Y-115354819D01*
X127845238Y-115354819D02*
X127940476Y-115402438D01*
X127940476Y-115402438D02*
X127988095Y-115450057D01*
X127988095Y-115450057D02*
X128035714Y-115545295D01*
X128035714Y-115545295D02*
X128035714Y-115640533D01*
X128035714Y-115640533D02*
X127988095Y-115783390D01*
X127988095Y-115783390D02*
X127416667Y-116354819D01*
X127416667Y-116354819D02*
X128035714Y-116354819D01*
X112416667Y-110657200D02*
X112559524Y-110704819D01*
X112559524Y-110704819D02*
X112797619Y-110704819D01*
X112797619Y-110704819D02*
X112892857Y-110657200D01*
X112892857Y-110657200D02*
X112940476Y-110609580D01*
X112940476Y-110609580D02*
X112988095Y-110514342D01*
X112988095Y-110514342D02*
X112988095Y-110419104D01*
X112988095Y-110419104D02*
X112940476Y-110323866D01*
X112940476Y-110323866D02*
X112892857Y-110276247D01*
X112892857Y-110276247D02*
X112797619Y-110228628D01*
X112797619Y-110228628D02*
X112607143Y-110181009D01*
X112607143Y-110181009D02*
X112511905Y-110133390D01*
X112511905Y-110133390D02*
X112464286Y-110085771D01*
X112464286Y-110085771D02*
X112416667Y-109990533D01*
X112416667Y-109990533D02*
X112416667Y-109895295D01*
X112416667Y-109895295D02*
X112464286Y-109800057D01*
X112464286Y-109800057D02*
X112511905Y-109752438D01*
X112511905Y-109752438D02*
X112607143Y-109704819D01*
X112607143Y-109704819D02*
X112845238Y-109704819D01*
X112845238Y-109704819D02*
X112988095Y-109752438D01*
X113321429Y-109704819D02*
X113559524Y-110704819D01*
X113559524Y-110704819D02*
X113750000Y-109990533D01*
X113750000Y-109990533D02*
X113940476Y-110704819D01*
X113940476Y-110704819D02*
X114178572Y-109704819D01*
X114511905Y-109800057D02*
X114559524Y-109752438D01*
X114559524Y-109752438D02*
X114654762Y-109704819D01*
X114654762Y-109704819D02*
X114892857Y-109704819D01*
X114892857Y-109704819D02*
X114988095Y-109752438D01*
X114988095Y-109752438D02*
X115035714Y-109800057D01*
X115035714Y-109800057D02*
X115083333Y-109895295D01*
X115083333Y-109895295D02*
X115083333Y-109990533D01*
X115083333Y-109990533D02*
X115035714Y-110133390D01*
X115035714Y-110133390D02*
X114464286Y-110704819D01*
X114464286Y-110704819D02*
X115083333Y-110704819D01*
X110833333Y-82054819D02*
X110500000Y-81578628D01*
X110261905Y-82054819D02*
X110261905Y-81054819D01*
X110261905Y-81054819D02*
X110642857Y-81054819D01*
X110642857Y-81054819D02*
X110738095Y-81102438D01*
X110738095Y-81102438D02*
X110785714Y-81150057D01*
X110785714Y-81150057D02*
X110833333Y-81245295D01*
X110833333Y-81245295D02*
X110833333Y-81388152D01*
X110833333Y-81388152D02*
X110785714Y-81483390D01*
X110785714Y-81483390D02*
X110738095Y-81531009D01*
X110738095Y-81531009D02*
X110642857Y-81578628D01*
X110642857Y-81578628D02*
X110261905Y-81578628D01*
X111785714Y-82054819D02*
X111214286Y-82054819D01*
X111500000Y-82054819D02*
X111500000Y-81054819D01*
X111500000Y-81054819D02*
X111404762Y-81197676D01*
X111404762Y-81197676D02*
X111309524Y-81292914D01*
X111309524Y-81292914D02*
X111214286Y-81340533D01*
X88033333Y-105335009D02*
X88176190Y-105382628D01*
X88176190Y-105382628D02*
X88223809Y-105430247D01*
X88223809Y-105430247D02*
X88271428Y-105525485D01*
X88271428Y-105525485D02*
X88271428Y-105668342D01*
X88271428Y-105668342D02*
X88223809Y-105763580D01*
X88223809Y-105763580D02*
X88176190Y-105811200D01*
X88176190Y-105811200D02*
X88080952Y-105858819D01*
X88080952Y-105858819D02*
X87700000Y-105858819D01*
X87700000Y-105858819D02*
X87700000Y-104858819D01*
X87700000Y-104858819D02*
X88033333Y-104858819D01*
X88033333Y-104858819D02*
X88128571Y-104906438D01*
X88128571Y-104906438D02*
X88176190Y-104954057D01*
X88176190Y-104954057D02*
X88223809Y-105049295D01*
X88223809Y-105049295D02*
X88223809Y-105144533D01*
X88223809Y-105144533D02*
X88176190Y-105239771D01*
X88176190Y-105239771D02*
X88128571Y-105287390D01*
X88128571Y-105287390D02*
X88033333Y-105335009D01*
X88033333Y-105335009D02*
X87700000Y-105335009D01*
X88700000Y-105858819D02*
X88700000Y-105192152D01*
X88700000Y-105382628D02*
X88747619Y-105287390D01*
X88747619Y-105287390D02*
X88795238Y-105239771D01*
X88795238Y-105239771D02*
X88890476Y-105192152D01*
X88890476Y-105192152D02*
X88985714Y-105192152D01*
X89747619Y-105858819D02*
X89747619Y-104858819D01*
X89747619Y-105811200D02*
X89652381Y-105858819D01*
X89652381Y-105858819D02*
X89461905Y-105858819D01*
X89461905Y-105858819D02*
X89366667Y-105811200D01*
X89366667Y-105811200D02*
X89319048Y-105763580D01*
X89319048Y-105763580D02*
X89271429Y-105668342D01*
X89271429Y-105668342D02*
X89271429Y-105382628D01*
X89271429Y-105382628D02*
X89319048Y-105287390D01*
X89319048Y-105287390D02*
X89366667Y-105239771D01*
X89366667Y-105239771D02*
X89461905Y-105192152D01*
X89461905Y-105192152D02*
X89652381Y-105192152D01*
X89652381Y-105192152D02*
X89747619Y-105239771D01*
X90747619Y-105858819D02*
X90176191Y-105858819D01*
X90461905Y-105858819D02*
X90461905Y-104858819D01*
X90461905Y-104858819D02*
X90366667Y-105001676D01*
X90366667Y-105001676D02*
X90271429Y-105096914D01*
X90271429Y-105096914D02*
X90176191Y-105144533D01*
X105304819Y-108166666D02*
X104828628Y-108499999D01*
X105304819Y-108738094D02*
X104304819Y-108738094D01*
X104304819Y-108738094D02*
X104304819Y-108357142D01*
X104304819Y-108357142D02*
X104352438Y-108261904D01*
X104352438Y-108261904D02*
X104400057Y-108214285D01*
X104400057Y-108214285D02*
X104495295Y-108166666D01*
X104495295Y-108166666D02*
X104638152Y-108166666D01*
X104638152Y-108166666D02*
X104733390Y-108214285D01*
X104733390Y-108214285D02*
X104781009Y-108261904D01*
X104781009Y-108261904D02*
X104828628Y-108357142D01*
X104828628Y-108357142D02*
X104828628Y-108738094D01*
X104304819Y-107833332D02*
X104304819Y-107214285D01*
X104304819Y-107214285D02*
X104685771Y-107547618D01*
X104685771Y-107547618D02*
X104685771Y-107404761D01*
X104685771Y-107404761D02*
X104733390Y-107309523D01*
X104733390Y-107309523D02*
X104781009Y-107261904D01*
X104781009Y-107261904D02*
X104876247Y-107214285D01*
X104876247Y-107214285D02*
X105114342Y-107214285D01*
X105114342Y-107214285D02*
X105209580Y-107261904D01*
X105209580Y-107261904D02*
X105257200Y-107309523D01*
X105257200Y-107309523D02*
X105304819Y-107404761D01*
X105304819Y-107404761D02*
X105304819Y-107690475D01*
X105304819Y-107690475D02*
X105257200Y-107785713D01*
X105257200Y-107785713D02*
X105209580Y-107833332D01*
X118166667Y-121407200D02*
X118309524Y-121454819D01*
X118309524Y-121454819D02*
X118547619Y-121454819D01*
X118547619Y-121454819D02*
X118642857Y-121407200D01*
X118642857Y-121407200D02*
X118690476Y-121359580D01*
X118690476Y-121359580D02*
X118738095Y-121264342D01*
X118738095Y-121264342D02*
X118738095Y-121169104D01*
X118738095Y-121169104D02*
X118690476Y-121073866D01*
X118690476Y-121073866D02*
X118642857Y-121026247D01*
X118642857Y-121026247D02*
X118547619Y-120978628D01*
X118547619Y-120978628D02*
X118357143Y-120931009D01*
X118357143Y-120931009D02*
X118261905Y-120883390D01*
X118261905Y-120883390D02*
X118214286Y-120835771D01*
X118214286Y-120835771D02*
X118166667Y-120740533D01*
X118166667Y-120740533D02*
X118166667Y-120645295D01*
X118166667Y-120645295D02*
X118214286Y-120550057D01*
X118214286Y-120550057D02*
X118261905Y-120502438D01*
X118261905Y-120502438D02*
X118357143Y-120454819D01*
X118357143Y-120454819D02*
X118595238Y-120454819D01*
X118595238Y-120454819D02*
X118738095Y-120502438D01*
X119071429Y-120454819D02*
X119309524Y-121454819D01*
X119309524Y-121454819D02*
X119500000Y-120740533D01*
X119500000Y-120740533D02*
X119690476Y-121454819D01*
X119690476Y-121454819D02*
X119928572Y-120454819D01*
X120833333Y-121454819D02*
X120261905Y-121454819D01*
X120547619Y-121454819D02*
X120547619Y-120454819D01*
X120547619Y-120454819D02*
X120452381Y-120597676D01*
X120452381Y-120597676D02*
X120357143Y-120692914D01*
X120357143Y-120692914D02*
X120261905Y-120740533D01*
D10*
X125082580Y-84248095D02*
X124273057Y-84248095D01*
X124273057Y-84248095D02*
X124177819Y-84295714D01*
X124177819Y-84295714D02*
X124130200Y-84343333D01*
X124130200Y-84343333D02*
X124082580Y-84438571D01*
X124082580Y-84438571D02*
X124082580Y-84629047D01*
X124082580Y-84629047D02*
X124130200Y-84724285D01*
X124130200Y-84724285D02*
X124177819Y-84771904D01*
X124177819Y-84771904D02*
X124273057Y-84819523D01*
X124273057Y-84819523D02*
X125082580Y-84819523D01*
X124082580Y-85819523D02*
X124082580Y-85248095D01*
X124082580Y-85533809D02*
X125082580Y-85533809D01*
X125082580Y-85533809D02*
X124939723Y-85438571D01*
X124939723Y-85438571D02*
X124844485Y-85343333D01*
X124844485Y-85343333D02*
X124796866Y-85248095D01*
D11*
X134295833Y-100789580D02*
X134248214Y-100837200D01*
X134248214Y-100837200D02*
X134105357Y-100884819D01*
X134105357Y-100884819D02*
X134010119Y-100884819D01*
X134010119Y-100884819D02*
X133867262Y-100837200D01*
X133867262Y-100837200D02*
X133772024Y-100741961D01*
X133772024Y-100741961D02*
X133724405Y-100646723D01*
X133724405Y-100646723D02*
X133676786Y-100456247D01*
X133676786Y-100456247D02*
X133676786Y-100313390D01*
X133676786Y-100313390D02*
X133724405Y-100122914D01*
X133724405Y-100122914D02*
X133772024Y-100027676D01*
X133772024Y-100027676D02*
X133867262Y-99932438D01*
X133867262Y-99932438D02*
X134010119Y-99884819D01*
X134010119Y-99884819D02*
X134105357Y-99884819D01*
X134105357Y-99884819D02*
X134248214Y-99932438D01*
X134248214Y-99932438D02*
X134295833Y-99980057D01*
X135248214Y-100884819D02*
X134676786Y-100884819D01*
X134962500Y-100884819D02*
X134962500Y-99884819D01*
X134962500Y-99884819D02*
X134867262Y-100027676D01*
X134867262Y-100027676D02*
X134772024Y-100122914D01*
X134772024Y-100122914D02*
X134676786Y-100170533D01*
X123916667Y-110657200D02*
X124059524Y-110704819D01*
X124059524Y-110704819D02*
X124297619Y-110704819D01*
X124297619Y-110704819D02*
X124392857Y-110657200D01*
X124392857Y-110657200D02*
X124440476Y-110609580D01*
X124440476Y-110609580D02*
X124488095Y-110514342D01*
X124488095Y-110514342D02*
X124488095Y-110419104D01*
X124488095Y-110419104D02*
X124440476Y-110323866D01*
X124440476Y-110323866D02*
X124392857Y-110276247D01*
X124392857Y-110276247D02*
X124297619Y-110228628D01*
X124297619Y-110228628D02*
X124107143Y-110181009D01*
X124107143Y-110181009D02*
X124011905Y-110133390D01*
X124011905Y-110133390D02*
X123964286Y-110085771D01*
X123964286Y-110085771D02*
X123916667Y-109990533D01*
X123916667Y-109990533D02*
X123916667Y-109895295D01*
X123916667Y-109895295D02*
X123964286Y-109800057D01*
X123964286Y-109800057D02*
X124011905Y-109752438D01*
X124011905Y-109752438D02*
X124107143Y-109704819D01*
X124107143Y-109704819D02*
X124345238Y-109704819D01*
X124345238Y-109704819D02*
X124488095Y-109752438D01*
X124821429Y-109704819D02*
X125059524Y-110704819D01*
X125059524Y-110704819D02*
X125250000Y-109990533D01*
X125250000Y-109990533D02*
X125440476Y-110704819D01*
X125440476Y-110704819D02*
X125678572Y-109704819D01*
X125964286Y-109704819D02*
X126583333Y-109704819D01*
X126583333Y-109704819D02*
X126250000Y-110085771D01*
X126250000Y-110085771D02*
X126392857Y-110085771D01*
X126392857Y-110085771D02*
X126488095Y-110133390D01*
X126488095Y-110133390D02*
X126535714Y-110181009D01*
X126535714Y-110181009D02*
X126583333Y-110276247D01*
X126583333Y-110276247D02*
X126583333Y-110514342D01*
X126583333Y-110514342D02*
X126535714Y-110609580D01*
X126535714Y-110609580D02*
X126488095Y-110657200D01*
X126488095Y-110657200D02*
X126392857Y-110704819D01*
X126392857Y-110704819D02*
X126107143Y-110704819D01*
X126107143Y-110704819D02*
X126011905Y-110657200D01*
X126011905Y-110657200D02*
X125964286Y-110609580D01*
X129295833Y-97429580D02*
X129248214Y-97477200D01*
X129248214Y-97477200D02*
X129105357Y-97524819D01*
X129105357Y-97524819D02*
X129010119Y-97524819D01*
X129010119Y-97524819D02*
X128867262Y-97477200D01*
X128867262Y-97477200D02*
X128772024Y-97381961D01*
X128772024Y-97381961D02*
X128724405Y-97286723D01*
X128724405Y-97286723D02*
X128676786Y-97096247D01*
X128676786Y-97096247D02*
X128676786Y-96953390D01*
X128676786Y-96953390D02*
X128724405Y-96762914D01*
X128724405Y-96762914D02*
X128772024Y-96667676D01*
X128772024Y-96667676D02*
X128867262Y-96572438D01*
X128867262Y-96572438D02*
X129010119Y-96524819D01*
X129010119Y-96524819D02*
X129105357Y-96524819D01*
X129105357Y-96524819D02*
X129248214Y-96572438D01*
X129248214Y-96572438D02*
X129295833Y-96620057D01*
X129676786Y-96620057D02*
X129724405Y-96572438D01*
X129724405Y-96572438D02*
X129819643Y-96524819D01*
X129819643Y-96524819D02*
X130057738Y-96524819D01*
X130057738Y-96524819D02*
X130152976Y-96572438D01*
X130152976Y-96572438D02*
X130200595Y-96620057D01*
X130200595Y-96620057D02*
X130248214Y-96715295D01*
X130248214Y-96715295D02*
X130248214Y-96810533D01*
X130248214Y-96810533D02*
X130200595Y-96953390D01*
X130200595Y-96953390D02*
X129629167Y-97524819D01*
X129629167Y-97524819D02*
X130248214Y-97524819D01*
D12*
%TO.C,D1*%
X100685000Y-84455000D02*
X100685000Y-87545000D01*
X100685000Y-84455170D02*
G75*
G02*
X106235000Y-85999952I2560000J-1544830D01*
G01*
X106235000Y-86000048D02*
G75*
G02*
X100685000Y-87544830I-2990000J48D01*
G01*
X105745000Y-86000000D02*
G75*
G02*
X100745000Y-86000000I-2500000J0D01*
G01*
X100745000Y-86000000D02*
G75*
G02*
X105745000Y-86000000I2500000J0D01*
G01*
%TO.C,R4*%
X131765000Y-103772936D02*
X131765000Y-104227064D01*
X133235000Y-103772936D02*
X133235000Y-104227064D01*
%TO.C,R2*%
X127477064Y-113515000D02*
X127022936Y-113515000D01*
X127477064Y-114985000D02*
X127022936Y-114985000D01*
%TO.C,SW2*%
X110250000Y-105250000D02*
X110250000Y-106750000D01*
X111500000Y-109250000D02*
X116000000Y-109250000D01*
X116000000Y-102750000D02*
X111500000Y-102750000D01*
X117250000Y-106750000D02*
X117250000Y-105250000D01*
%TO.C,R1*%
X110772936Y-82515000D02*
X111227064Y-82515000D01*
X110772936Y-83985000D02*
X111227064Y-83985000D01*
%TO.C,Brd1*%
X75800000Y-92850000D02*
X103200000Y-92850000D01*
X75800000Y-120150000D02*
X75800000Y-92850000D01*
X76222000Y-96145000D02*
X99322000Y-96145000D01*
X76222000Y-112745000D02*
X76222000Y-96145000D01*
X84501000Y-93339000D02*
X84501000Y-95752000D01*
X84501000Y-93339000D02*
X94280000Y-93339000D01*
X94280000Y-93339000D02*
X94280000Y-95752000D01*
X94280000Y-95752000D02*
X84501000Y-95752000D01*
X99322000Y-96145000D02*
X102408000Y-96145000D01*
X99322000Y-112745000D02*
X76222000Y-112745000D01*
X99322000Y-112745000D02*
X102662000Y-112770000D01*
X102662000Y-96133000D02*
X102408000Y-96145000D01*
X102662000Y-112770000D02*
X102662000Y-96133000D01*
X103200000Y-92850000D02*
X103200000Y-120150000D01*
X103200000Y-120150000D02*
X75800000Y-120150000D01*
%TO.C,R3*%
X105765000Y-108227064D02*
X105765000Y-107772936D01*
X107235000Y-108227064D02*
X107235000Y-107772936D01*
%TO.C,SW1*%
X116000000Y-116000000D02*
X116000000Y-117500000D01*
X117250000Y-120000000D02*
X121750000Y-120000000D01*
X121750000Y-113500000D02*
X117250000Y-113500000D01*
X123000000Y-117500000D02*
X123000000Y-116000000D01*
D10*
%TO.C,U1*%
X132220000Y-81570000D02*
X132220000Y-89190000D01*
X132220000Y-89190000D02*
X136030000Y-89190000D01*
X136030000Y-81570000D02*
X132220000Y-81570000D01*
D12*
%TO.C,C1*%
X134723752Y-98015000D02*
X134201248Y-98015000D01*
X134723752Y-99485000D02*
X134201248Y-99485000D01*
%TO.C,SW3*%
X121750000Y-105250000D02*
X121750000Y-106750000D01*
X123000000Y-109250000D02*
X127500000Y-109250000D01*
X127500000Y-102750000D02*
X123000000Y-102750000D01*
X128750000Y-106750000D02*
X128750000Y-105250000D01*
%TO.C,C2*%
X129201248Y-98015000D02*
X129723752Y-98015000D01*
X129201248Y-99485000D02*
X129723752Y-99485000D01*
%TD*%
M02*
