M48
; DRILL file {KiCad 8.0.8} date 2025-02-27T23:00:06-0800
; FORMAT={-:-/ absolute / inch / decimal}
; #@! TF.CreationDate,2025-02-27T23:00:06-08:00
; #@! TF.GenerationSoftware,Kicad,Pcbnew,8.0.8
; #@! TF.FileFunction,Plated,1,2,PTH
FMAT,2
INCH
; #@! TA.AperFunction,Plated,PTH,ComponentDrill
T1C0.0335
; #@! TA.AperFunction,Plated,PTH,ComponentDrill
T2C0.0354
; #@! TA.AperFunction,Plated,PTH,ComponentDrill
T3C0.0394
; #@! TA.AperFunction,Plated,PTH,ComponentDrill
T4C0.0400
; #@! TA.AperFunction,Plated,PTH,ComponentDrill
T5C0.0433
%
G90
G05
T1
X3.6067Y-2.4055
X3.6067Y-2.7055
X4.5067Y-2.4055
X4.5067Y-2.7055
T2
X4.0148Y-3.3858
X4.1148Y-3.3858
T3
X3.3693Y-3.7224
X3.4693Y-3.7224
X3.5693Y-3.7224
X3.6693Y-3.7224
T4
X4.6555Y-3.0614
X4.6555Y-3.6614
X4.7555Y-3.0614
X4.7555Y-3.6614
X4.8555Y-3.0614
X4.8555Y-3.6614
X4.9555Y-3.0614
X4.9555Y-3.6614
X5.0555Y-3.0614
X5.0555Y-3.6614
X5.1555Y-3.0614
X5.1555Y-3.6614
X5.2555Y-3.0614
X5.2555Y-3.6614
T5
X4.3504Y-4.0846
X4.3504Y-4.2618
X4.5768Y-4.5079
X4.5768Y-4.685
X4.6063Y-4.0846
X4.6063Y-4.2618
X4.8031Y-4.0846
X4.8031Y-4.2618
X4.8327Y-4.5079
X4.8327Y-4.685
X5.0591Y-4.0846
X5.0591Y-4.2618
M30
