%TF.GenerationSoftware,KiCad,Pcbnew,8.0.8*%
%TF.CreationDate,2025-02-27T23:00:34-08:00*%
%TF.ProjectId,514_final_display_pcb,3531345f-6669-46e6-916c-5f646973706c,rev?*%
%TF.SameCoordinates,Original*%
%TF.FileFunction,Copper,L2,Bot*%
%TF.FilePolarity,Positive*%
%FSLAX46Y46*%
G04 Gerber Fmt 4.6, Leading zero omitted, Abs format (unit mm)*
G04 Created by KiCad (PCBNEW 8.0.8) date 2025-02-27 23:00:34*
%MOMM*%
%LPD*%
G01*
G04 APERTURE LIST*
%TA.AperFunction,ComponentPad*%
%ADD10R,1.800000X1.800000*%
%TD*%
%TA.AperFunction,ComponentPad*%
%ADD11C,1.800000*%
%TD*%
%TA.AperFunction,ComponentPad*%
%ADD12C,1.700000*%
%TD*%
%TA.AperFunction,ComponentPad*%
%ADD13C,2.000000*%
%TD*%
%TA.AperFunction,ComponentPad*%
%ADD14O,1.600000X2.000000*%
%TD*%
%TA.AperFunction,ComponentPad*%
%ADD15O,1.778000X3.556000*%
%TD*%
G04 APERTURE END LIST*
D10*
%TO.P,D1,1,K*%
%TO.N,GND*%
X101975000Y-86000000D03*
D11*
%TO.P,D1,2,A*%
%TO.N,Net-(D1-A)*%
X104515000Y-86000000D03*
%TD*%
D12*
%TO.P,M1,1*%
%TO.N,/SM_1*%
X91610000Y-68720000D03*
%TO.P,M1,2,-*%
%TO.N,/SM_2*%
X91610000Y-61100000D03*
%TO.P,M1,3*%
%TO.N,/SM_3*%
X114470000Y-68720000D03*
%TO.P,M1,4*%
%TO.N,/SM_4*%
X114470000Y-61100000D03*
%TD*%
D13*
%TO.P,SW2,1,1*%
%TO.N,GND*%
X117000000Y-108250000D03*
X110500000Y-108250000D03*
%TO.P,SW2,2,2*%
%TO.N,/plus*%
X117000000Y-103750000D03*
X110500000Y-103750000D03*
%TD*%
D14*
%TO.P,Brd1,1,GND*%
%TO.N,GND*%
X85580000Y-94550000D03*
%TO.P,Brd1,2,VCC*%
%TO.N,/3.3V*%
X88120000Y-94550000D03*
%TO.P,Brd1,3,SCL*%
%TO.N,/SSD_SCL*%
X90660000Y-94550000D03*
%TO.P,Brd1,4,SDA*%
%TO.N,/SSD_SDA*%
X93200000Y-94550000D03*
%TD*%
D13*
%TO.P,SW1,1,1*%
%TO.N,GND*%
X122750000Y-119000000D03*
X116250000Y-119000000D03*
%TO.P,SW1,2,2*%
%TO.N,/Reset*%
X122750000Y-114500000D03*
X116250000Y-114500000D03*
%TD*%
D15*
%TO.P,U1,1,GPIO1_A0_D0*%
%TO.N,/SM_4*%
X133490000Y-76998000D03*
%TO.P,U1,2,GPIO2_A1_D1*%
%TO.N,/SM_2*%
X130950000Y-76998000D03*
%TO.P,U1,3,GPIO3_A2_D2*%
%TO.N,/SM_3*%
X128410000Y-76998000D03*
%TO.P,U1,4,GPIO4_A3_D3*%
%TO.N,/SM_1*%
X125870000Y-76998000D03*
%TO.P,U1,5,GPIO4_A3_D3_SDA*%
%TO.N,/SSD_SDA*%
X123330000Y-76998000D03*
%TO.P,U1,6,GPIO6_A5_D5_SCL*%
%TO.N,/SSD_SCL*%
X120790000Y-76998000D03*
%TO.P,U1,7,GPIO43_TX_D6*%
%TO.N,Net-(U1-GPIO43_TX_D6)*%
X118250000Y-76998000D03*
%TO.P,U1,8,5V*%
%TO.N,/BT1*%
X133490000Y-93762000D03*
%TO.P,U1,9,GND*%
%TO.N,GND*%
X130950000Y-93762000D03*
%TO.P,U1,10,3V3*%
%TO.N,/3.3V*%
X128410000Y-93762000D03*
%TO.P,U1,11,GPIO9_A10_D10_COPI*%
%TO.N,/minus*%
X125870000Y-93762000D03*
%TO.P,U1,12,GPIO8_A9_D9_CIPO*%
%TO.N,/plus*%
X123330000Y-93762000D03*
%TO.P,U1,13,GPIO7_A8_D8_SCK*%
%TO.N,/Reset*%
X120790000Y-93762000D03*
%TO.P,U1,14,GPIO44_D7_RX*%
%TO.N,unconnected-(U1-GPIO44_D7_RX-Pad14)*%
X118250000Y-93762000D03*
%TD*%
D13*
%TO.P,SW3,1,1*%
%TO.N,GND*%
X128500000Y-108250000D03*
X122000000Y-108250000D03*
%TO.P,SW3,2,2*%
%TO.N,/minus*%
X128500000Y-103750000D03*
X122000000Y-103750000D03*
%TD*%
%TA.AperFunction,Conductor*%
%TO.N,GND*%
G36*
X137249500Y-122628944D02*
G01*
X137229815Y-122695983D01*
X137177011Y-122741738D01*
X137126476Y-122752940D01*
X105814008Y-122999496D01*
X105813032Y-122999500D01*
X74121472Y-122999500D01*
X74119945Y-122999051D01*
X137249500Y-122500003D01*
X137249500Y-122628944D01*
G37*
%TD.AperFunction*%
%TA.AperFunction,Conductor*%
G36*
X73999612Y-122886005D02*
G01*
X73997475Y-122876338D01*
X73996621Y-122750000D01*
X73750503Y-86324444D01*
X73750500Y-86323606D01*
X73750500Y-49647000D01*
X73999612Y-122886005D01*
G37*
%TD.AperFunction*%
%TD*%
%TA.AperFunction,Conductor*%
%TO.N,GND*%
G36*
X137192539Y-49520185D02*
G01*
X137238294Y-49572989D01*
X137249500Y-49624500D01*
X137249500Y-119501743D01*
X137229815Y-119568782D01*
X137177011Y-119614537D01*
X137107853Y-119624481D01*
X137044297Y-119595456D01*
X137016668Y-119561170D01*
X136937229Y-119415690D01*
X136937224Y-119415682D01*
X136765745Y-119186612D01*
X136765729Y-119186594D01*
X136563405Y-118984270D01*
X136563387Y-118984254D01*
X136334317Y-118812775D01*
X136334309Y-118812770D01*
X136083166Y-118675635D01*
X136083167Y-118675635D01*
X135975915Y-118635632D01*
X135815046Y-118575631D01*
X135815043Y-118575630D01*
X135815037Y-118575628D01*
X135535433Y-118514804D01*
X135250001Y-118494390D01*
X135249999Y-118494390D01*
X134964566Y-118514804D01*
X134684962Y-118575628D01*
X134416833Y-118675635D01*
X134165690Y-118812770D01*
X134165682Y-118812775D01*
X133936612Y-118984254D01*
X133936594Y-118984270D01*
X133734270Y-119186594D01*
X133734254Y-119186612D01*
X133562775Y-119415682D01*
X133562770Y-119415690D01*
X133425635Y-119666833D01*
X133325628Y-119934962D01*
X133264804Y-120214566D01*
X133244390Y-120499998D01*
X133244390Y-120500000D01*
X133264804Y-120785433D01*
X133325628Y-121065037D01*
X133425635Y-121333166D01*
X133562770Y-121584309D01*
X133562775Y-121584317D01*
X133734254Y-121813387D01*
X133734270Y-121813405D01*
X133936594Y-122015729D01*
X133936612Y-122015745D01*
X134165682Y-122187224D01*
X134165690Y-122187229D01*
X134416833Y-122324364D01*
X134416832Y-122324364D01*
X134416836Y-122324365D01*
X134416839Y-122324367D01*
X134684954Y-122424369D01*
X134684960Y-122424370D01*
X134684962Y-122424371D01*
X134964566Y-122485195D01*
X134964568Y-122485195D01*
X134964572Y-122485196D01*
X135218220Y-122503337D01*
X135249999Y-122505610D01*
X135250000Y-122505610D01*
X135250001Y-122505610D01*
X135278595Y-122503564D01*
X135535428Y-122485196D01*
X135815046Y-122424369D01*
X136083161Y-122324367D01*
X136334315Y-122187226D01*
X136563395Y-122015739D01*
X136765739Y-121813395D01*
X136937226Y-121584315D01*
X136984218Y-121498256D01*
X137016668Y-121438829D01*
X137066073Y-121389424D01*
X137134346Y-121374572D01*
X137199811Y-121398989D01*
X137241682Y-121454923D01*
X137249500Y-121498256D01*
X137249500Y-122500003D01*
X74119945Y-122999051D01*
X74054433Y-122979815D01*
X74008678Y-122927011D01*
X73999612Y-122886005D01*
X73986394Y-118999994D01*
X114744859Y-118999994D01*
X114744859Y-119000005D01*
X114765385Y-119247729D01*
X114765387Y-119247738D01*
X114826412Y-119488717D01*
X114926267Y-119716367D01*
X115026562Y-119869881D01*
X115726212Y-119170233D01*
X115737482Y-119212292D01*
X115809890Y-119337708D01*
X115912292Y-119440110D01*
X116037708Y-119512518D01*
X116079766Y-119523787D01*
X115379943Y-120223609D01*
X115426768Y-120260055D01*
X115426771Y-120260057D01*
X115645385Y-120378364D01*
X115645396Y-120378369D01*
X115880506Y-120459083D01*
X116125707Y-120500000D01*
X116374293Y-120500000D01*
X116619493Y-120459083D01*
X116854603Y-120378369D01*
X116854614Y-120378364D01*
X117073230Y-120260056D01*
X117073236Y-120260051D01*
X117120055Y-120223610D01*
X117120056Y-120223609D01*
X116420233Y-119523787D01*
X116462292Y-119512518D01*
X116587708Y-119440110D01*
X116690110Y-119337708D01*
X116762518Y-119212292D01*
X116773787Y-119170234D01*
X117473435Y-119869882D01*
X117573733Y-119716364D01*
X117673587Y-119488717D01*
X117734612Y-119247738D01*
X117734614Y-119247729D01*
X117755141Y-119000005D01*
X117755141Y-118999994D01*
X121244859Y-118999994D01*
X121244859Y-119000005D01*
X121265385Y-119247729D01*
X121265387Y-119247738D01*
X121326412Y-119488717D01*
X121426267Y-119716367D01*
X121526562Y-119869881D01*
X122226212Y-119170233D01*
X122237482Y-119212292D01*
X122309890Y-119337708D01*
X122412292Y-119440110D01*
X122537708Y-119512518D01*
X122579766Y-119523787D01*
X121879943Y-120223609D01*
X121926768Y-120260055D01*
X121926771Y-120260057D01*
X122145385Y-120378364D01*
X122145396Y-120378369D01*
X122380506Y-120459083D01*
X122625707Y-120500000D01*
X122874293Y-120500000D01*
X123119493Y-120459083D01*
X123354603Y-120378369D01*
X123354614Y-120378364D01*
X123573230Y-120260056D01*
X123573236Y-120260051D01*
X123620055Y-120223610D01*
X123620056Y-120223609D01*
X122920233Y-119523787D01*
X122962292Y-119512518D01*
X123087708Y-119440110D01*
X123190110Y-119337708D01*
X123262518Y-119212292D01*
X123273787Y-119170234D01*
X123973435Y-119869882D01*
X124073733Y-119716364D01*
X124173587Y-119488717D01*
X124234612Y-119247738D01*
X124234614Y-119247729D01*
X124255141Y-119000005D01*
X124255141Y-118999994D01*
X124234614Y-118752270D01*
X124234612Y-118752261D01*
X124173587Y-118511282D01*
X124073732Y-118283632D01*
X123973435Y-118130116D01*
X123273787Y-118829765D01*
X123262518Y-118787708D01*
X123190110Y-118662292D01*
X123087708Y-118559890D01*
X122962292Y-118487482D01*
X122920233Y-118476212D01*
X123620055Y-117776389D01*
X123620055Y-117776388D01*
X123573236Y-117739947D01*
X123573231Y-117739944D01*
X123354614Y-117621635D01*
X123354603Y-117621630D01*
X123119493Y-117540916D01*
X122874293Y-117500000D01*
X122625707Y-117500000D01*
X122380506Y-117540916D01*
X122145396Y-117621630D01*
X122145385Y-117621635D01*
X121926770Y-117739943D01*
X121879943Y-117776389D01*
X122579766Y-118476212D01*
X122537708Y-118487482D01*
X122412292Y-118559890D01*
X122309890Y-118662292D01*
X122237482Y-118787708D01*
X122226212Y-118829766D01*
X121526563Y-118130117D01*
X121426267Y-118283633D01*
X121426265Y-118283637D01*
X121326412Y-118511282D01*
X121265387Y-118752261D01*
X121265385Y-118752270D01*
X121244859Y-118999994D01*
X117755141Y-118999994D01*
X117734614Y-118752270D01*
X117734612Y-118752261D01*
X117673587Y-118511282D01*
X117573732Y-118283632D01*
X117473435Y-118130116D01*
X116773787Y-118829765D01*
X116762518Y-118787708D01*
X116690110Y-118662292D01*
X116587708Y-118559890D01*
X116462292Y-118487482D01*
X116420233Y-118476212D01*
X117120055Y-117776389D01*
X117120055Y-117776388D01*
X117073236Y-117739947D01*
X117073231Y-117739944D01*
X116854614Y-117621635D01*
X116854603Y-117621630D01*
X116619493Y-117540916D01*
X116374293Y-117500000D01*
X116125707Y-117500000D01*
X115880506Y-117540916D01*
X115645396Y-117621630D01*
X115645385Y-117621635D01*
X115426770Y-117739943D01*
X115379943Y-117776389D01*
X116079766Y-118476212D01*
X116037708Y-118487482D01*
X115912292Y-118559890D01*
X115809890Y-118662292D01*
X115737482Y-118787708D01*
X115726212Y-118829766D01*
X115026563Y-118130117D01*
X114926267Y-118283633D01*
X114926265Y-118283637D01*
X114826412Y-118511282D01*
X114765387Y-118752261D01*
X114765385Y-118752270D01*
X114744859Y-118999994D01*
X73986394Y-118999994D01*
X73971088Y-114499994D01*
X114744357Y-114499994D01*
X114744357Y-114500005D01*
X114764890Y-114747812D01*
X114764892Y-114747824D01*
X114825936Y-114988881D01*
X114925826Y-115216606D01*
X115061833Y-115424782D01*
X115061836Y-115424785D01*
X115230256Y-115607738D01*
X115426491Y-115760474D01*
X115645190Y-115878828D01*
X115880386Y-115959571D01*
X116125665Y-116000500D01*
X116374335Y-116000500D01*
X116619614Y-115959571D01*
X116854810Y-115878828D01*
X117073509Y-115760474D01*
X117269744Y-115607738D01*
X117438164Y-115424785D01*
X117574173Y-115216607D01*
X117674063Y-114988881D01*
X117735108Y-114747821D01*
X117755643Y-114500000D01*
X117755643Y-114499994D01*
X121244357Y-114499994D01*
X121244357Y-114500005D01*
X121264890Y-114747812D01*
X121264892Y-114747824D01*
X121325936Y-114988881D01*
X121425826Y-115216606D01*
X121561833Y-115424782D01*
X121561836Y-115424785D01*
X121730256Y-115607738D01*
X121926491Y-115760474D01*
X122145190Y-115878828D01*
X122380386Y-115959571D01*
X122625665Y-116000500D01*
X122874335Y-116000500D01*
X123119614Y-115959571D01*
X123354810Y-115878828D01*
X123573509Y-115760474D01*
X123769744Y-115607738D01*
X123938164Y-115424785D01*
X124074173Y-115216607D01*
X124174063Y-114988881D01*
X124235108Y-114747821D01*
X124255643Y-114500000D01*
X124235108Y-114252179D01*
X124174063Y-114011119D01*
X124074173Y-113783393D01*
X123938166Y-113575217D01*
X123916557Y-113551744D01*
X123769744Y-113392262D01*
X123573509Y-113239526D01*
X123573507Y-113239525D01*
X123573506Y-113239524D01*
X123354811Y-113121172D01*
X123354802Y-113121169D01*
X123119616Y-113040429D01*
X122874335Y-112999500D01*
X122625665Y-112999500D01*
X122380383Y-113040429D01*
X122145197Y-113121169D01*
X122145188Y-113121172D01*
X121926493Y-113239524D01*
X121730257Y-113392261D01*
X121561833Y-113575217D01*
X121425826Y-113783393D01*
X121325936Y-114011118D01*
X121264892Y-114252175D01*
X121264890Y-114252187D01*
X121244357Y-114499994D01*
X117755643Y-114499994D01*
X117735108Y-114252179D01*
X117674063Y-114011119D01*
X117574173Y-113783393D01*
X117438166Y-113575217D01*
X117416557Y-113551744D01*
X117269744Y-113392262D01*
X117073509Y-113239526D01*
X117073507Y-113239525D01*
X117073506Y-113239524D01*
X116854811Y-113121172D01*
X116854802Y-113121169D01*
X116619616Y-113040429D01*
X116374335Y-112999500D01*
X116125665Y-112999500D01*
X115880383Y-113040429D01*
X115645197Y-113121169D01*
X115645188Y-113121172D01*
X115426493Y-113239524D01*
X115230257Y-113392261D01*
X115061833Y-113575217D01*
X114925826Y-113783393D01*
X114825936Y-114011118D01*
X114764892Y-114252175D01*
X114764890Y-114252187D01*
X114744357Y-114499994D01*
X73971088Y-114499994D01*
X73949830Y-108249994D01*
X108994859Y-108249994D01*
X108994859Y-108250005D01*
X109015385Y-108497729D01*
X109015387Y-108497738D01*
X109076412Y-108738717D01*
X109176267Y-108966367D01*
X109276562Y-109119881D01*
X109976212Y-108420233D01*
X109987482Y-108462292D01*
X110059890Y-108587708D01*
X110162292Y-108690110D01*
X110287708Y-108762518D01*
X110329766Y-108773787D01*
X109629943Y-109473609D01*
X109676768Y-109510055D01*
X109676771Y-109510057D01*
X109895385Y-109628364D01*
X109895396Y-109628369D01*
X110130506Y-109709083D01*
X110375707Y-109750000D01*
X110624293Y-109750000D01*
X110869493Y-109709083D01*
X111104603Y-109628369D01*
X111104614Y-109628364D01*
X111323230Y-109510056D01*
X111323236Y-109510051D01*
X111370055Y-109473610D01*
X111370056Y-109473609D01*
X110670233Y-108773787D01*
X110712292Y-108762518D01*
X110837708Y-108690110D01*
X110940110Y-108587708D01*
X111012518Y-108462292D01*
X111023787Y-108420233D01*
X111723435Y-109119882D01*
X111823733Y-108966364D01*
X111923587Y-108738717D01*
X111984612Y-108497738D01*
X111984614Y-108497729D01*
X112005141Y-108250005D01*
X112005141Y-108249994D01*
X115494859Y-108249994D01*
X115494859Y-108250005D01*
X115515385Y-108497729D01*
X115515387Y-108497738D01*
X115576412Y-108738717D01*
X115676267Y-108966367D01*
X115776562Y-109119881D01*
X116476212Y-108420233D01*
X116487482Y-108462292D01*
X116559890Y-108587708D01*
X116662292Y-108690110D01*
X116787708Y-108762518D01*
X116829766Y-108773787D01*
X116129943Y-109473609D01*
X116176768Y-109510055D01*
X116176771Y-109510057D01*
X116395385Y-109628364D01*
X116395396Y-109628369D01*
X116630506Y-109709083D01*
X116875707Y-109750000D01*
X117124293Y-109750000D01*
X117369493Y-109709083D01*
X117604603Y-109628369D01*
X117604614Y-109628364D01*
X117823230Y-109510056D01*
X117823236Y-109510051D01*
X117870055Y-109473610D01*
X117870056Y-109473609D01*
X117170233Y-108773787D01*
X117212292Y-108762518D01*
X117337708Y-108690110D01*
X117440110Y-108587708D01*
X117512518Y-108462292D01*
X117523787Y-108420234D01*
X118223435Y-109119882D01*
X118323733Y-108966364D01*
X118423587Y-108738717D01*
X118484612Y-108497738D01*
X118484614Y-108497729D01*
X118505141Y-108250005D01*
X118505141Y-108249994D01*
X120494859Y-108249994D01*
X120494859Y-108250005D01*
X120515385Y-108497729D01*
X120515387Y-108497738D01*
X120576412Y-108738717D01*
X120676267Y-108966367D01*
X120776562Y-109119881D01*
X121476212Y-108420233D01*
X121487482Y-108462292D01*
X121559890Y-108587708D01*
X121662292Y-108690110D01*
X121787708Y-108762518D01*
X121829766Y-108773787D01*
X121129943Y-109473609D01*
X121176768Y-109510055D01*
X121176771Y-109510057D01*
X121395385Y-109628364D01*
X121395396Y-109628369D01*
X121630506Y-109709083D01*
X121875707Y-109750000D01*
X122124293Y-109750000D01*
X122369493Y-109709083D01*
X122604603Y-109628369D01*
X122604614Y-109628364D01*
X122823230Y-109510056D01*
X122823236Y-109510051D01*
X122870055Y-109473610D01*
X122870056Y-109473609D01*
X122170233Y-108773787D01*
X122212292Y-108762518D01*
X122337708Y-108690110D01*
X122440110Y-108587708D01*
X122512518Y-108462292D01*
X122523787Y-108420234D01*
X123223435Y-109119882D01*
X123323733Y-108966364D01*
X123423587Y-108738717D01*
X123484612Y-108497738D01*
X123484614Y-108497729D01*
X123505141Y-108250005D01*
X123505141Y-108249994D01*
X126994859Y-108249994D01*
X126994859Y-108250005D01*
X127015385Y-108497729D01*
X127015387Y-108497738D01*
X127076412Y-108738717D01*
X127176267Y-108966367D01*
X127276562Y-109119881D01*
X127976212Y-108420233D01*
X127987482Y-108462292D01*
X128059890Y-108587708D01*
X128162292Y-108690110D01*
X128287708Y-108762518D01*
X128329766Y-108773787D01*
X127629943Y-109473609D01*
X127676768Y-109510055D01*
X127676771Y-109510057D01*
X127895385Y-109628364D01*
X127895396Y-109628369D01*
X128130506Y-109709083D01*
X128375707Y-109750000D01*
X128624293Y-109750000D01*
X128869493Y-109709083D01*
X129104603Y-109628369D01*
X129104614Y-109628364D01*
X129323230Y-109510056D01*
X129323236Y-109510051D01*
X129370055Y-109473610D01*
X129370056Y-109473609D01*
X128670233Y-108773787D01*
X128712292Y-108762518D01*
X128837708Y-108690110D01*
X128940110Y-108587708D01*
X129012518Y-108462292D01*
X129023787Y-108420234D01*
X129723435Y-109119882D01*
X129823733Y-108966364D01*
X129923587Y-108738717D01*
X129984612Y-108497738D01*
X129984614Y-108497729D01*
X130005141Y-108250005D01*
X130005141Y-108249994D01*
X129984614Y-108002270D01*
X129984612Y-108002261D01*
X129923587Y-107761282D01*
X129823732Y-107533632D01*
X129723435Y-107380116D01*
X129023787Y-108079765D01*
X129012518Y-108037708D01*
X128940110Y-107912292D01*
X128837708Y-107809890D01*
X128712292Y-107737482D01*
X128670233Y-107726212D01*
X129370055Y-107026389D01*
X129370055Y-107026388D01*
X129323236Y-106989947D01*
X129323231Y-106989944D01*
X129104614Y-106871635D01*
X129104603Y-106871630D01*
X128869493Y-106790916D01*
X128624293Y-106750000D01*
X128375707Y-106750000D01*
X128130506Y-106790916D01*
X127895396Y-106871630D01*
X127895385Y-106871635D01*
X127676770Y-106989943D01*
X127629943Y-107026389D01*
X128329766Y-107726212D01*
X128287708Y-107737482D01*
X128162292Y-107809890D01*
X128059890Y-107912292D01*
X127987482Y-108037708D01*
X127976212Y-108079766D01*
X127276563Y-107380117D01*
X127176267Y-107533633D01*
X127176265Y-107533637D01*
X127076412Y-107761282D01*
X127015387Y-108002261D01*
X127015385Y-108002270D01*
X126994859Y-108249994D01*
X123505141Y-108249994D01*
X123484614Y-108002270D01*
X123484612Y-108002261D01*
X123423587Y-107761282D01*
X123323732Y-107533632D01*
X123223435Y-107380116D01*
X122523787Y-108079765D01*
X122512518Y-108037708D01*
X122440110Y-107912292D01*
X122337708Y-107809890D01*
X122212292Y-107737482D01*
X122170233Y-107726212D01*
X122870055Y-107026389D01*
X122870055Y-107026388D01*
X122823236Y-106989947D01*
X122823231Y-106989944D01*
X122604614Y-106871635D01*
X122604603Y-106871630D01*
X122369493Y-106790916D01*
X122124293Y-106750000D01*
X121875707Y-106750000D01*
X121630506Y-106790916D01*
X121395396Y-106871630D01*
X121395385Y-106871635D01*
X121176770Y-106989943D01*
X121129943Y-107026389D01*
X121829766Y-107726212D01*
X121787708Y-107737482D01*
X121662292Y-107809890D01*
X121559890Y-107912292D01*
X121487482Y-108037708D01*
X121476212Y-108079765D01*
X120776563Y-107380117D01*
X120676267Y-107533633D01*
X120676265Y-107533637D01*
X120576412Y-107761282D01*
X120515387Y-108002261D01*
X120515385Y-108002270D01*
X120494859Y-108249994D01*
X118505141Y-108249994D01*
X118484614Y-108002270D01*
X118484612Y-108002261D01*
X118423587Y-107761282D01*
X118323732Y-107533632D01*
X118223435Y-107380116D01*
X117523787Y-108079765D01*
X117512518Y-108037708D01*
X117440110Y-107912292D01*
X117337708Y-107809890D01*
X117212292Y-107737482D01*
X117170233Y-107726212D01*
X117870055Y-107026389D01*
X117870055Y-107026388D01*
X117823236Y-106989947D01*
X117823231Y-106989944D01*
X117604614Y-106871635D01*
X117604603Y-106871630D01*
X117369493Y-106790916D01*
X117124293Y-106750000D01*
X116875707Y-106750000D01*
X116630506Y-106790916D01*
X116395396Y-106871630D01*
X116395385Y-106871635D01*
X116176770Y-106989943D01*
X116129943Y-107026389D01*
X116829766Y-107726212D01*
X116787708Y-107737482D01*
X116662292Y-107809890D01*
X116559890Y-107912292D01*
X116487482Y-108037708D01*
X116476212Y-108079766D01*
X115776563Y-107380117D01*
X115676267Y-107533633D01*
X115676265Y-107533637D01*
X115576412Y-107761282D01*
X115515387Y-108002261D01*
X115515385Y-108002270D01*
X115494859Y-108249994D01*
X112005141Y-108249994D01*
X111984614Y-108002270D01*
X111984612Y-108002261D01*
X111923587Y-107761282D01*
X111823732Y-107533632D01*
X111723435Y-107380116D01*
X111023787Y-108079765D01*
X111012518Y-108037708D01*
X110940110Y-107912292D01*
X110837708Y-107809890D01*
X110712292Y-107737482D01*
X110670233Y-107726212D01*
X111370055Y-107026389D01*
X111370055Y-107026388D01*
X111323236Y-106989947D01*
X111323231Y-106989944D01*
X111104614Y-106871635D01*
X111104603Y-106871630D01*
X110869493Y-106790916D01*
X110624293Y-106750000D01*
X110375707Y-106750000D01*
X110130506Y-106790916D01*
X109895396Y-106871630D01*
X109895385Y-106871635D01*
X109676770Y-106989943D01*
X109629943Y-107026389D01*
X110329766Y-107726212D01*
X110287708Y-107737482D01*
X110162292Y-107809890D01*
X110059890Y-107912292D01*
X109987482Y-108037708D01*
X109976212Y-108079766D01*
X109276563Y-107380117D01*
X109176267Y-107533633D01*
X109176265Y-107533637D01*
X109076412Y-107761282D01*
X109015387Y-108002261D01*
X109015385Y-108002270D01*
X108994859Y-108249994D01*
X73949830Y-108249994D01*
X73934524Y-103749994D01*
X108994357Y-103749994D01*
X108994357Y-103750005D01*
X109014890Y-103997812D01*
X109014892Y-103997824D01*
X109075936Y-104238881D01*
X109175826Y-104466606D01*
X109311833Y-104674782D01*
X109311836Y-104674785D01*
X109480256Y-104857738D01*
X109676491Y-105010474D01*
X109895190Y-105128828D01*
X110130386Y-105209571D01*
X110375665Y-105250500D01*
X110624335Y-105250500D01*
X110869614Y-105209571D01*
X111104810Y-105128828D01*
X111323509Y-105010474D01*
X111519744Y-104857738D01*
X111688164Y-104674785D01*
X111824173Y-104466607D01*
X111924063Y-104238881D01*
X111985108Y-103997821D01*
X112005643Y-103750000D01*
X112005643Y-103749994D01*
X115494357Y-103749994D01*
X115494357Y-103750005D01*
X115514890Y-103997812D01*
X115514892Y-103997824D01*
X115575936Y-104238881D01*
X115675826Y-104466606D01*
X115811833Y-104674782D01*
X115811836Y-104674785D01*
X115980256Y-104857738D01*
X116176491Y-105010474D01*
X116395190Y-105128828D01*
X116630386Y-105209571D01*
X116875665Y-105250500D01*
X117124335Y-105250500D01*
X117369614Y-105209571D01*
X117604810Y-105128828D01*
X117823509Y-105010474D01*
X118019744Y-104857738D01*
X118188164Y-104674785D01*
X118324173Y-104466607D01*
X118424063Y-104238881D01*
X118485108Y-103997821D01*
X118505643Y-103750000D01*
X118505643Y-103749994D01*
X120494357Y-103749994D01*
X120494357Y-103750005D01*
X120514890Y-103997812D01*
X120514892Y-103997824D01*
X120575936Y-104238881D01*
X120675826Y-104466606D01*
X120811833Y-104674782D01*
X120811836Y-104674785D01*
X120980256Y-104857738D01*
X121176491Y-105010474D01*
X121395190Y-105128828D01*
X121630386Y-105209571D01*
X121875665Y-105250500D01*
X122124335Y-105250500D01*
X122369614Y-105209571D01*
X122604810Y-105128828D01*
X122823509Y-105010474D01*
X123019744Y-104857738D01*
X123188164Y-104674785D01*
X123324173Y-104466607D01*
X123424063Y-104238881D01*
X123485108Y-103997821D01*
X123505643Y-103750000D01*
X123505643Y-103749994D01*
X126994357Y-103749994D01*
X126994357Y-103750005D01*
X127014890Y-103997812D01*
X127014892Y-103997824D01*
X127075936Y-104238881D01*
X127175826Y-104466606D01*
X127311833Y-104674782D01*
X127311836Y-104674785D01*
X127480256Y-104857738D01*
X127676491Y-105010474D01*
X127895190Y-105128828D01*
X128130386Y-105209571D01*
X128375665Y-105250500D01*
X128624335Y-105250500D01*
X128869614Y-105209571D01*
X129104810Y-105128828D01*
X129323509Y-105010474D01*
X129519744Y-104857738D01*
X129688164Y-104674785D01*
X129824173Y-104466607D01*
X129924063Y-104238881D01*
X129985108Y-103997821D01*
X130005643Y-103750000D01*
X129985108Y-103502179D01*
X129924063Y-103261119D01*
X129824173Y-103033393D01*
X129688166Y-102825217D01*
X129666557Y-102801744D01*
X129519744Y-102642262D01*
X129323509Y-102489526D01*
X129323507Y-102489525D01*
X129323506Y-102489524D01*
X129104811Y-102371172D01*
X129104802Y-102371169D01*
X128869616Y-102290429D01*
X128624335Y-102249500D01*
X128375665Y-102249500D01*
X128130383Y-102290429D01*
X127895197Y-102371169D01*
X127895188Y-102371172D01*
X127676493Y-102489524D01*
X127480257Y-102642261D01*
X127311833Y-102825217D01*
X127175826Y-103033393D01*
X127075936Y-103261118D01*
X127014892Y-103502175D01*
X127014890Y-103502187D01*
X126994357Y-103749994D01*
X123505643Y-103749994D01*
X123485108Y-103502179D01*
X123424063Y-103261119D01*
X123324173Y-103033393D01*
X123188166Y-102825217D01*
X123166557Y-102801744D01*
X123019744Y-102642262D01*
X122823509Y-102489526D01*
X122823507Y-102489525D01*
X122823506Y-102489524D01*
X122604811Y-102371172D01*
X122604802Y-102371169D01*
X122369616Y-102290429D01*
X122124335Y-102249500D01*
X121875665Y-102249500D01*
X121630383Y-102290429D01*
X121395197Y-102371169D01*
X121395188Y-102371172D01*
X121176493Y-102489524D01*
X120980257Y-102642261D01*
X120811833Y-102825217D01*
X120675826Y-103033393D01*
X120575936Y-103261118D01*
X120514892Y-103502175D01*
X120514890Y-103502187D01*
X120494357Y-103749994D01*
X118505643Y-103749994D01*
X118485108Y-103502179D01*
X118424063Y-103261119D01*
X118324173Y-103033393D01*
X118188166Y-102825217D01*
X118166557Y-102801744D01*
X118019744Y-102642262D01*
X117823509Y-102489526D01*
X117823507Y-102489525D01*
X117823506Y-102489524D01*
X117604811Y-102371172D01*
X117604802Y-102371169D01*
X117369616Y-102290429D01*
X117124335Y-102249500D01*
X116875665Y-102249500D01*
X116630383Y-102290429D01*
X116395197Y-102371169D01*
X116395188Y-102371172D01*
X116176493Y-102489524D01*
X115980257Y-102642261D01*
X115811833Y-102825217D01*
X115675826Y-103033393D01*
X115575936Y-103261118D01*
X115514892Y-103502175D01*
X115514890Y-103502187D01*
X115494357Y-103749994D01*
X112005643Y-103749994D01*
X111985108Y-103502179D01*
X111924063Y-103261119D01*
X111824173Y-103033393D01*
X111688166Y-102825217D01*
X111666557Y-102801744D01*
X111519744Y-102642262D01*
X111323509Y-102489526D01*
X111323507Y-102489525D01*
X111323506Y-102489524D01*
X111104811Y-102371172D01*
X111104802Y-102371169D01*
X110869616Y-102290429D01*
X110624335Y-102249500D01*
X110375665Y-102249500D01*
X110130383Y-102290429D01*
X109895197Y-102371169D01*
X109895188Y-102371172D01*
X109676493Y-102489524D01*
X109480257Y-102642261D01*
X109311833Y-102825217D01*
X109175826Y-103033393D01*
X109075936Y-103261118D01*
X109014892Y-103502175D01*
X109014890Y-103502187D01*
X108994357Y-103749994D01*
X73934524Y-103749994D01*
X73902203Y-94247682D01*
X84280000Y-94247682D01*
X84280000Y-94300000D01*
X85146988Y-94300000D01*
X85114075Y-94357007D01*
X85080000Y-94484174D01*
X85080000Y-94615826D01*
X85114075Y-94742993D01*
X85146988Y-94800000D01*
X84280000Y-94800000D01*
X84280000Y-94852317D01*
X84312009Y-95054417D01*
X84375244Y-95249031D01*
X84468140Y-95431349D01*
X84588417Y-95596894D01*
X84588417Y-95596895D01*
X84733104Y-95741582D01*
X84898650Y-95861859D01*
X85080968Y-95954754D01*
X85275578Y-96017988D01*
X85330000Y-96026607D01*
X85330000Y-94983012D01*
X85387007Y-95015925D01*
X85514174Y-95050000D01*
X85645826Y-95050000D01*
X85772993Y-95015925D01*
X85830000Y-94983012D01*
X85830000Y-96026606D01*
X85884421Y-96017988D01*
X86079031Y-95954754D01*
X86261349Y-95861859D01*
X86426894Y-95741582D01*
X86426895Y-95741582D01*
X86571582Y-95596895D01*
X86571582Y-95596894D01*
X86691861Y-95431347D01*
X86739234Y-95338371D01*
X86787208Y-95287575D01*
X86855028Y-95270779D01*
X86921164Y-95293316D01*
X86960203Y-95338369D01*
X87007713Y-95431611D01*
X87128028Y-95597213D01*
X87272786Y-95741971D01*
X87406305Y-95838976D01*
X87438390Y-95862287D01*
X87554607Y-95921503D01*
X87620776Y-95955218D01*
X87620778Y-95955218D01*
X87620781Y-95955220D01*
X87725137Y-95989127D01*
X87815465Y-96018477D01*
X87916557Y-96034488D01*
X88017648Y-96050500D01*
X88017649Y-96050500D01*
X88222351Y-96050500D01*
X88222352Y-96050500D01*
X88424534Y-96018477D01*
X88619219Y-95955220D01*
X88801610Y-95862287D01*
X88894590Y-95794732D01*
X88967213Y-95741971D01*
X88967215Y-95741968D01*
X88967219Y-95741966D01*
X89111966Y-95597219D01*
X89111968Y-95597215D01*
X89111971Y-95597213D01*
X89232284Y-95431614D01*
X89232286Y-95431611D01*
X89232287Y-95431610D01*
X89279516Y-95338917D01*
X89327489Y-95288123D01*
X89395310Y-95271328D01*
X89461445Y-95293865D01*
X89500483Y-95338917D01*
X89525997Y-95388990D01*
X89547715Y-95431614D01*
X89668028Y-95597213D01*
X89812786Y-95741971D01*
X89946305Y-95838976D01*
X89978390Y-95862287D01*
X90094607Y-95921503D01*
X90160776Y-95955218D01*
X90160778Y-95955218D01*
X90160781Y-95955220D01*
X90265137Y-95989127D01*
X90355465Y-96018477D01*
X90456557Y-96034488D01*
X90557648Y-96050500D01*
X90557649Y-96050500D01*
X90762351Y-96050500D01*
X90762352Y-96050500D01*
X90964534Y-96018477D01*
X91159219Y-95955220D01*
X91341610Y-95862287D01*
X91434590Y-95794732D01*
X91507213Y-95741971D01*
X91507215Y-95741968D01*
X91507219Y-95741966D01*
X91651966Y-95597219D01*
X91651968Y-95597215D01*
X91651971Y-95597213D01*
X91772284Y-95431614D01*
X91772286Y-95431611D01*
X91772287Y-95431610D01*
X91819516Y-95338917D01*
X91867489Y-95288123D01*
X91935310Y-95271328D01*
X92001445Y-95293865D01*
X92040483Y-95338917D01*
X92065997Y-95388990D01*
X92087715Y-95431614D01*
X92208028Y-95597213D01*
X92352786Y-95741971D01*
X92486305Y-95838976D01*
X92518390Y-95862287D01*
X92634607Y-95921503D01*
X92700776Y-95955218D01*
X92700778Y-95955218D01*
X92700781Y-95955220D01*
X92805137Y-95989127D01*
X92895465Y-96018477D01*
X92996557Y-96034488D01*
X93097648Y-96050500D01*
X93097649Y-96050500D01*
X93302351Y-96050500D01*
X93302352Y-96050500D01*
X93504534Y-96018477D01*
X93699219Y-95955220D01*
X93881610Y-95862287D01*
X93974590Y-95794732D01*
X94047213Y-95741971D01*
X94047215Y-95741968D01*
X94047219Y-95741966D01*
X94191966Y-95597219D01*
X94191968Y-95597215D01*
X94191971Y-95597213D01*
X94244732Y-95524590D01*
X94312287Y-95431610D01*
X94405220Y-95249219D01*
X94468477Y-95054534D01*
X94500500Y-94852352D01*
X94500500Y-94247648D01*
X94469195Y-94050000D01*
X94468477Y-94045465D01*
X94439127Y-93955137D01*
X94405220Y-93850781D01*
X94405218Y-93850778D01*
X94405218Y-93850776D01*
X94312419Y-93668650D01*
X94312287Y-93668390D01*
X94304556Y-93657749D01*
X94191971Y-93502786D01*
X94047213Y-93358028D01*
X93881613Y-93237715D01*
X93881612Y-93237714D01*
X93881610Y-93237713D01*
X93799903Y-93196081D01*
X93699223Y-93144781D01*
X93504534Y-93081522D01*
X93329995Y-93053878D01*
X93302352Y-93049500D01*
X93097648Y-93049500D01*
X93073329Y-93053351D01*
X92895465Y-93081522D01*
X92700776Y-93144781D01*
X92518386Y-93237715D01*
X92352786Y-93358028D01*
X92208028Y-93502786D01*
X92087715Y-93668386D01*
X92040485Y-93761080D01*
X91992510Y-93811876D01*
X91924689Y-93828671D01*
X91858554Y-93806134D01*
X91819515Y-93761080D01*
X91772419Y-93668650D01*
X91772287Y-93668390D01*
X91764556Y-93657749D01*
X91651971Y-93502786D01*
X91507213Y-93358028D01*
X91341613Y-93237715D01*
X91341612Y-93237714D01*
X91341610Y-93237713D01*
X91259903Y-93196081D01*
X91159223Y-93144781D01*
X90964534Y-93081522D01*
X90789995Y-93053878D01*
X90762352Y-93049500D01*
X90557648Y-93049500D01*
X90533329Y-93053351D01*
X90355465Y-93081522D01*
X90160776Y-93144781D01*
X89978386Y-93237715D01*
X89812786Y-93358028D01*
X89668028Y-93502786D01*
X89547715Y-93668386D01*
X89500485Y-93761080D01*
X89452510Y-93811876D01*
X89384689Y-93828671D01*
X89318554Y-93806134D01*
X89279515Y-93761080D01*
X89232419Y-93668650D01*
X89232287Y-93668390D01*
X89224556Y-93657749D01*
X89111971Y-93502786D01*
X88967213Y-93358028D01*
X88801613Y-93237715D01*
X88801612Y-93237714D01*
X88801610Y-93237713D01*
X88719903Y-93196081D01*
X88619223Y-93144781D01*
X88424534Y-93081522D01*
X88249995Y-93053878D01*
X88222352Y-93049500D01*
X88017648Y-93049500D01*
X87993329Y-93053351D01*
X87815465Y-93081522D01*
X87620776Y-93144781D01*
X87438386Y-93237715D01*
X87272786Y-93358028D01*
X87128028Y-93502786D01*
X87007713Y-93668388D01*
X86960203Y-93761630D01*
X86912228Y-93812426D01*
X86844407Y-93829220D01*
X86778272Y-93806682D01*
X86739234Y-93761628D01*
X86691861Y-93668652D01*
X86571582Y-93503105D01*
X86571582Y-93503104D01*
X86426895Y-93358417D01*
X86261349Y-93238140D01*
X86079029Y-93145244D01*
X85884413Y-93082009D01*
X85830000Y-93073390D01*
X85830000Y-94116988D01*
X85772993Y-94084075D01*
X85645826Y-94050000D01*
X85514174Y-94050000D01*
X85387007Y-94084075D01*
X85330000Y-94116988D01*
X85330000Y-93073390D01*
X85275586Y-93082009D01*
X85080970Y-93145244D01*
X84898650Y-93238140D01*
X84733105Y-93358417D01*
X84733104Y-93358417D01*
X84588417Y-93503104D01*
X84588417Y-93503105D01*
X84468140Y-93668650D01*
X84375244Y-93850968D01*
X84312009Y-94045582D01*
X84280000Y-94247682D01*
X73902203Y-94247682D01*
X73897155Y-92763638D01*
X116860500Y-92763638D01*
X116860500Y-94760361D01*
X116894714Y-94976376D01*
X116962297Y-95184380D01*
X116962298Y-95184383D01*
X117018083Y-95293865D01*
X117049722Y-95355960D01*
X117061595Y-95379260D01*
X117190142Y-95556193D01*
X117344806Y-95710857D01*
X117510374Y-95831147D01*
X117521743Y-95839407D01*
X117649132Y-95904315D01*
X117716616Y-95938701D01*
X117716619Y-95938702D01*
X117820621Y-95972493D01*
X117924625Y-96006286D01*
X118024672Y-96022132D01*
X118140639Y-96040500D01*
X118140644Y-96040500D01*
X118359361Y-96040500D01*
X118464082Y-96023912D01*
X118575375Y-96006286D01*
X118783383Y-95938701D01*
X118978257Y-95839407D01*
X119112374Y-95741966D01*
X119155193Y-95710857D01*
X119155195Y-95710854D01*
X119155199Y-95710852D01*
X119309852Y-95556199D01*
X119419683Y-95405028D01*
X119475011Y-95362364D01*
X119544624Y-95356385D01*
X119606420Y-95388990D01*
X119620313Y-95405023D01*
X119729906Y-95555866D01*
X119730148Y-95556199D01*
X119884806Y-95710857D01*
X120050374Y-95831147D01*
X120061743Y-95839407D01*
X120189132Y-95904315D01*
X120256616Y-95938701D01*
X120256619Y-95938702D01*
X120360621Y-95972493D01*
X120464625Y-96006286D01*
X120564672Y-96022132D01*
X120680639Y-96040500D01*
X120680644Y-96040500D01*
X120899361Y-96040500D01*
X121004082Y-96023912D01*
X121115375Y-96006286D01*
X121323383Y-95938701D01*
X121518257Y-95839407D01*
X121652374Y-95741966D01*
X121695193Y-95710857D01*
X121695195Y-95710854D01*
X121695199Y-95710852D01*
X121849852Y-95556199D01*
X121959683Y-95405028D01*
X122015011Y-95362364D01*
X122084624Y-95356385D01*
X122146420Y-95388990D01*
X122160313Y-95405023D01*
X122269906Y-95555866D01*
X122270148Y-95556199D01*
X122424806Y-95710857D01*
X122590374Y-95831147D01*
X122601743Y-95839407D01*
X122729132Y-95904315D01*
X122796616Y-95938701D01*
X122796619Y-95938702D01*
X122900621Y-95972493D01*
X123004625Y-96006286D01*
X123104672Y-96022132D01*
X123220639Y-96040500D01*
X123220644Y-96040500D01*
X123439361Y-96040500D01*
X123544082Y-96023912D01*
X123655375Y-96006286D01*
X123863383Y-95938701D01*
X124058257Y-95839407D01*
X124192374Y-95741966D01*
X124235193Y-95710857D01*
X124235195Y-95710854D01*
X124235199Y-95710852D01*
X124389852Y-95556199D01*
X124499683Y-95405028D01*
X124555011Y-95362364D01*
X124624624Y-95356385D01*
X124686420Y-95388990D01*
X124700313Y-95405023D01*
X124809906Y-95555866D01*
X124810148Y-95556199D01*
X124964806Y-95710857D01*
X125130374Y-95831147D01*
X125141743Y-95839407D01*
X125269132Y-95904315D01*
X125336616Y-95938701D01*
X125336619Y-95938702D01*
X125440621Y-95972493D01*
X125544625Y-96006286D01*
X125644672Y-96022132D01*
X125760639Y-96040500D01*
X125760644Y-96040500D01*
X125979361Y-96040500D01*
X126084082Y-96023912D01*
X126195375Y-96006286D01*
X126403383Y-95938701D01*
X126598257Y-95839407D01*
X126732374Y-95741966D01*
X126775193Y-95710857D01*
X126775195Y-95710854D01*
X126775199Y-95710852D01*
X126929852Y-95556199D01*
X127039683Y-95405028D01*
X127095011Y-95362364D01*
X127164624Y-95356385D01*
X127226420Y-95388990D01*
X127240313Y-95405023D01*
X127349906Y-95555866D01*
X127350148Y-95556199D01*
X127504806Y-95710857D01*
X127670374Y-95831147D01*
X127681743Y-95839407D01*
X127809132Y-95904315D01*
X127876616Y-95938701D01*
X127876619Y-95938702D01*
X127980621Y-95972493D01*
X128084625Y-96006286D01*
X128184672Y-96022132D01*
X128300639Y-96040500D01*
X128300644Y-96040500D01*
X128519361Y-96040500D01*
X128624082Y-96023912D01*
X128735375Y-96006286D01*
X128943383Y-95938701D01*
X129138257Y-95839407D01*
X129272374Y-95741966D01*
X129315193Y-95710857D01*
X129315195Y-95710854D01*
X129315199Y-95710852D01*
X129469852Y-95556199D01*
X129579991Y-95404603D01*
X129635320Y-95361939D01*
X129704933Y-95355960D01*
X129766729Y-95388565D01*
X129780627Y-95404605D01*
X129890524Y-95555866D01*
X129890528Y-95555871D01*
X130045128Y-95710471D01*
X130045133Y-95710475D01*
X130222001Y-95838976D01*
X130416808Y-95938237D01*
X130416811Y-95938238D01*
X130624739Y-96005797D01*
X130699999Y-96017717D01*
X130700000Y-96017717D01*
X130700000Y-93442251D01*
X130753919Y-93473381D01*
X130883120Y-93508000D01*
X131016880Y-93508000D01*
X131146081Y-93473381D01*
X131200000Y-93442251D01*
X131200000Y-96017717D01*
X131275258Y-96005797D01*
X131275261Y-96005797D01*
X131483188Y-95938238D01*
X131483191Y-95938237D01*
X131677998Y-95838976D01*
X131854866Y-95710475D01*
X131854871Y-95710471D01*
X132009469Y-95555873D01*
X132119371Y-95404605D01*
X132174701Y-95361939D01*
X132244314Y-95355960D01*
X132306110Y-95388565D01*
X132320008Y-95404605D01*
X132430142Y-95556192D01*
X132430146Y-95556197D01*
X132584806Y-95710857D01*
X132750374Y-95831147D01*
X132761743Y-95839407D01*
X132889132Y-95904315D01*
X132956616Y-95938701D01*
X132956619Y-95938702D01*
X133060621Y-95972493D01*
X133164625Y-96006286D01*
X133264672Y-96022132D01*
X133380639Y-96040500D01*
X133380644Y-96040500D01*
X133599361Y-96040500D01*
X133704082Y-96023912D01*
X133815375Y-96006286D01*
X134023383Y-95938701D01*
X134218257Y-95839407D01*
X134352374Y-95741966D01*
X134395193Y-95710857D01*
X134395195Y-95710854D01*
X134395199Y-95710852D01*
X134549852Y-95556199D01*
X134549854Y-95556195D01*
X134549857Y-95556193D01*
X134606229Y-95478601D01*
X134678407Y-95379257D01*
X134777701Y-95184383D01*
X134845286Y-94976375D01*
X134864929Y-94852352D01*
X134879500Y-94760361D01*
X134879500Y-92763638D01*
X134859595Y-92637971D01*
X134845286Y-92547625D01*
X134777701Y-92339617D01*
X134777701Y-92339616D01*
X134743315Y-92272132D01*
X134678407Y-92144743D01*
X134659681Y-92118969D01*
X134549857Y-91967806D01*
X134395193Y-91813142D01*
X134218260Y-91684595D01*
X134218259Y-91684594D01*
X134218257Y-91684593D01*
X134155825Y-91652782D01*
X134023383Y-91585298D01*
X134023380Y-91585297D01*
X133815376Y-91517714D01*
X133599361Y-91483500D01*
X133599356Y-91483500D01*
X133380644Y-91483500D01*
X133380639Y-91483500D01*
X133164623Y-91517714D01*
X132956619Y-91585297D01*
X132956616Y-91585298D01*
X132761739Y-91684595D01*
X132584806Y-91813142D01*
X132430146Y-91967802D01*
X132430142Y-91967807D01*
X132320008Y-92119394D01*
X132264678Y-92162060D01*
X132195065Y-92168039D01*
X132133270Y-92135433D01*
X132119372Y-92119394D01*
X132009475Y-91968133D01*
X132009471Y-91968128D01*
X131854871Y-91813528D01*
X131854866Y-91813524D01*
X131677998Y-91685023D01*
X131483191Y-91585762D01*
X131483188Y-91585761D01*
X131275258Y-91518201D01*
X131200000Y-91506281D01*
X131200000Y-92557748D01*
X131146081Y-92526619D01*
X131016880Y-92492000D01*
X130883120Y-92492000D01*
X130753919Y-92526619D01*
X130700000Y-92557748D01*
X130700000Y-91506281D01*
X130624741Y-91518201D01*
X130416811Y-91585761D01*
X130416808Y-91585762D01*
X130222001Y-91685023D01*
X130045133Y-91813524D01*
X130045128Y-91813528D01*
X129890528Y-91968128D01*
X129890524Y-91968133D01*
X129780627Y-92119394D01*
X129725297Y-92162060D01*
X129655684Y-92168039D01*
X129593889Y-92135433D01*
X129579991Y-92119394D01*
X129469857Y-91967807D01*
X129469853Y-91967802D01*
X129315193Y-91813142D01*
X129138260Y-91684595D01*
X129138259Y-91684594D01*
X129138257Y-91684593D01*
X129075825Y-91652782D01*
X128943383Y-91585298D01*
X128943380Y-91585297D01*
X128735376Y-91517714D01*
X128519361Y-91483500D01*
X128519356Y-91483500D01*
X128300644Y-91483500D01*
X128300639Y-91483500D01*
X128084623Y-91517714D01*
X127876619Y-91585297D01*
X127876616Y-91585298D01*
X127681739Y-91684595D01*
X127504806Y-91813142D01*
X127350142Y-91967806D01*
X127240318Y-92118969D01*
X127184989Y-92161635D01*
X127115375Y-92167614D01*
X127053580Y-92135009D01*
X127039682Y-92118969D01*
X126929857Y-91967806D01*
X126775193Y-91813142D01*
X126598260Y-91684595D01*
X126598259Y-91684594D01*
X126598257Y-91684593D01*
X126535825Y-91652782D01*
X126403383Y-91585298D01*
X126403380Y-91585297D01*
X126195376Y-91517714D01*
X125979361Y-91483500D01*
X125979356Y-91483500D01*
X125760644Y-91483500D01*
X125760639Y-91483500D01*
X125544623Y-91517714D01*
X125336619Y-91585297D01*
X125336616Y-91585298D01*
X125141739Y-91684595D01*
X124964806Y-91813142D01*
X124810142Y-91967806D01*
X124700318Y-92118969D01*
X124644989Y-92161635D01*
X124575375Y-92167614D01*
X124513580Y-92135009D01*
X124499682Y-92118969D01*
X124389857Y-91967806D01*
X124235193Y-91813142D01*
X124058260Y-91684595D01*
X124058259Y-91684594D01*
X124058257Y-91684593D01*
X123995825Y-91652782D01*
X123863383Y-91585298D01*
X123863380Y-91585297D01*
X123655376Y-91517714D01*
X123439361Y-91483500D01*
X123439356Y-91483500D01*
X123220644Y-91483500D01*
X123220639Y-91483500D01*
X123004623Y-91517714D01*
X122796619Y-91585297D01*
X122796616Y-91585298D01*
X122601739Y-91684595D01*
X122424806Y-91813142D01*
X122270142Y-91967806D01*
X122160318Y-92118969D01*
X122104989Y-92161635D01*
X122035375Y-92167614D01*
X121973580Y-92135009D01*
X121959682Y-92118969D01*
X121849857Y-91967806D01*
X121695193Y-91813142D01*
X121518260Y-91684595D01*
X121518259Y-91684594D01*
X121518257Y-91684593D01*
X121455825Y-91652782D01*
X121323383Y-91585298D01*
X121323380Y-91585297D01*
X121115376Y-91517714D01*
X120899361Y-91483500D01*
X120899356Y-91483500D01*
X120680644Y-91483500D01*
X120680639Y-91483500D01*
X120464623Y-91517714D01*
X120256619Y-91585297D01*
X120256616Y-91585298D01*
X120061739Y-91684595D01*
X119884806Y-91813142D01*
X119730142Y-91967806D01*
X119620318Y-92118969D01*
X119564989Y-92161635D01*
X119495375Y-92167614D01*
X119433580Y-92135009D01*
X119419682Y-92118969D01*
X119309857Y-91967806D01*
X119155193Y-91813142D01*
X118978260Y-91684595D01*
X118978259Y-91684594D01*
X118978257Y-91684593D01*
X118915825Y-91652782D01*
X118783383Y-91585298D01*
X118783380Y-91585297D01*
X118575376Y-91517714D01*
X118359361Y-91483500D01*
X118359356Y-91483500D01*
X118140644Y-91483500D01*
X118140639Y-91483500D01*
X117924623Y-91517714D01*
X117716619Y-91585297D01*
X117716616Y-91585298D01*
X117521739Y-91684595D01*
X117344806Y-91813142D01*
X117190142Y-91967806D01*
X117061595Y-92144739D01*
X116962298Y-92339616D01*
X116962297Y-92339619D01*
X116894714Y-92547623D01*
X116860500Y-92763638D01*
X73897155Y-92763638D01*
X73870926Y-85052155D01*
X100575000Y-85052155D01*
X100575000Y-85750000D01*
X101599722Y-85750000D01*
X101555667Y-85826306D01*
X101525000Y-85940756D01*
X101525000Y-86059244D01*
X101555667Y-86173694D01*
X101599722Y-86250000D01*
X100575000Y-86250000D01*
X100575000Y-86947844D01*
X100581401Y-87007372D01*
X100581403Y-87007379D01*
X100631645Y-87142086D01*
X100631649Y-87142093D01*
X100717809Y-87257187D01*
X100717812Y-87257190D01*
X100832906Y-87343350D01*
X100832913Y-87343354D01*
X100967620Y-87393596D01*
X100967627Y-87393598D01*
X101027155Y-87399999D01*
X101027172Y-87400000D01*
X101725000Y-87400000D01*
X101725000Y-86375277D01*
X101801306Y-86419333D01*
X101915756Y-86450000D01*
X102034244Y-86450000D01*
X102148694Y-86419333D01*
X102225000Y-86375277D01*
X102225000Y-87400000D01*
X102922828Y-87400000D01*
X102922844Y-87399999D01*
X102982372Y-87393598D01*
X102982379Y-87393596D01*
X103117086Y-87343354D01*
X103117093Y-87343350D01*
X103232187Y-87257190D01*
X103232190Y-87257187D01*
X103318350Y-87142093D01*
X103318355Y-87142084D01*
X103347075Y-87065081D01*
X103388945Y-87009147D01*
X103454409Y-86984729D01*
X103522682Y-86999580D01*
X103554484Y-87024428D01*
X103563216Y-87033913D01*
X103563219Y-87033915D01*
X103563222Y-87033918D01*
X103746365Y-87176464D01*
X103746371Y-87176468D01*
X103746374Y-87176470D01*
X103950497Y-87286936D01*
X104064487Y-87326068D01*
X104170015Y-87362297D01*
X104170017Y-87362297D01*
X104170019Y-87362298D01*
X104398951Y-87400500D01*
X104398952Y-87400500D01*
X104631048Y-87400500D01*
X104631049Y-87400500D01*
X104859981Y-87362298D01*
X105079503Y-87286936D01*
X105283626Y-87176470D01*
X105466784Y-87033913D01*
X105623979Y-86863153D01*
X105750924Y-86668849D01*
X105844157Y-86456300D01*
X105901134Y-86231305D01*
X105920300Y-86000000D01*
X105920300Y-85999993D01*
X105901135Y-85768702D01*
X105901133Y-85768691D01*
X105844157Y-85543699D01*
X105750924Y-85331151D01*
X105623983Y-85136852D01*
X105623980Y-85136849D01*
X105623979Y-85136847D01*
X105466784Y-84966087D01*
X105466779Y-84966083D01*
X105466777Y-84966081D01*
X105283634Y-84823535D01*
X105283628Y-84823531D01*
X105079504Y-84713064D01*
X105079495Y-84713061D01*
X104859984Y-84637702D01*
X104672404Y-84606401D01*
X104631049Y-84599500D01*
X104398951Y-84599500D01*
X104357596Y-84606401D01*
X104170015Y-84637702D01*
X103950504Y-84713061D01*
X103950495Y-84713064D01*
X103746371Y-84823531D01*
X103746365Y-84823535D01*
X103563222Y-84966081D01*
X103563215Y-84966087D01*
X103554484Y-84975572D01*
X103494595Y-85011561D01*
X103424757Y-85009458D01*
X103367143Y-84969932D01*
X103347075Y-84934918D01*
X103318355Y-84857915D01*
X103318350Y-84857906D01*
X103232190Y-84742812D01*
X103232187Y-84742809D01*
X103117093Y-84656649D01*
X103117086Y-84656645D01*
X102982379Y-84606403D01*
X102982372Y-84606401D01*
X102922844Y-84600000D01*
X102225000Y-84600000D01*
X102225000Y-85624722D01*
X102148694Y-85580667D01*
X102034244Y-85550000D01*
X101915756Y-85550000D01*
X101801306Y-85580667D01*
X101725000Y-85624722D01*
X101725000Y-84600000D01*
X101027155Y-84600000D01*
X100967627Y-84606401D01*
X100967620Y-84606403D01*
X100832913Y-84656645D01*
X100832906Y-84656649D01*
X100717812Y-84742809D01*
X100717809Y-84742812D01*
X100631649Y-84857906D01*
X100631645Y-84857913D01*
X100581403Y-84992620D01*
X100581401Y-84992627D01*
X100575000Y-85052155D01*
X73870926Y-85052155D01*
X73836429Y-74909994D01*
X100584655Y-74909994D01*
X100584655Y-74910005D01*
X100604014Y-75217725D01*
X100604015Y-75217732D01*
X100661795Y-75520623D01*
X100757078Y-75813874D01*
X100757080Y-75813879D01*
X100888362Y-76092867D01*
X100888366Y-76092873D01*
X101053577Y-76353206D01*
X101053579Y-76353209D01*
X101053584Y-76353216D01*
X101250131Y-76590799D01*
X101250132Y-76590800D01*
X101474902Y-76801874D01*
X101474912Y-76801882D01*
X101724348Y-76983108D01*
X101724353Y-76983110D01*
X101724360Y-76983116D01*
X101994565Y-77131663D01*
X101994570Y-77131665D01*
X101994572Y-77131666D01*
X101994573Y-77131667D01*
X102281253Y-77245171D01*
X102281256Y-77245172D01*
X102579910Y-77321853D01*
X102579914Y-77321854D01*
X102644091Y-77329961D01*
X102885816Y-77360499D01*
X102885825Y-77360499D01*
X102885828Y-77360500D01*
X102885830Y-77360500D01*
X103194170Y-77360500D01*
X103194172Y-77360500D01*
X103194175Y-77360499D01*
X103194183Y-77360499D01*
X103376722Y-77337438D01*
X103500086Y-77321854D01*
X103798743Y-77245172D01*
X103798746Y-77245171D01*
X104085426Y-77131667D01*
X104085427Y-77131666D01*
X104085425Y-77131666D01*
X104085435Y-77131663D01*
X104355640Y-76983116D01*
X104605096Y-76801876D01*
X104829869Y-76590799D01*
X105026416Y-76353216D01*
X105191635Y-76092871D01*
X105235507Y-75999638D01*
X116860500Y-75999638D01*
X116860500Y-77996361D01*
X116894714Y-78212376D01*
X116962297Y-78420380D01*
X116962298Y-78420383D01*
X117061595Y-78615260D01*
X117190142Y-78792193D01*
X117344806Y-78946857D01*
X117510374Y-79067147D01*
X117521743Y-79075407D01*
X117649132Y-79140315D01*
X117716616Y-79174701D01*
X117716619Y-79174702D01*
X117820621Y-79208493D01*
X117924625Y-79242286D01*
X118024672Y-79258132D01*
X118140639Y-79276500D01*
X118140644Y-79276500D01*
X118359361Y-79276500D01*
X118464082Y-79259912D01*
X118575375Y-79242286D01*
X118783383Y-79174701D01*
X118978257Y-79075407D01*
X119077601Y-79003229D01*
X119155193Y-78946857D01*
X119155195Y-78946854D01*
X119155199Y-78946852D01*
X119309852Y-78792199D01*
X119419683Y-78641028D01*
X119475011Y-78598364D01*
X119544624Y-78592385D01*
X119606420Y-78624990D01*
X119620313Y-78641023D01*
X119730144Y-78792193D01*
X119730148Y-78792199D01*
X119884806Y-78946857D01*
X120050374Y-79067147D01*
X120061743Y-79075407D01*
X120189132Y-79140315D01*
X120256616Y-79174701D01*
X120256619Y-79174702D01*
X120360621Y-79208493D01*
X120464625Y-79242286D01*
X120564672Y-79258132D01*
X120680639Y-79276500D01*
X120680644Y-79276500D01*
X120899361Y-79276500D01*
X121004082Y-79259912D01*
X121115375Y-79242286D01*
X121323383Y-79174701D01*
X121518257Y-79075407D01*
X121617601Y-79003229D01*
X121695193Y-78946857D01*
X121695195Y-78946854D01*
X121695199Y-78946852D01*
X121849852Y-78792199D01*
X121959683Y-78641028D01*
X122015011Y-78598364D01*
X122084624Y-78592385D01*
X122146420Y-78624990D01*
X122160313Y-78641023D01*
X122270144Y-78792193D01*
X122270148Y-78792199D01*
X122424806Y-78946857D01*
X122590374Y-79067147D01*
X122601743Y-79075407D01*
X122729132Y-79140315D01*
X122796616Y-79174701D01*
X122796619Y-79174702D01*
X122900621Y-79208493D01*
X123004625Y-79242286D01*
X123104672Y-79258132D01*
X123220639Y-79276500D01*
X123220644Y-79276500D01*
X123439361Y-79276500D01*
X123544082Y-79259912D01*
X123655375Y-79242286D01*
X123863383Y-79174701D01*
X124058257Y-79075407D01*
X124157601Y-79003229D01*
X124235193Y-78946857D01*
X124235195Y-78946854D01*
X124235199Y-78946852D01*
X124389852Y-78792199D01*
X124499683Y-78641028D01*
X124555011Y-78598364D01*
X124624624Y-78592385D01*
X124686420Y-78624990D01*
X124700313Y-78641023D01*
X124810144Y-78792193D01*
X124810148Y-78792199D01*
X124964806Y-78946857D01*
X125130374Y-79067147D01*
X125141743Y-79075407D01*
X125269132Y-79140315D01*
X125336616Y-79174701D01*
X125336619Y-79174702D01*
X125440621Y-79208493D01*
X125544625Y-79242286D01*
X125644672Y-79258132D01*
X125760639Y-79276500D01*
X125760644Y-79276500D01*
X125979361Y-79276500D01*
X126084082Y-79259912D01*
X126195375Y-79242286D01*
X126403383Y-79174701D01*
X126598257Y-79075407D01*
X126697601Y-79003229D01*
X126775193Y-78946857D01*
X126775195Y-78946854D01*
X126775199Y-78946852D01*
X126929852Y-78792199D01*
X127039683Y-78641028D01*
X127095011Y-78598364D01*
X127164624Y-78592385D01*
X127226420Y-78624990D01*
X127240313Y-78641023D01*
X127350144Y-78792193D01*
X127350148Y-78792199D01*
X127504806Y-78946857D01*
X127670374Y-79067147D01*
X127681743Y-79075407D01*
X127809132Y-79140315D01*
X127876616Y-79174701D01*
X127876619Y-79174702D01*
X127980621Y-79208493D01*
X128084625Y-79242286D01*
X128184672Y-79258132D01*
X128300639Y-79276500D01*
X128300644Y-79276500D01*
X128519361Y-79276500D01*
X128624082Y-79259912D01*
X128735375Y-79242286D01*
X128943383Y-79174701D01*
X129138257Y-79075407D01*
X129237601Y-79003229D01*
X129315193Y-78946857D01*
X129315195Y-78946854D01*
X129315199Y-78946852D01*
X129469852Y-78792199D01*
X129579683Y-78641028D01*
X129635011Y-78598364D01*
X129704624Y-78592385D01*
X129766420Y-78624990D01*
X129780313Y-78641023D01*
X129890144Y-78792193D01*
X129890148Y-78792199D01*
X130044806Y-78946857D01*
X130210374Y-79067147D01*
X130221743Y-79075407D01*
X130349132Y-79140315D01*
X130416616Y-79174701D01*
X130416619Y-79174702D01*
X130520621Y-79208493D01*
X130624625Y-79242286D01*
X130724672Y-79258132D01*
X130840639Y-79276500D01*
X130840644Y-79276500D01*
X131059361Y-79276500D01*
X131164082Y-79259912D01*
X131275375Y-79242286D01*
X131483383Y-79174701D01*
X131678257Y-79075407D01*
X131777601Y-79003229D01*
X131855193Y-78946857D01*
X131855195Y-78946854D01*
X131855199Y-78946852D01*
X132009852Y-78792199D01*
X132119683Y-78641028D01*
X132175011Y-78598364D01*
X132244624Y-78592385D01*
X132306420Y-78624990D01*
X132320313Y-78641023D01*
X132430144Y-78792193D01*
X132430148Y-78792199D01*
X132584806Y-78946857D01*
X132750374Y-79067147D01*
X132761743Y-79075407D01*
X132889132Y-79140315D01*
X132956616Y-79174701D01*
X132956619Y-79174702D01*
X133060621Y-79208493D01*
X133164625Y-79242286D01*
X133264672Y-79258132D01*
X133380639Y-79276500D01*
X133380644Y-79276500D01*
X133599361Y-79276500D01*
X133704082Y-79259912D01*
X133815375Y-79242286D01*
X134023383Y-79174701D01*
X134218257Y-79075407D01*
X134317601Y-79003229D01*
X134395193Y-78946857D01*
X134395195Y-78946854D01*
X134395199Y-78946852D01*
X134549852Y-78792199D01*
X134549854Y-78792195D01*
X134549857Y-78792193D01*
X134606229Y-78714601D01*
X134678407Y-78615257D01*
X134777701Y-78420383D01*
X134845286Y-78212375D01*
X134862912Y-78101082D01*
X134879500Y-77996361D01*
X134879500Y-75999638D01*
X134859595Y-75873971D01*
X134845286Y-75783625D01*
X134811493Y-75679621D01*
X134777702Y-75575619D01*
X134777701Y-75575616D01*
X134690060Y-75403614D01*
X134678407Y-75380743D01*
X134659681Y-75354969D01*
X134549857Y-75203806D01*
X134395193Y-75049142D01*
X134218260Y-74920595D01*
X134218259Y-74920594D01*
X134218257Y-74920593D01*
X134155825Y-74888782D01*
X134023383Y-74821298D01*
X134023380Y-74821297D01*
X133815376Y-74753714D01*
X133599361Y-74719500D01*
X133599356Y-74719500D01*
X133380644Y-74719500D01*
X133380639Y-74719500D01*
X133164623Y-74753714D01*
X132956619Y-74821297D01*
X132956616Y-74821298D01*
X132761739Y-74920595D01*
X132584806Y-75049142D01*
X132430142Y-75203806D01*
X132320318Y-75354969D01*
X132264989Y-75397635D01*
X132195375Y-75403614D01*
X132133580Y-75371009D01*
X132119682Y-75354969D01*
X132009857Y-75203806D01*
X131855193Y-75049142D01*
X131678260Y-74920595D01*
X131678259Y-74920594D01*
X131678257Y-74920593D01*
X131615825Y-74888782D01*
X131483383Y-74821298D01*
X131483380Y-74821297D01*
X131275376Y-74753714D01*
X131059361Y-74719500D01*
X131059356Y-74719500D01*
X130840644Y-74719500D01*
X130840639Y-74719500D01*
X130624623Y-74753714D01*
X130416619Y-74821297D01*
X130416616Y-74821298D01*
X130221739Y-74920595D01*
X130044806Y-75049142D01*
X129890142Y-75203806D01*
X129780318Y-75354969D01*
X129724989Y-75397635D01*
X129655375Y-75403614D01*
X129593580Y-75371009D01*
X129579682Y-75354969D01*
X129469857Y-75203806D01*
X129315193Y-75049142D01*
X129138260Y-74920595D01*
X129138259Y-74920594D01*
X129138257Y-74920593D01*
X129075825Y-74888782D01*
X128943383Y-74821298D01*
X128943380Y-74821297D01*
X128735376Y-74753714D01*
X128519361Y-74719500D01*
X128519356Y-74719500D01*
X128300644Y-74719500D01*
X128300639Y-74719500D01*
X128084623Y-74753714D01*
X127876619Y-74821297D01*
X127876616Y-74821298D01*
X127681739Y-74920595D01*
X127504806Y-75049142D01*
X127350142Y-75203806D01*
X127240318Y-75354969D01*
X127184989Y-75397635D01*
X127115375Y-75403614D01*
X127053580Y-75371009D01*
X127039682Y-75354969D01*
X126929857Y-75203806D01*
X126775193Y-75049142D01*
X126598260Y-74920595D01*
X126598259Y-74920594D01*
X126598257Y-74920593D01*
X126535825Y-74888782D01*
X126403383Y-74821298D01*
X126403380Y-74821297D01*
X126195376Y-74753714D01*
X125979361Y-74719500D01*
X125979356Y-74719500D01*
X125760644Y-74719500D01*
X125760639Y-74719500D01*
X125544623Y-74753714D01*
X125336619Y-74821297D01*
X125336616Y-74821298D01*
X125141739Y-74920595D01*
X124964806Y-75049142D01*
X124810142Y-75203806D01*
X124700318Y-75354969D01*
X124644989Y-75397635D01*
X124575375Y-75403614D01*
X124513580Y-75371009D01*
X124499682Y-75354969D01*
X124389857Y-75203806D01*
X124235193Y-75049142D01*
X124058260Y-74920595D01*
X124058259Y-74920594D01*
X124058257Y-74920593D01*
X123995825Y-74888782D01*
X123863383Y-74821298D01*
X123863380Y-74821297D01*
X123655376Y-74753714D01*
X123439361Y-74719500D01*
X123439356Y-74719500D01*
X123220644Y-74719500D01*
X123220639Y-74719500D01*
X123004623Y-74753714D01*
X122796619Y-74821297D01*
X122796616Y-74821298D01*
X122601739Y-74920595D01*
X122424806Y-75049142D01*
X122270142Y-75203806D01*
X122160318Y-75354969D01*
X122104989Y-75397635D01*
X122035375Y-75403614D01*
X121973580Y-75371009D01*
X121959682Y-75354969D01*
X121849857Y-75203806D01*
X121695193Y-75049142D01*
X121518260Y-74920595D01*
X121518259Y-74920594D01*
X121518257Y-74920593D01*
X121455825Y-74888782D01*
X121323383Y-74821298D01*
X121323380Y-74821297D01*
X121115376Y-74753714D01*
X120899361Y-74719500D01*
X120899356Y-74719500D01*
X120680644Y-74719500D01*
X120680639Y-74719500D01*
X120464623Y-74753714D01*
X120256619Y-74821297D01*
X120256616Y-74821298D01*
X120061739Y-74920595D01*
X119884806Y-75049142D01*
X119730142Y-75203806D01*
X119620318Y-75354969D01*
X119564989Y-75397635D01*
X119495375Y-75403614D01*
X119433580Y-75371009D01*
X119419682Y-75354969D01*
X119309857Y-75203806D01*
X119155193Y-75049142D01*
X118978260Y-74920595D01*
X118978259Y-74920594D01*
X118978257Y-74920593D01*
X118915825Y-74888782D01*
X118783383Y-74821298D01*
X118783380Y-74821297D01*
X118575376Y-74753714D01*
X118359361Y-74719500D01*
X118359356Y-74719500D01*
X118140644Y-74719500D01*
X118140639Y-74719500D01*
X117924623Y-74753714D01*
X117716619Y-74821297D01*
X117716616Y-74821298D01*
X117521739Y-74920595D01*
X117344806Y-75049142D01*
X117190142Y-75203806D01*
X117061595Y-75380739D01*
X116962298Y-75575616D01*
X116962297Y-75575619D01*
X116894714Y-75783623D01*
X116860500Y-75999638D01*
X105235507Y-75999638D01*
X105322922Y-75813873D01*
X105418206Y-75520619D01*
X105475984Y-75217736D01*
X105475985Y-75217725D01*
X105495345Y-74910005D01*
X105495345Y-74909994D01*
X105475985Y-74602274D01*
X105475984Y-74602267D01*
X105475984Y-74602264D01*
X105418206Y-74299381D01*
X105322922Y-74006127D01*
X105322919Y-74006120D01*
X105191637Y-73727132D01*
X105191633Y-73727126D01*
X105026422Y-73466793D01*
X105026420Y-73466791D01*
X105026416Y-73466784D01*
X104829869Y-73229201D01*
X104605096Y-73018124D01*
X104605093Y-73018122D01*
X104605087Y-73018117D01*
X104355651Y-72836891D01*
X104355644Y-72836886D01*
X104355640Y-72836884D01*
X104085435Y-72688337D01*
X104085432Y-72688335D01*
X104085427Y-72688333D01*
X104085426Y-72688332D01*
X103798746Y-72574828D01*
X103798743Y-72574827D01*
X103500089Y-72498146D01*
X103500076Y-72498144D01*
X103194183Y-72459500D01*
X103194172Y-72459500D01*
X102885828Y-72459500D01*
X102885816Y-72459500D01*
X102579923Y-72498144D01*
X102579910Y-72498146D01*
X102281256Y-72574827D01*
X102281253Y-72574828D01*
X101994573Y-72688332D01*
X101994572Y-72688333D01*
X101724360Y-72836884D01*
X101724348Y-72836891D01*
X101474912Y-73018117D01*
X101474902Y-73018125D01*
X101250132Y-73229199D01*
X101053577Y-73466793D01*
X100888366Y-73727126D01*
X100888362Y-73727132D01*
X100757080Y-74006120D01*
X100757078Y-74006125D01*
X100661795Y-74299376D01*
X100604015Y-74602267D01*
X100604014Y-74602274D01*
X100584655Y-74909994D01*
X73836429Y-74909994D01*
X73815374Y-68719999D01*
X90254341Y-68719999D01*
X90254341Y-68720000D01*
X90274936Y-68955403D01*
X90274938Y-68955413D01*
X90336094Y-69183655D01*
X90336096Y-69183659D01*
X90336097Y-69183663D01*
X90435965Y-69397830D01*
X90435967Y-69397834D01*
X90544281Y-69552521D01*
X90571505Y-69591401D01*
X90738599Y-69758495D01*
X90835384Y-69826265D01*
X90932165Y-69894032D01*
X90932167Y-69894033D01*
X90932170Y-69894035D01*
X91146337Y-69993903D01*
X91374592Y-70055063D01*
X91562918Y-70071539D01*
X91609999Y-70075659D01*
X91610000Y-70075659D01*
X91610001Y-70075659D01*
X91649234Y-70072226D01*
X91845408Y-70055063D01*
X92073663Y-69993903D01*
X92287830Y-69894035D01*
X92481401Y-69758495D01*
X92648495Y-69591401D01*
X92784035Y-69397830D01*
X92883903Y-69183663D01*
X92945063Y-68955408D01*
X92965659Y-68720000D01*
X92965659Y-68719999D01*
X113114341Y-68719999D01*
X113114341Y-68720000D01*
X113134936Y-68955403D01*
X113134938Y-68955413D01*
X113196094Y-69183655D01*
X113196096Y-69183659D01*
X113196097Y-69183663D01*
X113295965Y-69397830D01*
X113295967Y-69397834D01*
X113404281Y-69552521D01*
X113431505Y-69591401D01*
X113598599Y-69758495D01*
X113695384Y-69826265D01*
X113792165Y-69894032D01*
X113792167Y-69894033D01*
X113792170Y-69894035D01*
X114006337Y-69993903D01*
X114234592Y-70055063D01*
X114422918Y-70071539D01*
X114469999Y-70075659D01*
X114470000Y-70075659D01*
X114470001Y-70075659D01*
X114509234Y-70072226D01*
X114705408Y-70055063D01*
X114933663Y-69993903D01*
X115147830Y-69894035D01*
X115341401Y-69758495D01*
X115508495Y-69591401D01*
X115644035Y-69397830D01*
X115743903Y-69183663D01*
X115805063Y-68955408D01*
X115825659Y-68720000D01*
X115805063Y-68484592D01*
X115743903Y-68256337D01*
X115644035Y-68042171D01*
X115508495Y-67848599D01*
X115508494Y-67848597D01*
X115341402Y-67681506D01*
X115341395Y-67681501D01*
X115147834Y-67545967D01*
X115147830Y-67545965D01*
X115147828Y-67545964D01*
X114933663Y-67446097D01*
X114933659Y-67446096D01*
X114933655Y-67446094D01*
X114705413Y-67384938D01*
X114705403Y-67384936D01*
X114470001Y-67364341D01*
X114469999Y-67364341D01*
X114234596Y-67384936D01*
X114234586Y-67384938D01*
X114006344Y-67446094D01*
X114006335Y-67446098D01*
X113792171Y-67545964D01*
X113792169Y-67545965D01*
X113598597Y-67681505D01*
X113431505Y-67848597D01*
X113295965Y-68042169D01*
X113295964Y-68042171D01*
X113196098Y-68256335D01*
X113196094Y-68256344D01*
X113134938Y-68484586D01*
X113134936Y-68484596D01*
X113114341Y-68719999D01*
X92965659Y-68719999D01*
X92945063Y-68484592D01*
X92883903Y-68256337D01*
X92784035Y-68042171D01*
X92648495Y-67848599D01*
X92648494Y-67848597D01*
X92481402Y-67681506D01*
X92481395Y-67681501D01*
X92287834Y-67545967D01*
X92287830Y-67545965D01*
X92287828Y-67545964D01*
X92073663Y-67446097D01*
X92073659Y-67446096D01*
X92073655Y-67446094D01*
X91845413Y-67384938D01*
X91845403Y-67384936D01*
X91610001Y-67364341D01*
X91609999Y-67364341D01*
X91374596Y-67384936D01*
X91374586Y-67384938D01*
X91146344Y-67446094D01*
X91146335Y-67446098D01*
X90932171Y-67545964D01*
X90932169Y-67545965D01*
X90738597Y-67681505D01*
X90571505Y-67848597D01*
X90435965Y-68042169D01*
X90435964Y-68042171D01*
X90336098Y-68256335D01*
X90336094Y-68256344D01*
X90274938Y-68484586D01*
X90274936Y-68484596D01*
X90254341Y-68719999D01*
X73815374Y-68719999D01*
X73802415Y-64909994D01*
X88084529Y-64909994D01*
X88084529Y-64910005D01*
X88104379Y-65149559D01*
X88163389Y-65382589D01*
X88259951Y-65602729D01*
X88391427Y-65803966D01*
X88391429Y-65803969D01*
X88554236Y-65980825D01*
X88554239Y-65980827D01*
X88554242Y-65980830D01*
X88743924Y-66128466D01*
X88743930Y-66128470D01*
X88743933Y-66128472D01*
X88955344Y-66242882D01*
X88955347Y-66242883D01*
X89182699Y-66320933D01*
X89182701Y-66320933D01*
X89182703Y-66320934D01*
X89419808Y-66360500D01*
X89419809Y-66360500D01*
X89660191Y-66360500D01*
X89660192Y-66360500D01*
X89897297Y-66320934D01*
X90124656Y-66242882D01*
X90336067Y-66128472D01*
X90525764Y-65980825D01*
X90688571Y-65803969D01*
X90820049Y-65602728D01*
X90916610Y-65382591D01*
X90975620Y-65149563D01*
X90995471Y-64910000D01*
X90995471Y-64909994D01*
X115084529Y-64909994D01*
X115084529Y-64910005D01*
X115104379Y-65149559D01*
X115163389Y-65382589D01*
X115259951Y-65602729D01*
X115391427Y-65803966D01*
X115391429Y-65803969D01*
X115554236Y-65980825D01*
X115554239Y-65980827D01*
X115554242Y-65980830D01*
X115743924Y-66128466D01*
X115743930Y-66128470D01*
X115743933Y-66128472D01*
X115955344Y-66242882D01*
X115955347Y-66242883D01*
X116182699Y-66320933D01*
X116182701Y-66320933D01*
X116182703Y-66320934D01*
X116419808Y-66360500D01*
X116419809Y-66360500D01*
X116660191Y-66360500D01*
X116660192Y-66360500D01*
X116897297Y-66320934D01*
X117124656Y-66242882D01*
X117336067Y-66128472D01*
X117525764Y-65980825D01*
X117688571Y-65803969D01*
X117820049Y-65602728D01*
X117916610Y-65382591D01*
X117975620Y-65149563D01*
X117995471Y-64910000D01*
X117975620Y-64670437D01*
X117916610Y-64437409D01*
X117820049Y-64217272D01*
X117688571Y-64016031D01*
X117525764Y-63839175D01*
X117525759Y-63839171D01*
X117525757Y-63839169D01*
X117336075Y-63691533D01*
X117336069Y-63691529D01*
X117124657Y-63577118D01*
X117124652Y-63577116D01*
X116897300Y-63499066D01*
X116719468Y-63469391D01*
X116660192Y-63459500D01*
X116419808Y-63459500D01*
X116372387Y-63467413D01*
X116182699Y-63499066D01*
X115955347Y-63577116D01*
X115955342Y-63577118D01*
X115743930Y-63691529D01*
X115743924Y-63691533D01*
X115554242Y-63839169D01*
X115554239Y-63839172D01*
X115391430Y-64016029D01*
X115391427Y-64016033D01*
X115259951Y-64217270D01*
X115163389Y-64437410D01*
X115104379Y-64670440D01*
X115084529Y-64909994D01*
X90995471Y-64909994D01*
X90975620Y-64670437D01*
X90916610Y-64437409D01*
X90820049Y-64217272D01*
X90688571Y-64016031D01*
X90525764Y-63839175D01*
X90525759Y-63839171D01*
X90525757Y-63839169D01*
X90336075Y-63691533D01*
X90336069Y-63691529D01*
X90124657Y-63577118D01*
X90124652Y-63577116D01*
X89897300Y-63499066D01*
X89719468Y-63469391D01*
X89660192Y-63459500D01*
X89419808Y-63459500D01*
X89372387Y-63467413D01*
X89182699Y-63499066D01*
X88955347Y-63577116D01*
X88955342Y-63577118D01*
X88743930Y-63691529D01*
X88743924Y-63691533D01*
X88554242Y-63839169D01*
X88554239Y-63839172D01*
X88391430Y-64016029D01*
X88391427Y-64016033D01*
X88259951Y-64217270D01*
X88163389Y-64437410D01*
X88104379Y-64670440D01*
X88084529Y-64909994D01*
X73802415Y-64909994D01*
X73789456Y-61099999D01*
X90254341Y-61099999D01*
X90254341Y-61100000D01*
X90274936Y-61335403D01*
X90274938Y-61335413D01*
X90336094Y-61563655D01*
X90336096Y-61563659D01*
X90336097Y-61563663D01*
X90435965Y-61777830D01*
X90435967Y-61777834D01*
X90544281Y-61932521D01*
X90571505Y-61971401D01*
X90738599Y-62138495D01*
X90835384Y-62206265D01*
X90932165Y-62274032D01*
X90932167Y-62274033D01*
X90932170Y-62274035D01*
X91146337Y-62373903D01*
X91374592Y-62435063D01*
X91562918Y-62451539D01*
X91609999Y-62455659D01*
X91610000Y-62455659D01*
X91610001Y-62455659D01*
X91649234Y-62452226D01*
X91845408Y-62435063D01*
X92073663Y-62373903D01*
X92287830Y-62274035D01*
X92481401Y-62138495D01*
X92648495Y-61971401D01*
X92784035Y-61777830D01*
X92883903Y-61563663D01*
X92945063Y-61335408D01*
X92965659Y-61100000D01*
X92965659Y-61099999D01*
X113114341Y-61099999D01*
X113114341Y-61100000D01*
X113134936Y-61335403D01*
X113134938Y-61335413D01*
X113196094Y-61563655D01*
X113196096Y-61563659D01*
X113196097Y-61563663D01*
X113295965Y-61777830D01*
X113295967Y-61777834D01*
X113404281Y-61932521D01*
X113431505Y-61971401D01*
X113598599Y-62138495D01*
X113695384Y-62206265D01*
X113792165Y-62274032D01*
X113792167Y-62274033D01*
X113792170Y-62274035D01*
X114006337Y-62373903D01*
X114234592Y-62435063D01*
X114422918Y-62451539D01*
X114469999Y-62455659D01*
X114470000Y-62455659D01*
X114470001Y-62455659D01*
X114509234Y-62452226D01*
X114705408Y-62435063D01*
X114933663Y-62373903D01*
X115147830Y-62274035D01*
X115341401Y-62138495D01*
X115508495Y-61971401D01*
X115644035Y-61777830D01*
X115743903Y-61563663D01*
X115805063Y-61335408D01*
X115825659Y-61100000D01*
X115805063Y-60864592D01*
X115743903Y-60636337D01*
X115644035Y-60422171D01*
X115508495Y-60228599D01*
X115508494Y-60228597D01*
X115341402Y-60061506D01*
X115341395Y-60061501D01*
X115147834Y-59925967D01*
X115147830Y-59925965D01*
X115147828Y-59925964D01*
X114933663Y-59826097D01*
X114933659Y-59826096D01*
X114933655Y-59826094D01*
X114705413Y-59764938D01*
X114705403Y-59764936D01*
X114470001Y-59744341D01*
X114469999Y-59744341D01*
X114234596Y-59764936D01*
X114234586Y-59764938D01*
X114006344Y-59826094D01*
X114006335Y-59826098D01*
X113792171Y-59925964D01*
X113792169Y-59925965D01*
X113598597Y-60061505D01*
X113431505Y-60228597D01*
X113295965Y-60422169D01*
X113295964Y-60422171D01*
X113196098Y-60636335D01*
X113196094Y-60636344D01*
X113134938Y-60864586D01*
X113134936Y-60864596D01*
X113114341Y-61099999D01*
X92965659Y-61099999D01*
X92945063Y-60864592D01*
X92883903Y-60636337D01*
X92784035Y-60422171D01*
X92648495Y-60228599D01*
X92648494Y-60228597D01*
X92481402Y-60061506D01*
X92481395Y-60061501D01*
X92287834Y-59925967D01*
X92287830Y-59925965D01*
X92287828Y-59925964D01*
X92073663Y-59826097D01*
X92073659Y-59826096D01*
X92073655Y-59826094D01*
X91845413Y-59764938D01*
X91845403Y-59764936D01*
X91610001Y-59744341D01*
X91609999Y-59744341D01*
X91374596Y-59764936D01*
X91374586Y-59764938D01*
X91146344Y-59826094D01*
X91146335Y-59826098D01*
X90932171Y-59925964D01*
X90932169Y-59925965D01*
X90738597Y-60061505D01*
X90571505Y-60228597D01*
X90435965Y-60422169D01*
X90435964Y-60422171D01*
X90336098Y-60636335D01*
X90336094Y-60636344D01*
X90274938Y-60864586D01*
X90274936Y-60864596D01*
X90254341Y-61099999D01*
X73789456Y-61099999D01*
X73771803Y-55909995D01*
X92234451Y-55909995D01*
X92234451Y-55910004D01*
X92254616Y-56179101D01*
X92314664Y-56442188D01*
X92314666Y-56442195D01*
X92413257Y-56693398D01*
X92548185Y-56927102D01*
X92684080Y-57097509D01*
X92716442Y-57138089D01*
X92903183Y-57311358D01*
X92914259Y-57321635D01*
X93137226Y-57473651D01*
X93380359Y-57590738D01*
X93638228Y-57670280D01*
X93638229Y-57670280D01*
X93638232Y-57670281D01*
X93905063Y-57710499D01*
X93905068Y-57710499D01*
X93905071Y-57710500D01*
X93905072Y-57710500D01*
X94174928Y-57710500D01*
X94174929Y-57710500D01*
X94174936Y-57710499D01*
X94441767Y-57670281D01*
X94441768Y-57670280D01*
X94441772Y-57670280D01*
X94699641Y-57590738D01*
X94942775Y-57473651D01*
X95165741Y-57321635D01*
X95363561Y-57138085D01*
X95531815Y-56927102D01*
X95666743Y-56693398D01*
X95765334Y-56442195D01*
X95825383Y-56179103D01*
X95845549Y-55910000D01*
X95845549Y-55909995D01*
X110234451Y-55909995D01*
X110234451Y-55910004D01*
X110254616Y-56179101D01*
X110314664Y-56442188D01*
X110314666Y-56442195D01*
X110413257Y-56693398D01*
X110548185Y-56927102D01*
X110684080Y-57097509D01*
X110716442Y-57138089D01*
X110903183Y-57311358D01*
X110914259Y-57321635D01*
X111137226Y-57473651D01*
X111380359Y-57590738D01*
X111638228Y-57670280D01*
X111638229Y-57670280D01*
X111638232Y-57670281D01*
X111905063Y-57710499D01*
X111905068Y-57710499D01*
X111905071Y-57710500D01*
X111905072Y-57710500D01*
X112174928Y-57710500D01*
X112174929Y-57710500D01*
X112174936Y-57710499D01*
X112441767Y-57670281D01*
X112441768Y-57670280D01*
X112441772Y-57670280D01*
X112699641Y-57590738D01*
X112942775Y-57473651D01*
X113165741Y-57321635D01*
X113363561Y-57138085D01*
X113531815Y-56927102D01*
X113666743Y-56693398D01*
X113765334Y-56442195D01*
X113825383Y-56179103D01*
X113845549Y-55910000D01*
X113825383Y-55640897D01*
X113765334Y-55377805D01*
X113666743Y-55126602D01*
X113531815Y-54892898D01*
X113363561Y-54681915D01*
X113363560Y-54681914D01*
X113363557Y-54681910D01*
X113165741Y-54498365D01*
X112942775Y-54346349D01*
X112942769Y-54346346D01*
X112942768Y-54346345D01*
X112942767Y-54346344D01*
X112699643Y-54229263D01*
X112699645Y-54229263D01*
X112441773Y-54149720D01*
X112441767Y-54149718D01*
X112174936Y-54109500D01*
X112174929Y-54109500D01*
X111905071Y-54109500D01*
X111905063Y-54109500D01*
X111638232Y-54149718D01*
X111638226Y-54149720D01*
X111380358Y-54229262D01*
X111137230Y-54346346D01*
X110914258Y-54498365D01*
X110716442Y-54681910D01*
X110548185Y-54892898D01*
X110413258Y-55126599D01*
X110413256Y-55126603D01*
X110314666Y-55377804D01*
X110314664Y-55377811D01*
X110254616Y-55640898D01*
X110234451Y-55909995D01*
X95845549Y-55909995D01*
X95825383Y-55640897D01*
X95765334Y-55377805D01*
X95666743Y-55126602D01*
X95531815Y-54892898D01*
X95363561Y-54681915D01*
X95363560Y-54681914D01*
X95363557Y-54681910D01*
X95165741Y-54498365D01*
X94942775Y-54346349D01*
X94942769Y-54346346D01*
X94942768Y-54346345D01*
X94942767Y-54346344D01*
X94699643Y-54229263D01*
X94699645Y-54229263D01*
X94441773Y-54149720D01*
X94441767Y-54149718D01*
X94174936Y-54109500D01*
X94174929Y-54109500D01*
X93905071Y-54109500D01*
X93905063Y-54109500D01*
X93638232Y-54149718D01*
X93638226Y-54149720D01*
X93380358Y-54229262D01*
X93137230Y-54346346D01*
X92914258Y-54498365D01*
X92716442Y-54681910D01*
X92548185Y-54892898D01*
X92413258Y-55126599D01*
X92413256Y-55126603D01*
X92314666Y-55377804D01*
X92314664Y-55377811D01*
X92254616Y-55640898D01*
X92234451Y-55909995D01*
X73771803Y-55909995D01*
X73761905Y-52999998D01*
X74744390Y-52999998D01*
X74744390Y-53000001D01*
X74764804Y-53285433D01*
X74825628Y-53565037D01*
X74925635Y-53833166D01*
X75062770Y-54084309D01*
X75062775Y-54084317D01*
X75234254Y-54313387D01*
X75234270Y-54313405D01*
X75436594Y-54515729D01*
X75436612Y-54515745D01*
X75665682Y-54687224D01*
X75665690Y-54687229D01*
X75916833Y-54824364D01*
X75916832Y-54824364D01*
X75916836Y-54824365D01*
X75916839Y-54824367D01*
X76184954Y-54924369D01*
X76184960Y-54924370D01*
X76184962Y-54924371D01*
X76464566Y-54985195D01*
X76464568Y-54985195D01*
X76464572Y-54985196D01*
X76718220Y-55003337D01*
X76749999Y-55005610D01*
X76750000Y-55005610D01*
X76750001Y-55005610D01*
X76778595Y-55003564D01*
X77035428Y-54985196D01*
X77315046Y-54924369D01*
X77583161Y-54824367D01*
X77834315Y-54687226D01*
X78063395Y-54515739D01*
X78265739Y-54313395D01*
X78437226Y-54084315D01*
X78574367Y-53833161D01*
X78674369Y-53565046D01*
X78735196Y-53285428D01*
X78755610Y-53000000D01*
X78735196Y-52714572D01*
X78674369Y-52434954D01*
X78574367Y-52166839D01*
X78494025Y-52019705D01*
X78437229Y-51915690D01*
X78437224Y-51915682D01*
X78265745Y-51686612D01*
X78265729Y-51686594D01*
X78063405Y-51484270D01*
X78063387Y-51484254D01*
X77834317Y-51312775D01*
X77834309Y-51312770D01*
X77583166Y-51175635D01*
X77583167Y-51175635D01*
X77475915Y-51135632D01*
X77315046Y-51075631D01*
X77315043Y-51075630D01*
X77315037Y-51075628D01*
X77035433Y-51014804D01*
X76750001Y-50994390D01*
X76749999Y-50994390D01*
X76464566Y-51014804D01*
X76184962Y-51075628D01*
X75916833Y-51175635D01*
X75665690Y-51312770D01*
X75665682Y-51312775D01*
X75436612Y-51484254D01*
X75436594Y-51484270D01*
X75234270Y-51686594D01*
X75234254Y-51686612D01*
X75062775Y-51915682D01*
X75062770Y-51915690D01*
X74925635Y-52166833D01*
X74825628Y-52434962D01*
X74764804Y-52714566D01*
X74744390Y-52999998D01*
X73761905Y-52999998D01*
X73750500Y-49647000D01*
X73750500Y-49624500D01*
X73770185Y-49557461D01*
X73822989Y-49511706D01*
X73874500Y-49500500D01*
X137125500Y-49500500D01*
X137192539Y-49520185D01*
G37*
%TD.AperFunction*%
%TD*%
M02*
