%TF.GenerationSoftware,KiCad,Pcbnew,8.0.8*%
%TF.CreationDate,2025-02-10T00:24:17-08:00*%
%TF.ProjectId,514_final_sensor_pcb,3531345f-6669-46e6-916c-5f73656e736f,rev?*%
%TF.SameCoordinates,Original*%
%TF.FileFunction,Legend,Top*%
%TF.FilePolarity,Positive*%
%FSLAX46Y46*%
G04 Gerber Fmt 4.6, Leading zero omitted, Abs format (unit mm)*
G04 Created by KiCad (PCBNEW 8.0.8) date 2025-02-10 00:24:17*
%MOMM*%
%LPD*%
G01*
G04 APERTURE LIST*
%ADD10C,0.100000*%
%ADD11C,0.150000*%
%ADD12C,0.120000*%
%ADD13C,0.127000*%
%ADD14C,0.200000*%
G04 APERTURE END LIST*
D10*
X98256265Y-53324800D02*
X98399122Y-53372419D01*
X98399122Y-53372419D02*
X98637217Y-53372419D01*
X98637217Y-53372419D02*
X98732455Y-53324800D01*
X98732455Y-53324800D02*
X98780074Y-53277180D01*
X98780074Y-53277180D02*
X98827693Y-53181942D01*
X98827693Y-53181942D02*
X98827693Y-53086704D01*
X98827693Y-53086704D02*
X98780074Y-52991466D01*
X98780074Y-52991466D02*
X98732455Y-52943847D01*
X98732455Y-52943847D02*
X98637217Y-52896228D01*
X98637217Y-52896228D02*
X98446741Y-52848609D01*
X98446741Y-52848609D02*
X98351503Y-52800990D01*
X98351503Y-52800990D02*
X98303884Y-52753371D01*
X98303884Y-52753371D02*
X98256265Y-52658133D01*
X98256265Y-52658133D02*
X98256265Y-52562895D01*
X98256265Y-52562895D02*
X98303884Y-52467657D01*
X98303884Y-52467657D02*
X98351503Y-52420038D01*
X98351503Y-52420038D02*
X98446741Y-52372419D01*
X98446741Y-52372419D02*
X98684836Y-52372419D01*
X98684836Y-52372419D02*
X98827693Y-52420038D01*
X99637217Y-53324800D02*
X99541979Y-53372419D01*
X99541979Y-53372419D02*
X99351503Y-53372419D01*
X99351503Y-53372419D02*
X99256265Y-53324800D01*
X99256265Y-53324800D02*
X99208646Y-53229561D01*
X99208646Y-53229561D02*
X99208646Y-52848609D01*
X99208646Y-52848609D02*
X99256265Y-52753371D01*
X99256265Y-52753371D02*
X99351503Y-52705752D01*
X99351503Y-52705752D02*
X99541979Y-52705752D01*
X99541979Y-52705752D02*
X99637217Y-52753371D01*
X99637217Y-52753371D02*
X99684836Y-52848609D01*
X99684836Y-52848609D02*
X99684836Y-52943847D01*
X99684836Y-52943847D02*
X99208646Y-53039085D01*
X100113408Y-52705752D02*
X100113408Y-53372419D01*
X100113408Y-52800990D02*
X100161027Y-52753371D01*
X100161027Y-52753371D02*
X100256265Y-52705752D01*
X100256265Y-52705752D02*
X100399122Y-52705752D01*
X100399122Y-52705752D02*
X100494360Y-52753371D01*
X100494360Y-52753371D02*
X100541979Y-52848609D01*
X100541979Y-52848609D02*
X100541979Y-53372419D01*
X100970551Y-53324800D02*
X101065789Y-53372419D01*
X101065789Y-53372419D02*
X101256265Y-53372419D01*
X101256265Y-53372419D02*
X101351503Y-53324800D01*
X101351503Y-53324800D02*
X101399122Y-53229561D01*
X101399122Y-53229561D02*
X101399122Y-53181942D01*
X101399122Y-53181942D02*
X101351503Y-53086704D01*
X101351503Y-53086704D02*
X101256265Y-53039085D01*
X101256265Y-53039085D02*
X101113408Y-53039085D01*
X101113408Y-53039085D02*
X101018170Y-52991466D01*
X101018170Y-52991466D02*
X100970551Y-52896228D01*
X100970551Y-52896228D02*
X100970551Y-52848609D01*
X100970551Y-52848609D02*
X101018170Y-52753371D01*
X101018170Y-52753371D02*
X101113408Y-52705752D01*
X101113408Y-52705752D02*
X101256265Y-52705752D01*
X101256265Y-52705752D02*
X101351503Y-52753371D01*
X101970551Y-53372419D02*
X101875313Y-53324800D01*
X101875313Y-53324800D02*
X101827694Y-53277180D01*
X101827694Y-53277180D02*
X101780075Y-53181942D01*
X101780075Y-53181942D02*
X101780075Y-52896228D01*
X101780075Y-52896228D02*
X101827694Y-52800990D01*
X101827694Y-52800990D02*
X101875313Y-52753371D01*
X101875313Y-52753371D02*
X101970551Y-52705752D01*
X101970551Y-52705752D02*
X102113408Y-52705752D01*
X102113408Y-52705752D02*
X102208646Y-52753371D01*
X102208646Y-52753371D02*
X102256265Y-52800990D01*
X102256265Y-52800990D02*
X102303884Y-52896228D01*
X102303884Y-52896228D02*
X102303884Y-53181942D01*
X102303884Y-53181942D02*
X102256265Y-53277180D01*
X102256265Y-53277180D02*
X102208646Y-53324800D01*
X102208646Y-53324800D02*
X102113408Y-53372419D01*
X102113408Y-53372419D02*
X101970551Y-53372419D01*
X102732456Y-53372419D02*
X102732456Y-52705752D01*
X102732456Y-52896228D02*
X102780075Y-52800990D01*
X102780075Y-52800990D02*
X102827694Y-52753371D01*
X102827694Y-52753371D02*
X102922932Y-52705752D01*
X102922932Y-52705752D02*
X103018170Y-52705752D01*
X104446742Y-52848609D02*
X104589599Y-52896228D01*
X104589599Y-52896228D02*
X104637218Y-52943847D01*
X104637218Y-52943847D02*
X104684837Y-53039085D01*
X104684837Y-53039085D02*
X104684837Y-53181942D01*
X104684837Y-53181942D02*
X104637218Y-53277180D01*
X104637218Y-53277180D02*
X104589599Y-53324800D01*
X104589599Y-53324800D02*
X104494361Y-53372419D01*
X104494361Y-53372419D02*
X104113409Y-53372419D01*
X104113409Y-53372419D02*
X104113409Y-52372419D01*
X104113409Y-52372419D02*
X104446742Y-52372419D01*
X104446742Y-52372419D02*
X104541980Y-52420038D01*
X104541980Y-52420038D02*
X104589599Y-52467657D01*
X104589599Y-52467657D02*
X104637218Y-52562895D01*
X104637218Y-52562895D02*
X104637218Y-52658133D01*
X104637218Y-52658133D02*
X104589599Y-52753371D01*
X104589599Y-52753371D02*
X104541980Y-52800990D01*
X104541980Y-52800990D02*
X104446742Y-52848609D01*
X104446742Y-52848609D02*
X104113409Y-52848609D01*
X105256266Y-53372419D02*
X105161028Y-53324800D01*
X105161028Y-53324800D02*
X105113409Y-53277180D01*
X105113409Y-53277180D02*
X105065790Y-53181942D01*
X105065790Y-53181942D02*
X105065790Y-52896228D01*
X105065790Y-52896228D02*
X105113409Y-52800990D01*
X105113409Y-52800990D02*
X105161028Y-52753371D01*
X105161028Y-52753371D02*
X105256266Y-52705752D01*
X105256266Y-52705752D02*
X105399123Y-52705752D01*
X105399123Y-52705752D02*
X105494361Y-52753371D01*
X105494361Y-52753371D02*
X105541980Y-52800990D01*
X105541980Y-52800990D02*
X105589599Y-52896228D01*
X105589599Y-52896228D02*
X105589599Y-53181942D01*
X105589599Y-53181942D02*
X105541980Y-53277180D01*
X105541980Y-53277180D02*
X105494361Y-53324800D01*
X105494361Y-53324800D02*
X105399123Y-53372419D01*
X105399123Y-53372419D02*
X105256266Y-53372419D01*
X106446742Y-53372419D02*
X106446742Y-52848609D01*
X106446742Y-52848609D02*
X106399123Y-52753371D01*
X106399123Y-52753371D02*
X106303885Y-52705752D01*
X106303885Y-52705752D02*
X106113409Y-52705752D01*
X106113409Y-52705752D02*
X106018171Y-52753371D01*
X106446742Y-53324800D02*
X106351504Y-53372419D01*
X106351504Y-53372419D02*
X106113409Y-53372419D01*
X106113409Y-53372419D02*
X106018171Y-53324800D01*
X106018171Y-53324800D02*
X105970552Y-53229561D01*
X105970552Y-53229561D02*
X105970552Y-53134323D01*
X105970552Y-53134323D02*
X106018171Y-53039085D01*
X106018171Y-53039085D02*
X106113409Y-52991466D01*
X106113409Y-52991466D02*
X106351504Y-52991466D01*
X106351504Y-52991466D02*
X106446742Y-52943847D01*
X106922933Y-53372419D02*
X106922933Y-52705752D01*
X106922933Y-52896228D02*
X106970552Y-52800990D01*
X106970552Y-52800990D02*
X107018171Y-52753371D01*
X107018171Y-52753371D02*
X107113409Y-52705752D01*
X107113409Y-52705752D02*
X107208647Y-52705752D01*
X107970552Y-53372419D02*
X107970552Y-52372419D01*
X107970552Y-53324800D02*
X107875314Y-53372419D01*
X107875314Y-53372419D02*
X107684838Y-53372419D01*
X107684838Y-53372419D02*
X107589600Y-53324800D01*
X107589600Y-53324800D02*
X107541981Y-53277180D01*
X107541981Y-53277180D02*
X107494362Y-53181942D01*
X107494362Y-53181942D02*
X107494362Y-52896228D01*
X107494362Y-52896228D02*
X107541981Y-52800990D01*
X107541981Y-52800990D02*
X107589600Y-52753371D01*
X107589600Y-52753371D02*
X107684838Y-52705752D01*
X107684838Y-52705752D02*
X107875314Y-52705752D01*
X107875314Y-52705752D02*
X107970552Y-52753371D01*
X108208648Y-53467657D02*
X108970552Y-53467657D01*
X109684838Y-53372419D02*
X109208648Y-53372419D01*
X109208648Y-53372419D02*
X109208648Y-52372419D01*
X110446743Y-53372419D02*
X110446743Y-52848609D01*
X110446743Y-52848609D02*
X110399124Y-52753371D01*
X110399124Y-52753371D02*
X110303886Y-52705752D01*
X110303886Y-52705752D02*
X110113410Y-52705752D01*
X110113410Y-52705752D02*
X110018172Y-52753371D01*
X110446743Y-53324800D02*
X110351505Y-53372419D01*
X110351505Y-53372419D02*
X110113410Y-53372419D01*
X110113410Y-53372419D02*
X110018172Y-53324800D01*
X110018172Y-53324800D02*
X109970553Y-53229561D01*
X109970553Y-53229561D02*
X109970553Y-53134323D01*
X109970553Y-53134323D02*
X110018172Y-53039085D01*
X110018172Y-53039085D02*
X110113410Y-52991466D01*
X110113410Y-52991466D02*
X110351505Y-52991466D01*
X110351505Y-52991466D02*
X110446743Y-52943847D01*
X111351505Y-52705752D02*
X111351505Y-53372419D01*
X110922934Y-52705752D02*
X110922934Y-53229561D01*
X110922934Y-53229561D02*
X110970553Y-53324800D01*
X110970553Y-53324800D02*
X111065791Y-53372419D01*
X111065791Y-53372419D02*
X111208648Y-53372419D01*
X111208648Y-53372419D02*
X111303886Y-53324800D01*
X111303886Y-53324800D02*
X111351505Y-53277180D01*
X111827696Y-53372419D02*
X111827696Y-52705752D01*
X111827696Y-52896228D02*
X111875315Y-52800990D01*
X111875315Y-52800990D02*
X111922934Y-52753371D01*
X111922934Y-52753371D02*
X112018172Y-52705752D01*
X112018172Y-52705752D02*
X112113410Y-52705752D01*
X112875315Y-53372419D02*
X112875315Y-52848609D01*
X112875315Y-52848609D02*
X112827696Y-52753371D01*
X112827696Y-52753371D02*
X112732458Y-52705752D01*
X112732458Y-52705752D02*
X112541982Y-52705752D01*
X112541982Y-52705752D02*
X112446744Y-52753371D01*
X112875315Y-53324800D02*
X112780077Y-53372419D01*
X112780077Y-53372419D02*
X112541982Y-53372419D01*
X112541982Y-53372419D02*
X112446744Y-53324800D01*
X112446744Y-53324800D02*
X112399125Y-53229561D01*
X112399125Y-53229561D02*
X112399125Y-53134323D01*
X112399125Y-53134323D02*
X112446744Y-53039085D01*
X112446744Y-53039085D02*
X112541982Y-52991466D01*
X112541982Y-52991466D02*
X112780077Y-52991466D01*
X112780077Y-52991466D02*
X112875315Y-52943847D01*
X114018173Y-52705752D02*
X114256268Y-53372419D01*
X114256268Y-53372419D02*
X114494363Y-52705752D01*
X115399125Y-53372419D02*
X114827697Y-53372419D01*
X115113411Y-53372419D02*
X115113411Y-52372419D01*
X115113411Y-52372419D02*
X115018173Y-52515276D01*
X115018173Y-52515276D02*
X114922935Y-52610514D01*
X114922935Y-52610514D02*
X114827697Y-52658133D01*
X115827697Y-53277180D02*
X115875316Y-53324800D01*
X115875316Y-53324800D02*
X115827697Y-53372419D01*
X115827697Y-53372419D02*
X115780078Y-53324800D01*
X115780078Y-53324800D02*
X115827697Y-53277180D01*
X115827697Y-53277180D02*
X115827697Y-53372419D01*
X116494363Y-52372419D02*
X116589601Y-52372419D01*
X116589601Y-52372419D02*
X116684839Y-52420038D01*
X116684839Y-52420038D02*
X116732458Y-52467657D01*
X116732458Y-52467657D02*
X116780077Y-52562895D01*
X116780077Y-52562895D02*
X116827696Y-52753371D01*
X116827696Y-52753371D02*
X116827696Y-52991466D01*
X116827696Y-52991466D02*
X116780077Y-53181942D01*
X116780077Y-53181942D02*
X116732458Y-53277180D01*
X116732458Y-53277180D02*
X116684839Y-53324800D01*
X116684839Y-53324800D02*
X116589601Y-53372419D01*
X116589601Y-53372419D02*
X116494363Y-53372419D01*
X116494363Y-53372419D02*
X116399125Y-53324800D01*
X116399125Y-53324800D02*
X116351506Y-53277180D01*
X116351506Y-53277180D02*
X116303887Y-53181942D01*
X116303887Y-53181942D02*
X116256268Y-52991466D01*
X116256268Y-52991466D02*
X116256268Y-52753371D01*
X116256268Y-52753371D02*
X116303887Y-52562895D01*
X116303887Y-52562895D02*
X116351506Y-52467657D01*
X116351506Y-52467657D02*
X116399125Y-52420038D01*
X116399125Y-52420038D02*
X116494363Y-52372419D01*
D11*
X115331009Y-65785714D02*
X115378628Y-65642857D01*
X115378628Y-65642857D02*
X115426247Y-65595238D01*
X115426247Y-65595238D02*
X115521485Y-65547619D01*
X115521485Y-65547619D02*
X115664342Y-65547619D01*
X115664342Y-65547619D02*
X115759580Y-65595238D01*
X115759580Y-65595238D02*
X115807200Y-65642857D01*
X115807200Y-65642857D02*
X115854819Y-65738095D01*
X115854819Y-65738095D02*
X115854819Y-66119047D01*
X115854819Y-66119047D02*
X114854819Y-66119047D01*
X114854819Y-66119047D02*
X114854819Y-65785714D01*
X114854819Y-65785714D02*
X114902438Y-65690476D01*
X114902438Y-65690476D02*
X114950057Y-65642857D01*
X114950057Y-65642857D02*
X115045295Y-65595238D01*
X115045295Y-65595238D02*
X115140533Y-65595238D01*
X115140533Y-65595238D02*
X115235771Y-65642857D01*
X115235771Y-65642857D02*
X115283390Y-65690476D01*
X115283390Y-65690476D02*
X115331009Y-65785714D01*
X115331009Y-65785714D02*
X115331009Y-66119047D01*
X114854819Y-65261904D02*
X114854819Y-64690476D01*
X115854819Y-64976190D02*
X114854819Y-64976190D01*
X115854819Y-63833333D02*
X115854819Y-64404761D01*
X115854819Y-64119047D02*
X114854819Y-64119047D01*
X114854819Y-64119047D02*
X114997676Y-64214285D01*
X114997676Y-64214285D02*
X115092914Y-64309523D01*
X115092914Y-64309523D02*
X115140533Y-64404761D01*
X103833333Y-68054819D02*
X103500000Y-67578628D01*
X103261905Y-68054819D02*
X103261905Y-67054819D01*
X103261905Y-67054819D02*
X103642857Y-67054819D01*
X103642857Y-67054819D02*
X103738095Y-67102438D01*
X103738095Y-67102438D02*
X103785714Y-67150057D01*
X103785714Y-67150057D02*
X103833333Y-67245295D01*
X103833333Y-67245295D02*
X103833333Y-67388152D01*
X103833333Y-67388152D02*
X103785714Y-67483390D01*
X103785714Y-67483390D02*
X103738095Y-67531009D01*
X103738095Y-67531009D02*
X103642857Y-67578628D01*
X103642857Y-67578628D02*
X103261905Y-67578628D01*
X104785714Y-68054819D02*
X104214286Y-68054819D01*
X104500000Y-68054819D02*
X104500000Y-67054819D01*
X104500000Y-67054819D02*
X104404762Y-67197676D01*
X104404762Y-67197676D02*
X104309524Y-67292914D01*
X104309524Y-67292914D02*
X104214286Y-67340533D01*
X98083333Y-56679580D02*
X98035714Y-56727200D01*
X98035714Y-56727200D02*
X97892857Y-56774819D01*
X97892857Y-56774819D02*
X97797619Y-56774819D01*
X97797619Y-56774819D02*
X97654762Y-56727200D01*
X97654762Y-56727200D02*
X97559524Y-56631961D01*
X97559524Y-56631961D02*
X97511905Y-56536723D01*
X97511905Y-56536723D02*
X97464286Y-56346247D01*
X97464286Y-56346247D02*
X97464286Y-56203390D01*
X97464286Y-56203390D02*
X97511905Y-56012914D01*
X97511905Y-56012914D02*
X97559524Y-55917676D01*
X97559524Y-55917676D02*
X97654762Y-55822438D01*
X97654762Y-55822438D02*
X97797619Y-55774819D01*
X97797619Y-55774819D02*
X97892857Y-55774819D01*
X97892857Y-55774819D02*
X98035714Y-55822438D01*
X98035714Y-55822438D02*
X98083333Y-55870057D01*
X99035714Y-56774819D02*
X98464286Y-56774819D01*
X98750000Y-56774819D02*
X98750000Y-55774819D01*
X98750000Y-55774819D02*
X98654762Y-55917676D01*
X98654762Y-55917676D02*
X98559524Y-56012914D01*
X98559524Y-56012914D02*
X98464286Y-56060533D01*
X96848196Y-65827588D02*
X96514590Y-65351007D01*
X96276300Y-65827588D02*
X96276300Y-64826769D01*
X96276300Y-64826769D02*
X96657564Y-64826769D01*
X96657564Y-64826769D02*
X96752880Y-64874427D01*
X96752880Y-64874427D02*
X96800538Y-64922085D01*
X96800538Y-64922085D02*
X96848196Y-65017401D01*
X96848196Y-65017401D02*
X96848196Y-65160375D01*
X96848196Y-65160375D02*
X96800538Y-65255691D01*
X96800538Y-65255691D02*
X96752880Y-65303349D01*
X96752880Y-65303349D02*
X96657564Y-65351007D01*
X96657564Y-65351007D02*
X96276300Y-65351007D01*
X97229461Y-64922085D02*
X97277119Y-64874427D01*
X97277119Y-64874427D02*
X97372435Y-64826769D01*
X97372435Y-64826769D02*
X97610725Y-64826769D01*
X97610725Y-64826769D02*
X97706041Y-64874427D01*
X97706041Y-64874427D02*
X97753699Y-64922085D01*
X97753699Y-64922085D02*
X97801357Y-65017401D01*
X97801357Y-65017401D02*
X97801357Y-65112717D01*
X97801357Y-65112717D02*
X97753699Y-65255691D01*
X97753699Y-65255691D02*
X97181803Y-65827588D01*
X97181803Y-65827588D02*
X97801357Y-65827588D01*
D10*
X81238095Y-64807919D02*
X81238095Y-65617442D01*
X81238095Y-65617442D02*
X81285714Y-65712680D01*
X81285714Y-65712680D02*
X81333333Y-65760300D01*
X81333333Y-65760300D02*
X81428571Y-65807919D01*
X81428571Y-65807919D02*
X81619047Y-65807919D01*
X81619047Y-65807919D02*
X81714285Y-65760300D01*
X81714285Y-65760300D02*
X81761904Y-65712680D01*
X81761904Y-65712680D02*
X81809523Y-65617442D01*
X81809523Y-65617442D02*
X81809523Y-64807919D01*
X82238095Y-64903157D02*
X82285714Y-64855538D01*
X82285714Y-64855538D02*
X82380952Y-64807919D01*
X82380952Y-64807919D02*
X82619047Y-64807919D01*
X82619047Y-64807919D02*
X82714285Y-64855538D01*
X82714285Y-64855538D02*
X82761904Y-64903157D01*
X82761904Y-64903157D02*
X82809523Y-64998395D01*
X82809523Y-64998395D02*
X82809523Y-65093633D01*
X82809523Y-65093633D02*
X82761904Y-65236490D01*
X82761904Y-65236490D02*
X82190476Y-65807919D01*
X82190476Y-65807919D02*
X82809523Y-65807919D01*
D11*
X103721667Y-60907200D02*
X103864524Y-60954819D01*
X103864524Y-60954819D02*
X104102619Y-60954819D01*
X104102619Y-60954819D02*
X104197857Y-60907200D01*
X104197857Y-60907200D02*
X104245476Y-60859580D01*
X104245476Y-60859580D02*
X104293095Y-60764342D01*
X104293095Y-60764342D02*
X104293095Y-60669104D01*
X104293095Y-60669104D02*
X104245476Y-60573866D01*
X104245476Y-60573866D02*
X104197857Y-60526247D01*
X104197857Y-60526247D02*
X104102619Y-60478628D01*
X104102619Y-60478628D02*
X103912143Y-60431009D01*
X103912143Y-60431009D02*
X103816905Y-60383390D01*
X103816905Y-60383390D02*
X103769286Y-60335771D01*
X103769286Y-60335771D02*
X103721667Y-60240533D01*
X103721667Y-60240533D02*
X103721667Y-60145295D01*
X103721667Y-60145295D02*
X103769286Y-60050057D01*
X103769286Y-60050057D02*
X103816905Y-60002438D01*
X103816905Y-60002438D02*
X103912143Y-59954819D01*
X103912143Y-59954819D02*
X104150238Y-59954819D01*
X104150238Y-59954819D02*
X104293095Y-60002438D01*
X104626429Y-59954819D02*
X104864524Y-60954819D01*
X104864524Y-60954819D02*
X105055000Y-60240533D01*
X105055000Y-60240533D02*
X105245476Y-60954819D01*
X105245476Y-60954819D02*
X105483572Y-59954819D01*
X106388333Y-60954819D02*
X105816905Y-60954819D01*
X106102619Y-60954819D02*
X106102619Y-59954819D01*
X106102619Y-59954819D02*
X106007381Y-60097676D01*
X106007381Y-60097676D02*
X105912143Y-60192914D01*
X105912143Y-60192914D02*
X105816905Y-60240533D01*
D12*
%TO.C,BT1*%
X109590000Y-62440000D02*
X109590000Y-68560000D01*
X109590000Y-68560000D02*
X114310000Y-68560000D01*
X110200000Y-63050000D02*
X110200000Y-67950000D01*
X110200000Y-65400000D02*
X110700000Y-65400000D01*
X110200000Y-65500000D02*
X110700000Y-65500000D01*
X110200000Y-67950000D02*
X113700000Y-67950000D01*
X110700000Y-65400000D02*
X110700000Y-65600000D01*
X110700000Y-65600000D02*
X110200000Y-65600000D01*
X111700000Y-62440000D02*
X111700000Y-63050000D01*
X111700000Y-68560000D02*
X111700000Y-67950000D01*
X113000000Y-62440000D02*
X113000000Y-63050000D01*
X113000000Y-68560000D02*
X113000000Y-67950000D01*
X113700000Y-63050000D02*
X110200000Y-63050000D01*
X113700000Y-65000000D02*
X113700000Y-63050000D01*
X113700000Y-66000000D02*
X114310000Y-66000000D01*
X113700000Y-67950000D02*
X113700000Y-66000000D01*
X114310000Y-62440000D02*
X109590000Y-62440000D01*
X114310000Y-64200000D02*
X114510000Y-64200000D01*
X114310000Y-65000000D02*
X113700000Y-65000000D01*
X114310000Y-68560000D02*
X114310000Y-62440000D01*
X114410000Y-64200000D02*
X114410000Y-63900000D01*
X114510000Y-63900000D02*
X114310000Y-63900000D01*
X114510000Y-64200000D02*
X114510000Y-63900000D01*
X114610000Y-62140000D02*
X113360000Y-62140000D01*
X114610000Y-63390000D02*
X114610000Y-62140000D01*
%TO.C,R1*%
X103772936Y-68515000D02*
X104227064Y-68515000D01*
X103772936Y-69985000D02*
X104227064Y-69985000D01*
%TO.C,C1*%
X97988748Y-57265000D02*
X98511252Y-57265000D01*
X97988748Y-58735000D02*
X98511252Y-58735000D01*
D13*
%TO.C,R2*%
X95410000Y-66230000D02*
X98690000Y-66230000D01*
X98690000Y-70770000D02*
X95410000Y-70770000D01*
X95410000Y-70770000D02*
G75*
G02*
X95410000Y-66230000I2270000J2270000D01*
G01*
X98690000Y-66230000D02*
G75*
G02*
X98690000Y-70770000I-2269999J-2270000D01*
G01*
D14*
X94150000Y-68500000D02*
G75*
G02*
X93950000Y-68500000I-100000J0D01*
G01*
X93950000Y-68500000D02*
G75*
G02*
X94150000Y-68500000I100000J0D01*
G01*
D10*
%TO.C,U2*%
X78190000Y-55190500D02*
X78190000Y-59000500D01*
X78190000Y-59000500D02*
X85810000Y-59000500D01*
X85810000Y-59000500D02*
X85810000Y-55190500D01*
D12*
%TO.C,SW1*%
X103395000Y-59330000D02*
X103395000Y-58000000D01*
X104725000Y-59330000D02*
X103395000Y-59330000D01*
X105995000Y-56670000D02*
X111135000Y-56670000D01*
X105995000Y-59330000D02*
X105995000Y-56670000D01*
X105995000Y-59330000D02*
X111135000Y-59330000D01*
X111135000Y-59330000D02*
X111135000Y-56670000D01*
%TD*%
M02*
