M48
; DRILL file {KiCad 8.0.8} date 2025-02-10T00:24:11-0800
; FORMAT={-:-/ absolute / inch / decimal}
; #@! TF.CreationDate,2025-02-10T00:24:11-08:00
; #@! TF.GenerationSoftware,Kicad,Pcbnew,8.0.8
; #@! TF.FileFunction,Plated,1,2,PTH
FMAT,2
INCH
; #@! TA.AperFunction,Plated,PTH,ComponentDrill
T1C0.0256
; #@! TA.AperFunction,Plated,PTH,ComponentDrill
T2C0.0295
; #@! TA.AperFunction,Plated,PTH,ComponentDrill
T3C0.0394
; #@! TA.AperFunction,Plated,PTH,ComponentDrill
T4C0.0400
%
G90
G05
T1
X3.7539Y-2.6969
X3.8878Y-2.6969
T2
X4.4291Y-2.5394
X4.4291Y-2.6181
T3
X4.123Y-2.2835
X4.223Y-2.2835
X4.323Y-2.2835
T4
X2.9283Y-2.2729
X2.9283Y-2.3729
X2.9283Y-2.4729
X2.9283Y-2.5729
X2.9283Y-2.6729
X2.9283Y-2.7729
X2.9283Y-2.8729
X3.5283Y-2.2729
X3.5283Y-2.3729
X3.5283Y-2.4729
X3.5283Y-2.5729
X3.5283Y-2.6729
X3.5283Y-2.7729
X3.5283Y-2.8729
M30
