%TF.GenerationSoftware,KiCad,Pcbnew,8.0.8*%
%TF.CreationDate,2025-02-10T00:24:17-08:00*%
%TF.ProjectId,514_final_sensor_pcb,3531345f-6669-46e6-916c-5f73656e736f,rev?*%
%TF.SameCoordinates,Original*%
%TF.FileFunction,Copper,L1,Top*%
%TF.FilePolarity,Positive*%
%FSLAX46Y46*%
G04 Gerber Fmt 4.6, Leading zero omitted, Abs format (unit mm)*
G04 Created by KiCad (PCBNEW 8.0.8) date 2025-02-10 00:24:17*
%MOMM*%
%LPD*%
G01*
G04 APERTURE LIST*
G04 Aperture macros list*
%AMRoundRect*
0 Rectangle with rounded corners*
0 $1 Rounding radius*
0 $2 $3 $4 $5 $6 $7 $8 $9 X,Y pos of 4 corners*
0 Add a 4 corners polygon primitive as box body*
4,1,4,$2,$3,$4,$5,$6,$7,$8,$9,$2,$3,0*
0 Add four circle primitives for the rounded corners*
1,1,$1+$1,$2,$3*
1,1,$1+$1,$4,$5*
1,1,$1+$1,$6,$7*
1,1,$1+$1,$8,$9*
0 Add four rect primitives between the rounded corners*
20,1,$1+$1,$2,$3,$4,$5,0*
20,1,$1+$1,$4,$5,$6,$7,0*
20,1,$1+$1,$6,$7,$8,$9,0*
20,1,$1+$1,$8,$9,$2,$3,0*%
G04 Aperture macros list end*
%TA.AperFunction,ComponentPad*%
%ADD10RoundRect,0.250000X-0.625000X0.350000X-0.625000X-0.350000X0.625000X-0.350000X0.625000X0.350000X0*%
%TD*%
%TA.AperFunction,ComponentPad*%
%ADD11O,1.750000X1.200000*%
%TD*%
%TA.AperFunction,SMDPad,CuDef*%
%ADD12RoundRect,0.250000X-0.350000X-0.450000X0.350000X-0.450000X0.350000X0.450000X-0.350000X0.450000X0*%
%TD*%
%TA.AperFunction,SMDPad,CuDef*%
%ADD13RoundRect,0.250000X-0.337500X-0.475000X0.337500X-0.475000X0.337500X0.475000X-0.337500X0.475000X0*%
%TD*%
%TA.AperFunction,ComponentPad*%
%ADD14R,1.158000X1.158000*%
%TD*%
%TA.AperFunction,ComponentPad*%
%ADD15C,1.158000*%
%TD*%
%TA.AperFunction,ComponentPad*%
%ADD16O,3.556000X1.778000*%
%TD*%
%TA.AperFunction,ComponentPad*%
%ADD17R,1.700000X1.700000*%
%TD*%
%TA.AperFunction,ComponentPad*%
%ADD18O,1.700000X1.700000*%
%TD*%
%TA.AperFunction,Conductor*%
%ADD19C,0.200000*%
%TD*%
G04 APERTURE END LIST*
D10*
%TO.P,BT1,1,+*%
%TO.N,Net-(BT1-+)*%
X112500000Y-64500000D03*
D11*
%TO.P,BT1,2,-*%
%TO.N,Net-(BT1--)*%
X112500000Y-66500000D03*
%TD*%
D12*
%TO.P,R1,1*%
%TO.N,Net-(U2-GPIO1_A0_D0)*%
X102500000Y-69250000D03*
%TO.P,R1,2*%
%TO.N,Net-(BT1--)*%
X104500000Y-69250000D03*
%TD*%
D13*
%TO.P,C1,1*%
%TO.N,Net-(SW1-A)*%
X97212500Y-58000000D03*
%TO.P,C1,2*%
%TO.N,Net-(BT1--)*%
X99287500Y-58000000D03*
%TD*%
D14*
%TO.P,R2,1*%
%TO.N,Net-(U2-3V3)*%
X95350000Y-68500000D03*
D15*
%TO.P,R2,2*%
%TO.N,Net-(U2-GPIO1_A0_D0)*%
X98750000Y-68500000D03*
%TD*%
D16*
%TO.P,U2,1,GPIO1_A0_D0*%
%TO.N,Net-(U2-GPIO1_A0_D0)*%
X73618000Y-57730500D03*
%TO.P,U2,2,GPIO2_A1_D1*%
%TO.N,unconnected-(U2-GPIO2_A1_D1-Pad2)*%
X73618000Y-60270500D03*
%TO.P,U2,3,GPIO3_A2_D2*%
%TO.N,unconnected-(U2-GPIO3_A2_D2-Pad3)*%
X73618000Y-62810500D03*
%TO.P,U2,4,GPIO4_A3_D3*%
%TO.N,unconnected-(U2-GPIO4_A3_D3-Pad4)*%
X73618000Y-65350500D03*
%TO.P,U2,5,GPIO4_A3_D3_SDA*%
%TO.N,unconnected-(U2-GPIO4_A3_D3_SDA-Pad5)*%
X73618000Y-67890500D03*
%TO.P,U2,6,GPIO6_A5_D5_SCL*%
%TO.N,unconnected-(U2-GPIO6_A5_D5_SCL-Pad6)*%
X73618000Y-70430500D03*
%TO.P,U2,7,GPIO43_TX_D6*%
%TO.N,unconnected-(U2-GPIO43_TX_D6-Pad7)*%
X73618000Y-72970500D03*
%TO.P,U2,8,5V*%
%TO.N,Net-(SW1-A)*%
X90382000Y-57730500D03*
%TO.P,U2,9,GND*%
%TO.N,Net-(BT1--)*%
X90382000Y-60270500D03*
%TO.P,U2,10,3V3*%
%TO.N,Net-(U2-3V3)*%
X90382000Y-62810500D03*
%TO.P,U2,11,GPIO9_A10_D10_COPI*%
%TO.N,unconnected-(U2-GPIO9_A10_D10_COPI-Pad11)*%
X90382000Y-65350500D03*
%TO.P,U2,12,GPIO8_A9_D9_CIPO*%
%TO.N,unconnected-(U2-GPIO8_A9_D9_CIPO-Pad12)*%
X90382000Y-67890500D03*
%TO.P,U2,13,GPIO7_A8_D8_SCK*%
%TO.N,unconnected-(U2-GPIO7_A8_D8_SCK-Pad13)*%
X90382000Y-70430500D03*
%TO.P,U2,14,GPIO44_D7_RX*%
%TO.N,unconnected-(U2-GPIO44_D7_RX-Pad14)*%
X90382000Y-72970500D03*
%TD*%
D17*
%TO.P,SW1,1,A*%
%TO.N,Net-(SW1-A)*%
X104725000Y-58000000D03*
D18*
%TO.P,SW1,2,B*%
%TO.N,Net-(BT1-+)*%
X107265000Y-58000000D03*
%TO.P,SW1,3,C*%
%TO.N,unconnected-(SW1-C-Pad3)*%
X109805000Y-58000000D03*
%TD*%
D19*
%TO.N,Net-(BT1-+)*%
X112500000Y-64500000D02*
X107265000Y-59265000D01*
X107265000Y-59265000D02*
X107265000Y-58000000D01*
%TO.N,Net-(BT1--)*%
X105518750Y-64231250D02*
X99287500Y-58000000D01*
X89620000Y-60270500D02*
X95270500Y-60270500D01*
X105500000Y-64250000D02*
X105518750Y-64231250D01*
X112500000Y-66500000D02*
X107787500Y-66500000D01*
X104500000Y-69250000D02*
X109750000Y-69250000D01*
X95270500Y-60270500D02*
X99250000Y-64250000D01*
X99250000Y-64250000D02*
X105500000Y-64250000D01*
X109750000Y-69250000D02*
X112500000Y-66500000D01*
X107787500Y-66500000D02*
X105518750Y-64231250D01*
%TO.N,Net-(SW1-A)*%
X91350500Y-56000000D02*
X89620000Y-57730500D01*
X104725000Y-58000000D02*
X102725000Y-56000000D01*
X97212500Y-57037500D02*
X97212500Y-58000000D01*
X102725000Y-56000000D02*
X100000000Y-56000000D01*
X98250000Y-56000000D02*
X97212500Y-57037500D01*
X100000000Y-56000000D02*
X91350500Y-56000000D01*
X100000000Y-56000000D02*
X98250000Y-56000000D01*
%TO.N,Net-(U2-GPIO1_A0_D0)*%
X101750000Y-68500000D02*
X102500000Y-69250000D01*
X90000000Y-77500000D02*
X93250000Y-77500000D01*
X98750000Y-72000000D02*
X98750000Y-68500000D01*
X93250000Y-77500000D02*
X98750000Y-72000000D01*
X83351000Y-66701500D02*
X83351000Y-70851000D01*
X83351000Y-70851000D02*
X90000000Y-77500000D01*
X98750000Y-68500000D02*
X101750000Y-68500000D01*
X74380000Y-57730500D02*
X83351000Y-66701500D01*
%TO.N,Net-(U2-3V3)*%
X89620000Y-62810500D02*
X92310500Y-62810500D01*
X95350000Y-65850000D02*
X95350000Y-68500000D01*
X92310500Y-62810500D02*
X95350000Y-65850000D01*
%TD*%
M02*
